<?xml version="1.0" encoding="utf-8"?>
<!-- Generator: Adobe Illustrator 22.1.0, SVG Export Plug-In . SVG Version: 6.00 Build 0)  -->
<svg version="1.1" id="Layer_4" xmlns="http://www.w3.org/2000/svg" xmlns:xlink="http://www.w3.org/1999/xlink" x="0px" y="0px"
	 viewBox="0 0 24 24" style="enable-background:new 0 0 24 24;" xml:space="preserve">
<style type="text/css">
	.st0{fill:url(#SVGID_1_);}
</style>
<g>
	<linearGradient id="SVGID_1_" gradientUnits="userSpaceOnUse" x1="0" y1="12.0367" x2="24" y2="12.0367">
		<stop  offset="0.2" style="stop-color:#00A9CD"/>
		<stop  offset="0.8" style="stop-color:#194AAD"/>
	</linearGradient>
	<path class="st0" d="M11.8,22.5L11.8,22.5c-0.3,0-0.5-0.2-0.5-0.4L7.7,3.9l-2.8,7.9c-0.1,0.2-0.3,0.3-0.5,0.3h-4
		C0.2,12.2,0,12,0,11.7s0.2-0.5,0.5-0.5h3.6l3.3-9.3c0.1-0.2,0.3-0.4,0.5-0.3c0.2,0,0.4,0.2,0.5,0.4l3.5,18l4.6-13.8
		C16.6,6,16.8,5.9,17,5.9s0.4,0.1,0.5,0.3l2.2,5h3.8c0.3,0,0.5,0.2,0.5,0.5s-0.2,0.5-0.5,0.5h-4.2c-0.2,0-0.4-0.1-0.5-0.3L17,7.8
		l-4.8,14.3C12.2,22.4,12,22.5,11.8,22.5z"/>
</g>
</svg>
