<?xml version="1.0" encoding="utf-8"?>
<!-- Generator: Adobe Illustrator 23.0.1, SVG Export Plug-In . SVG Version: 6.00 Build 0)  -->
<svg version="1.1" id="Layer_1" xmlns="http://www.w3.org/2000/svg" xmlns:xlink="http://www.w3.org/1999/xlink" x="0px" y="0px"
	 viewBox="0 0 24 24" style="enable-background:new 0 0 24 24;" xml:space="preserve">
<g>
	<path d="M23.9,17.4l-8.6-8.6l1.6-1.6l0.1,0.1c0.2,0.2,0.5,0.3,0.8,0.3c0.3,0,0.6-0.1,0.8-0.3L19,6.8c0,0,0,0,0,0
		c0.5-0.5,0.5-1.2,0-1.6l-4.8-4.8c-0.4-0.4-1.2-0.4-1.6,0L12,0.8c-0.5,0.5-0.5,1.2,0,1.6L6.7,7.8C6.2,7.4,5.5,7.4,5,7.8L4.6,8.3
		c-0.5,0.5-0.5,1.2,0,1.6l4.8,4.8c0.2,0.2,0.5,0.3,0.8,0.3c0.3,0,0.6-0.1,0.8-0.3l0.5-0.5c0,0,0,0,0,0c0.5-0.5,0.5-1.2,0-1.6
		l-0.1-0.1l1.5-1.5l8.6,8.6c0.1,0.1,0.2,0.1,0.4,0.1c0.1,0,0.3-0.1,0.4-0.1l1.6-1.6C24,17.9,24,17.6,23.9,17.4z M12.7,1.5L13.2,1
		c0,0,0.1,0,0.1,0c0,0,0.1,0,0.1,0l4.8,4.8c0.1,0.1,0.1,0.2,0,0.2l-0.5,0.5c-0.1,0.1-0.2,0.1-0.2,0l-4.8-4.8
		C12.7,1.7,12.7,1.6,12.7,1.5z M12.5,3.4l3.4,3.4L11,11.6L7.6,8.3L12.5,3.4z M10.8,13.6l-0.5,0.5c-0.1,0.1-0.2,0.1-0.2,0L5.3,9.2
		C5.2,9.2,5.2,9,5.3,9l0.5-0.5c0,0,0.1,0,0.1,0c0,0,0.1,0,0.1,0l4.8,4.8C10.9,13.4,10.9,13.5,10.8,13.6z M21.9,18.7l-8-8l0.9-0.9
		l8,8L21.9,18.7z"/>
	<path d="M13.3,20.7h-0.7c0.1-0.2,0.1-0.4,0.1-0.6c0-0.9-0.7-1.6-1.6-1.6H3.8c-0.9,0-1.6,0.7-1.6,1.6c0,0.2,0,0.4,0.1,0.6H1.6
		c-0.9,0-1.6,0.7-1.6,1.6C0,23.3,0.7,24,1.6,24h11.7c0.9,0,1.6-0.7,1.6-1.6C14.9,21.5,14.2,20.7,13.3,20.7z M3.2,20.1
		c0-0.3,0.3-0.6,0.6-0.6h7.2c0.3,0,0.6,0.3,0.6,0.6c0,0.3-0.3,0.6-0.6,0.6H3.8C3.5,20.7,3.2,20.5,3.2,20.1z M13.3,23H1.6
		C1.3,23,1,22.7,1,22.4c0-0.3,0.3-0.6,0.6-0.6h2.2h7.2h2.2c0.3,0,0.6,0.3,0.6,0.6C13.9,22.7,13.6,23,13.3,23z"/>
</g>
</svg>
