<?xml version="1.0" encoding="utf-8"?>
<!-- Generator: Adobe Illustrator 22.1.0, SVG Export Plug-In . SVG Version: 6.00 Build 0)  -->
<svg version="1.1" id="Layer_8" xmlns="http://www.w3.org/2000/svg" xmlns:xlink="http://www.w3.org/1999/xlink" x="0px" y="0px"
	 viewBox="0 0 24 24" style="enable-background:new 0 0 24 24;" xml:space="preserve">
<style type="text/css">
	.st0{fill:url(#SVGID_1_);}
	.st1{fill:url(#SVGID_2_);}
	.st2{fill:url(#SVGID_3_);}
</style>
<g>
	<g>
		<linearGradient id="SVGID_1_" gradientUnits="userSpaceOnUse" x1="0.125" y1="9.95" x2="24.0003" y2="9.95">
			<stop  offset="0.2" style="stop-color:#00A9CD"/>
			<stop  offset="0.8" style="stop-color:#194AAD"/>
		</linearGradient>
		<path class="st0" d="M12.3,16c-0.3,0-0.5-0.2-0.5-0.5c0-3.2,1.5-3.9,2.6-4.4c1-0.4,1.7-0.7,1.7-2.6c0-1.2-0.8-3.6-4-3.6
			C9.3,5,7.9,7.5,7.9,7.6C7.7,7.8,7.4,7.9,7.1,7.8C6.8,7.6,6.8,7.3,6.9,7C7,6.9,8.6,3.9,12.1,3.9c3.3,0,5.1,2.3,5.1,4.6
			c0,2.6-1.3,3.1-2.3,3.6c-1.1,0.5-2,0.8-2,3.4C12.9,15.8,12.6,16,12.3,16z"/>
	</g>
	<g>
		<linearGradient id="SVGID_2_" gradientUnits="userSpaceOnUse" x1="0.125" y1="19.2" x2="24.0003" y2="19.2">
			<stop  offset="0.2" style="stop-color:#00A9CD"/>
			<stop  offset="0.8" style="stop-color:#194AAD"/>
		</linearGradient>
		<path class="st1" d="M12.2,20.1c-0.5,0-0.9-0.4-0.9-0.9s0.4-0.9,0.9-0.9s0.9,0.4,0.9,0.9S12.7,20.1,12.2,20.1z M12.2,19
			c-0.1,0-0.2,0.1-0.2,0.2c0,0.2,0.5,0.2,0.5,0C12.4,19.1,12.3,19,12.2,19z"/>
	</g>
</g>
<g>
	<linearGradient id="SVGID_3_" gradientUnits="userSpaceOnUse" x1="0.125" y1="12" x2="24.0003" y2="12">
		<stop  offset="0.2" style="stop-color:#00A9CD"/>
		<stop  offset="0.8" style="stop-color:#194AAD"/>
	</linearGradient>
	<path class="st2" d="M12,24C5.4,24,0,18.6,0,12S5.4,0,12,0s12,5.4,12,12S18.6,24,12,24z M12,1.1C6,1.1,1.1,6,1.1,12S6,22.9,12,22.9
		S22.9,18,22.9,12S18,1.1,12,1.1z"/>
</g>
</svg>
