<?xml version="1.0" encoding="utf-8"?>
<!-- Generator: Adobe Illustrator 22.1.0, SVG Export Plug-In . SVG Version: 6.00 Build 0)  -->
<svg version="1.1" id="Layer_3" xmlns="http://www.w3.org/2000/svg" xmlns:xlink="http://www.w3.org/1999/xlink" x="0px" y="0px"
	 viewBox="0 0 24 24" style="enable-background:new 0 0 24 24;" xml:space="preserve">
<style type="text/css">
	.st0{fill:url(#SVGID_1_);}
	.st1{fill:url(#SVGID_2_);}
	.st2{fill:url(#SVGID_3_);}
	.st3{fill:url(#SVGID_4_);}
	.st4{fill:url(#SVGID_5_);}
</style>
<g>
	<g>
		<linearGradient id="SVGID_1_" gradientUnits="userSpaceOnUse" x1="0.25" y1="9.6813" x2="23.5013" y2="9.6813">
			<stop  offset="0.2" style="stop-color:#00A9CD"/>
			<stop  offset="0.8" style="stop-color:#194AAD"/>
		</linearGradient>
		<path class="st0" d="M8.1,17.6c-1.7,0-3-1.3-3.1-3.2L3,3.9L0.3,2.6C0,2.5-0.1,2.2,0,2c0.1-0.3,0.4-0.4,0.7-0.3l3,1.3
			C3.8,3.1,4,3.2,4,3.4l2,10.9c0.1,1.4,1,2.4,2.2,2.3h10.5c1.1,0,1.6-1.1,2.4-3l0.1-0.3L22.7,9c0.4-1.1,0.4-1.9,0.1-2.3
			s-1-0.6-2.1-0.6H7.5C7.3,6.2,7,5.9,7,5.7s0.2-0.5,0.5-0.5h13.2c1.5,0,2.4,0.3,2.9,1s0.5,1.7,0,3.2L22,14.1
			c-0.8,1.9-1.6,3.6-3.3,3.6H8.2C8.2,17.6,8.1,17.6,8.1,17.6z"/>
	</g>
	<g>
		<linearGradient id="SVGID_2_" gradientUnits="userSpaceOnUse" x1="0.25" y1="20.3" x2="23.5013" y2="20.3">
			<stop  offset="0.2" style="stop-color:#00A9CD"/>
			<stop  offset="0.8" style="stop-color:#194AAD"/>
		</linearGradient>
		<path class="st1" d="M7.8,22.3c-1.1,0-2-0.9-2-2s0.9-2,2-2s2,0.9,2,2S8.9,22.3,7.8,22.3z M7.8,19.2c-0.6,0-1,0.5-1,1
			c0,0.6,0.5,1,1,1c0.6,0,1-0.5,1-1C8.9,19.7,8.4,19.2,7.8,19.2z"/>
	</g>
	<g>
		<linearGradient id="SVGID_3_" gradientUnits="userSpaceOnUse" x1="0.25" y1="20.3" x2="23.5013" y2="20.3">
			<stop  offset="0.2" style="stop-color:#00A9CD"/>
			<stop  offset="0.8" style="stop-color:#194AAD"/>
		</linearGradient>
		<path class="st2" d="M18.1,22.3c-1.1,0-2-0.9-2-2s0.9-2,2-2s2,0.9,2,2S19.2,22.3,18.1,22.3z M18.1,19.2c-0.6,0-1,0.5-1,1
			c0,0.6,0.5,1,1,1c0.6,0,1-0.5,1-1S18.7,19.2,18.1,19.2z"/>
	</g>
	<g>
		<linearGradient id="SVGID_4_" gradientUnits="userSpaceOnUse" x1="0.25" y1="9.2" x2="23.5013" y2="9.2">
			<stop  offset="0.2" style="stop-color:#00A9CD"/>
			<stop  offset="0.8" style="stop-color:#194AAD"/>
		</linearGradient>
		<path class="st3" d="M20.3,9.7H8.5C8.2,9.7,8,9.5,8,9.2s0.2-0.5,0.5-0.5h11.8c0.3,0,0.5,0.2,0.5,0.5S20.6,9.7,20.3,9.7z"/>
	</g>
	<g>
		<linearGradient id="SVGID_5_" gradientUnits="userSpaceOnUse" x1="0.25" y1="12.7" x2="23.5013" y2="12.7">
			<stop  offset="0.2" style="stop-color:#00A9CD"/>
			<stop  offset="0.8" style="stop-color:#194AAD"/>
		</linearGradient>
		<path class="st4" d="M18.7,13.2H8.8c-0.3,0-0.5-0.2-0.5-0.5s0.2-0.5,0.5-0.5h9.9c0.3,0,0.5,0.2,0.5,0.5S19,13.2,18.7,13.2z"/>
	</g>
</g>
</svg>
