<?xml version="1.0" encoding="utf-8"?>
<!-- Generator: Adobe Illustrator 22.1.0, SVG Export Plug-In . SVG Version: 6.00 Build 0)  -->
<svg version="1.1" id="Layer_3" xmlns="http://www.w3.org/2000/svg" xmlns:xlink="http://www.w3.org/1999/xlink" x="0px" y="0px"
	 viewBox="0 0 24 24" style="enable-background:new 0 0 24 24;" xml:space="preserve">
<style type="text/css">
	.st0{fill:#333333;}
</style>
<g>
	<g>
		<path class="st0" d="M8.1,17.6c-1.7,0-3-1.3-3.1-3.2L3,3.9L0.3,2.6C0,2.5-0.1,2.2,0,2c0.1-0.3,0.4-0.4,0.7-0.3l3,1.3
			c0.1,0.1,0.3,0.2,0.3,0.4l2,10.9c0.1,1.4,1,2.4,2.2,2.3h10.5c1.1,0,1.6-1.1,2.4-3l0.1-0.3l1.5-4.3c0.4-1.1,0.4-1.9,0.1-2.3
			c-0.3-0.4-1-0.6-2.1-0.6H7.5C7.3,6.2,7,5.9,7,5.7s0.2-0.5,0.5-0.5h13.2c1.5,0,2.4,0.3,2.9,1c0.5,0.7,0.5,1.7,0,3.2L22,14.1
			c-0.8,1.9-1.6,3.6-3.3,3.6H8.2C8.2,17.6,8.1,17.6,8.1,17.6z"/>
	</g>
	<g>
		<path class="st0" d="M7.8,22.3c-1.1,0-2-0.9-2-2s0.9-2,2-2c1.1,0,2,0.9,2,2S8.9,22.3,7.8,22.3z M7.8,19.2c-0.6,0-1,0.5-1,1
			c0,0.6,0.5,1,1,1c0.6,0,1-0.5,1-1C8.9,19.7,8.4,19.2,7.8,19.2z"/>
	</g>
	<g>
		<path class="st0" d="M18.1,22.3c-1.1,0-2-0.9-2-2s0.9-2,2-2c1.1,0,2,0.9,2,2S19.2,22.3,18.1,22.3z M18.1,19.2c-0.6,0-1,0.5-1,1
			c0,0.6,0.5,1,1,1c0.6,0,1-0.5,1-1C19.1,19.7,18.7,19.2,18.1,19.2z"/>
	</g>
	<g>
		<path class="st0" d="M20.3,9.7H8.5C8.2,9.7,8,9.5,8,9.2s0.2-0.5,0.5-0.5h11.8c0.3,0,0.5,0.2,0.5,0.5S20.6,9.7,20.3,9.7z"/>
	</g>
	<g>
		<path class="st0" d="M18.7,13.2H8.8c-0.3,0-0.5-0.2-0.5-0.5s0.2-0.5,0.5-0.5h9.9c0.3,0,0.5,0.2,0.5,0.5S19,13.2,18.7,13.2z"/>
	</g>
</g>
</svg>
