<?xml version="1.0" encoding="utf-8"?>
<!-- Generator: Adobe Illustrator 22.1.0, SVG Export Plug-In . SVG Version: 6.00 Build 0)  -->
<svg version="1.1" id="Layer_11" xmlns="http://www.w3.org/2000/svg" xmlns:xlink="http://www.w3.org/1999/xlink" x="0px" y="0px"
	 viewBox="0 0 24 24" style="enable-background:new 0 0 24 24;" xml:space="preserve">
<style type="text/css">
	.st0{fill:#333333;}
</style>
<g>
	<path class="st0" d="M0.5,23.3C0.5,23.3,0.5,23.3,0.5,23.3C0.2,23.3,0,23,0,22.8c0-0.1,0.3-3.6,1.9-5c0.9-0.8,2.7-1.3,4.3-1.8
		c0.9-0.3,2.1-0.6,2.3-0.9C8.9,14.7,9,13.7,9,13.1c-0.4-0.4-1.2-1.4-1.3-2.7C7.1,9.7,6.4,8.3,7.4,7.1C7.3,6.3,6.9,4.3,8,2.7
		c0.8-1.2,2.1-1.8,4-2c1.9,0.2,3.3,0.8,4.1,2c1.1,1.6,0.7,3.6,0.6,4.4c1,1.2,0.3,2.7-0.3,3.4c-0.1,1.3-0.9,2.3-1.3,2.7
		c0,0.6,0.1,1.6,0.4,1.9c0.2,0.2,1.4,0.6,2.3,0.9c1.6,0.5,3.4,1,4.3,1.8c1.7,1.4,1.9,4.9,1.9,5c0,0.3-0.2,0.5-0.5,0.5
		c-0.3,0-0.5-0.2-0.5-0.5c0,0-0.2-3.2-1.6-4.3c-0.8-0.7-2.5-1.2-4-1.6c-1.5-0.5-2.4-0.7-2.8-1.2c-0.8-0.9-0.7-2.7-0.7-2.9
		c0-0.1,0.1-0.3,0.2-0.3c0,0,1.1-1,1.1-2.3c0-0.1,0.1-0.3,0.1-0.3c0.1-0.1,1.3-1.4,0.3-2.4c-0.1-0.1-0.2-0.3-0.1-0.5
		c0,0,0.7-2.3-0.4-3.8c-0.6-0.9-1.7-1.4-3.2-1.5c-1.5,0.1-2.5,0.7-3.1,1.5C7.8,4.8,8.5,7,8.5,7.1c0.1,0.2,0,0.4-0.1,0.5
		c-1,1,0.2,2.3,0.3,2.4c0.1,0.1,0.1,0.2,0.1,0.3c0,1.3,1.1,2.3,1.1,2.3c0.1,0.1,0.2,0.2,0.2,0.3c0,0.2,0.1,2-0.7,2.9
		c-0.4,0.4-1.3,0.7-2.8,1.2c-1.4,0.4-3.2,1-4,1.6c-1.1,1-1.5,3.4-1.6,4.3C1,23.1,0.8,23.3,0.5,23.3z"/>
</g>
</svg>
