<?xml version="1.0" encoding="utf-8"?>
<!-- Generator: Adobe Illustrator 22.1.0, SVG Export Plug-In . SVG Version: 6.00 Build 0)  -->
<svg version="1.1" id="Layer_1" xmlns="http://www.w3.org/2000/svg" xmlns:xlink="http://www.w3.org/1999/xlink" x="0px" y="0px"
	 viewBox="0 0 24 24" style="enable-background:new 0 0 24 24;" xml:space="preserve">
<style type="text/css">
	.st0{fill:url(#SVGID_1_);}
	.st1{fill:url(#SVGID_2_);}
	.st2{fill:url(#SVGID_3_);}
</style>
<g>
	<g>
		<linearGradient id="SVGID_1_" gradientUnits="userSpaceOnUse" x1="6.0298" y1="12.0002" x2="17.9707" y2="12.0002">
			<stop  offset="0.2" style="stop-color:#00A9CD"/>
			<stop  offset="0.8" style="stop-color:#194AAD"/>
		</linearGradient>
		<path class="st0" d="M12,18c-3.3,0-6-2.7-6-6s2.7-6,6-6s6,2.7,6,6S15.3,18,12,18z M12,7c-2.7,0-5,2.2-5,5c0,2.7,2.2,5,5,5
			c2.7,0,5-2.2,5-5C17,9.3,14.7,7,12,7z"/>
	</g>
	<g>
		<linearGradient id="SVGID_2_" gradientUnits="userSpaceOnUse" x1="8.4253" y1="11.9998" x2="15.5742" y2="11.9998">
			<stop  offset="0.2" style="stop-color:#00A9CD"/>
			<stop  offset="0.8" style="stop-color:#194AAD"/>
		</linearGradient>
		<path class="st1" d="M12,15.6c-2,0-3.6-1.6-3.6-3.6c0-2,1.6-3.6,3.6-3.6c2,0,3.6,1.6,3.6,3.6C15.6,14,14,15.6,12,15.6z M12,9.4
			c-1.4,0-2.6,1.2-2.6,2.6c0,1.4,1.2,2.6,2.6,2.6c1.4,0,2.6-1.2,2.6-2.6C14.6,10.6,13.4,9.4,12,9.4z"/>
	</g>
	<g>
		<linearGradient id="SVGID_3_" gradientUnits="userSpaceOnUse" x1="7.226563e-02" y1="12" x2="23.9277" y2="12">
			<stop  offset="0.2" style="stop-color:#00A9CD"/>
			<stop  offset="0.8" style="stop-color:#194AAD"/>
		</linearGradient>
		<path class="st2" d="M13,23.9H11c-0.5,0-1-0.4-1.1-0.9l-0.3-2.1c0-0.1-0.1-0.2-0.2-0.3L7.8,20c-0.1-0.1-0.3,0-0.4,0l-1.7,1.3
			c-0.4,0.3-1,0.3-1.4-0.1l-1.4-1.4c-0.4-0.4-0.4-1-0.1-1.4L4,16.6c0.1-0.1,0.1-0.3,0-0.3l-0.7-1.6c0-0.1-0.2-0.2-0.3-0.3L1,14
			c-0.5-0.1-0.9-0.6-0.9-1.1V11c0-0.5,0.4-1,0.9-1.1l2.1-0.3c0.1,0,0.2-0.1,0.3-0.2L4,7.8c0.1-0.1,0-0.3,0-0.4L2.8,5.6
			c-0.3-0.4-0.3-1,0.1-1.4l1.4-1.4c0.4-0.4,1-0.4,1.4-0.1L7.4,4c0.1,0.1,0.3,0.1,0.3,0l1.6-0.7c0.1,0,0.2-0.2,0.3-0.3L10,1
			c0.1-0.5,0.6-0.9,1.1-0.9H13c0.5,0,1,0.4,1.1,0.9l0.3,2.1c0,0.1,0.1,0.2,0.2,0.3L16.2,4c0.1,0.1,0.3,0,0.4,0l1.7-1.3
			c0.4-0.3,1-0.3,1.4,0.1l1.4,1.4c0.4,0.4,0.4,1,0.1,1.4L20,7.4c-0.1,0.1-0.1,0.3,0,0.3l0.7,1.7c0,0.1,0.2,0.2,0.3,0.3L23,10
			c0.5,0.1,0.9,0.6,0.9,1.1V13c0,0.5-0.4,1-0.9,1.1l-2.1,0.3c-0.1,0-0.2,0.1-0.3,0.2L20,16.2c-0.1,0.1,0,0.3,0,0.4l1.3,1.7
			c0.3,0.4,0.3,1-0.1,1.4l-1.4,1.4c-0.4,0.4-1,0.4-1.4,0.1L16.6,20c-0.1-0.1-0.3-0.1-0.3,0l-1.7,0.7c-0.1,0-0.2,0.2-0.3,0.3L14,23
			C13.9,23.5,13.5,23.9,13,23.9z M7.6,18.9c0.2,0,0.4,0,0.6,0.1l1.6,0.6c0.4,0.1,0.8,0.6,0.9,1l0.3,2.1c0,0,0.1,0.1,0.1,0.1H13
			c0,0,0.1,0,0.1-0.1l0.3-2.1c0.1-0.5,0.5-0.9,0.9-1l1.6-0.7c0.4-0.2,1-0.1,1.3,0.1l1.7,1.3c0,0,0.1,0,0.1,0l1.4-1.4
			c0,0,0-0.1,0-0.1l-1.3-1.7c-0.3-0.4-0.3-1-0.1-1.4l0.6-1.6c0.1-0.4,0.6-0.8,1-0.9l2.1-0.3c0,0,0,0,0,0c0,0,0.1-0.1,0.1-0.1V11
			c0,0,0-0.1-0.1-0.1l-2.1-0.3c-0.5-0.1-0.9-0.5-1-0.9L19,8.1c-0.2-0.4-0.2-1,0.1-1.3l1.3-1.7c0,0,0-0.1,0-0.1l-1.4-1.4
			c0,0-0.1,0-0.1,0l-1.7,1.3c-0.4,0.3-1,0.3-1.4,0.1l-1.6-0.6c-0.4-0.1-0.8-0.6-0.9-1L13,1.1c0,0-0.1-0.1-0.1-0.1H11
			c0,0-0.1,0-0.1,0.1l-0.3,2.1c-0.1,0.5-0.5,0.9-0.9,1L8.1,5c-0.4,0.2-1,0.1-1.3-0.1L5.1,3.6c0,0-0.1,0-0.1,0L3.6,4.9
			c0,0,0,0.1,0,0.1l1.3,1.7c0.3,0.4,0.3,1,0.1,1.4L4.3,9.8c-0.1,0.4-0.6,0.8-1,0.9L1.1,11c0,0-0.1,0.1-0.1,0.1V13c0,0,0,0.1,0.1,0.1
			l2.1,0.3c0.5,0.1,0.9,0.5,1,0.9L5,15.9c0.2,0.4,0.1,1-0.1,1.3l-1.3,1.7c0,0,0,0.1,0,0.1l1.4,1.4c0,0,0.1,0,0.1,0l1.7-1.3
			C7,19,7.3,18.9,7.6,18.9z"/>
	</g>
</g>
</svg>
