<?xml version="1.0" encoding="utf-8"?>
<!-- Generator: Adobe Illustrator 20.1.0, SVG Export Plug-In . SVG Version: 6.00 Build 0)  -->
<svg version="1.1" id="Layer_1" xmlns="http://www.w3.org/2000/svg" xmlns:xlink="http://www.w3.org/1999/xlink" x="0px" y="0px"
	 viewBox="0 0 162.5 52.5" style="enable-background:new 0 0 162.5 52.5;" xml:space="preserve">
<style type="text/css">
	.st0{fill:#0C041E;}
	.st1{fill:url(#SVGID_1_);}
	.st2{fill:url(#SVGID_2_);}
	.st3{fill:#194AAD;}
</style>
<title>coti_logo_color</title>
<path class="st0" d="M81.9,17.5c8.4,0,12.6,4.9,12.6,4.9l-3,4.5c-2.5-2.4-5.8-3.8-9.3-3.8c-6.8,0-11.7,5-11.7,11.9s4.9,12,11.8,12
	c3.9-0.1,7.6-1.7,10.3-4.5l2.6,4.7c-3.5,3.5-8.4,5.5-13.4,5.4C71.4,52.6,64,45.1,64,35S71.4,17.5,81.9,17.5z"/>
<path class="st0" d="M113.3,17.5c10,0,18.1,7.4,18.1,17.5s-8.1,17.6-18.1,17.6S95.2,45.2,95.2,35S103.3,17.5,113.3,17.5z M113.3,47
	c6.4,0,11.5-5,11.5-12c0.2-6.4-4.8-11.7-11.2-11.9s-11.7,4.8-11.9,11.2c0,0.2,0,0.5,0,0.7C101.8,42,107,47,113.3,47L113.3,47z"/>
<path class="st0" d="M135.4,23.9h-4.4v-5.2h4.6V9.1h6.2v9.7h8.1v5.2h-8.1v14.9c0,6.7,5.9,7.5,8.3,7.5c0.5,0,1,0,1.5-0.1v5.7
	c-0.7,0.1-1.5,0.1-2.2,0.1c-4.3,0-14-1.3-14-12.5L135.4,23.9z"/>
<path class="st0" d="M155,5.6h6.5v6.6H155V5.6z M155.1,19h6.4v32.8h-6.4V19z"/>
<linearGradient id="SVGID_1_" gradientUnits="userSpaceOnUse" x1="19.7165" y1="17.536" x2="13.8877" y2="50.5693" gradientTransform="matrix(1 0 0 -1 0 54)">
	<stop  offset="0.1" style="stop-color:#194AAD"/>
	<stop  offset="0.5" style="stop-color:#248FCB"/>
	<stop  offset="0.8" style="stop-color:#2BBFDF"/>
</linearGradient>
<path class="st1" d="M1.3,16.4c-0.9,0-1.3,0.4-1.3,1.2c0,0,0,18,0,20.6c0,0.9,0.4,1.2,1.3,1.2c9.9,0.1,22-8.7,32-15.6L33.3,0
	C23.4,6.8,11,16.5,1.3,16.4z"/>
<linearGradient id="SVGID_2_" gradientUnits="userSpaceOnUse" x1="1810.073" y1="325.6888" x2="1817.7822" y2="369.4051" gradientTransform="matrix(-1 0 0 1 1851.79 -325.17)">
	<stop  offset="0.1" style="stop-color:#194AAD"/>
	<stop  offset="0.5" style="stop-color:#248FCB"/>
	<stop  offset="0.8" style="stop-color:#2BBFDF"/>
</linearGradient>
<path class="st2" d="M53.4,25.7c0.9,0,1.3-0.4,1.3-1.2c0,0,0-18,0-20.6c0-0.9-0.4-1.2-1.3-1.2c-10-0.1-22,8.7-32,15.6V42
	C31.3,35.2,43.7,25.5,53.4,25.7z"/>
<path class="st3" d="M33.3,23.8V10.2c-4.1,2.6-8.2,5.4-12,8v13.6C25.5,29.2,29.5,26.4,33.3,23.8z"/>
</svg>
