<?xml version="1.0" encoding="utf-8"?>
<!-- Generator: Adobe Illustrator 20.1.0, SVG Export Plug-In . SVG Version: 6.00 Build 0)  -->
<svg version="1.1" id="Layer_1" xmlns="http://www.w3.org/2000/svg" xmlns:xlink="http://www.w3.org/1999/xlink" x="0px" y="0px"
	 viewBox="0 0 160 51.6" style="enable-background:new 0 0 160 51.6;" xml:space="preserve">
<style type="text/css">
	.st0{fill:url(#SVGID_1_);}
	.st1{fill:url(#SVGID_2_);}
	.st2{fill:#FFFFFF;}
</style>
<title>coti_logo_white</title>
<linearGradient id="SVGID_1_" gradientUnits="userSpaceOnUse" x1="20.8528" y1="16.2105" x2="15.1328" y2="48.6405" gradientTransform="matrix(1 0 0 -1 0 52)">
	<stop  offset="0.1" style="stop-color:#FFFFFF"/>
	<stop  offset="0.52" style="stop-color:#FFFFFF;stop-opacity:0.69"/>
	<stop  offset="0.8" style="stop-color:#FFFFFF;stop-opacity:0.5"/>
</linearGradient>
<path class="st0" d="M2.8,16c-0.9,0-1.3,0.3-1.3,1.2c0,0,0,17.7,0,20.2c0,0.8,0.4,1.2,1.3,1.2c9.8,0.1,21.5-8.5,31.4-15.3l0-23.3
	C24.5,6.7,12.3,16.2,2.8,16z"/>
<linearGradient id="SVGID_2_" gradientUnits="userSpaceOnUse" x1="1807.36" y1="776.644" x2="1814.9304" y2="819.5574" gradientTransform="matrix(-1 0 0 1 1849.79 -776.14)">
	<stop  offset="0.1" style="stop-color:#FFFFFF"/>
	<stop  offset="0.52" style="stop-color:#FFFFFF;stop-opacity:0.69"/>
	<stop  offset="0.8" style="stop-color:#FFFFFF;stop-opacity:0.5"/>
</linearGradient>
<path class="st1" d="M53.9,25.2c0.8,0,1.3-0.3,1.3-1.2c0,0,0-17.7,0-20.2c0-0.8-0.4-1.2-1.3-1.2c-9.8-0.1-21.5,8.5-31.4,15.3v23.3
	C32.2,34.5,44.4,25,53.9,25.2z"/>
<path class="st2" d="M34.2,23.3V10c-4,2.5-8,5.3-11.8,7.9v13.3C26.5,28.7,30.5,25.9,34.2,23.3z"/>
<path class="st2" d="M81.9,17.2c8.3,0,12.4,4.8,12.4,4.8l-3,4.4c-2.4-2.4-5.7-3.7-9.1-3.8c-6.6,0-11.4,4.9-11.4,11.7
	s4.8,11.8,11.6,11.8c3.8-0.1,7.5-1.7,10.2-4.4l2.5,4.6c-3.5,3.5-8.2,5.4-13.1,5.3c-10.3,0-17.6-7.3-17.6-17.2S71.6,17.2,81.9,17.2z"
	/>
<path class="st2" d="M112.7,17.2c9.8,0,17.8,7.2,17.8,17.2s-7.9,17.3-17.8,17.3s-17.8-7.3-17.8-17.3S102.9,17.2,112.7,17.2z
	 M112.7,46.2c6.2,0,11.3-4.9,11.3-11.8c0.3-6.3-4.6-11.5-10.8-11.8s-11.5,4.6-11.8,10.8c0,0.3,0,0.6,0,1
	C101.4,41.2,106.5,46.2,112.7,46.2L112.7,46.2z"/>
<path class="st2" d="M134.4,23.5h-4.3v-5.1h4.5V8.9h6.1v9.5h7.9v5.1h-7.9v14.6c0,6.6,5.8,7.4,8.1,7.4c0.5,0,1,0,1.5-0.1V51
	c-0.7,0.1-1.5,0.1-2.2,0.1c-4.2,0-13.8-1.3-13.8-12.3V23.5z"/>
<path class="st2" d="M153.6,5.5h6.4V12h-6.4L153.6,5.5z M153.7,18.7h6.3v32.2h-6.3L153.7,18.7z"/>
</svg>
