<?xml version="1.0" encoding="UTF-8"?>
<svg width="27px" height="23px" viewBox="0 0 27 23" version="1.1" xmlns="http://www.w3.org/2000/svg" xmlns:xlink="http://www.w3.org/1999/xlink">
    <!-- Generator: Sketch 49.3 (51167) - http://www.bohemiancoding.com/sketch -->
    <title>balance</title>
    <desc>Created with Sketch.</desc>
    <defs>
        <linearGradient x1="100%" y1="0%" x2="0%" y2="92.5607639%" id="linearGradient-1">
            <stop stop-color="#50E3C2" offset="0%"></stop>
            <stop stop-color="#2CBEDF" offset="100%"></stop>
        </linearGradient>
        <linearGradient x1="86.9927813%" y1="0%" x2="21.660419%" y2="129.463942%" id="linearGradient-2">
            <stop stop-color="#2CBFDF" offset="0%"></stop>
            <stop stop-color="#2C9CDF" offset="100%"></stop>
        </linearGradient>
    </defs>
    <g id="Page-1" stroke="none" stroke-width="1" fill="none" fill-rule="evenodd">
        <g id="Artboard-3" transform="translate(-138.000000, -157.000000)">
            <g id="balance" transform="translate(138.000000, 157.000000)">
                <polygon id="Rectangle-23" fill="url(#linearGradient-1)" fill-rule="nonzero" points="17.1490479 3.29028178 17.2976735 1.25920095 20.6659062 1.14941121 20.949585 5.43115234 19.6921504 5.23984274 18.9108887 5.23984274 18.7736185 3.21215376"></polygon>
                <path d="M18.2052002,2.35357666 L18.2052002,0.352514466 L3.70521053,0.817175462 L3.78173314,4.16029889 L5.78120941,4.11453176 L5.75001219,2.75158601 L18.2052002,2.35357666 Z M5.7046868,0.771408338 L3.77036722,2.81611383 L5.75001219,2.75158601 L5.7046868,0.771408338 Z M16.214233,2.41049793 L18.214233,2.34530663 L18.214233,5.94179885 L16.214233,5.69492548 L16.214233,2.41049793 Z" id="Rectangle-23" fill="url(#linearGradient-1)" fill-rule="nonzero"></path>
                <path d="M24.4883721,10.3641036 L22.4883721,10.3641036 L22.4883721,6.57894737 C22.4883721,6.28566904 22.2566895,6.05263158 21.9767442,6.05263158 L2.51162791,6.05263158 C2.23168259,6.05263158 2,6.28566904 2,6.57894737 L2,20.4736842 C2,20.7669625 2.23168259,21 2.51162791,21 L21.9767442,21 C22.2566895,21 22.4883721,20.7669625 22.4883721,20.4736842 L22.4883721,16.1164679 L24.4883721,16.1164679 L24.4883721,20.4736842 C24.4883721,21.8689299 23.363878,23 21.9767442,23 L2.51162791,23 C1.12449412,23 0,21.8689299 0,20.4736842 L0,6.57894737 C0,5.18370168 1.12449412,4.05263158 2.51162791,4.05263158 L21.9767442,4.05263158 C23.363878,4.05263158 24.4883721,5.18370168 24.4883721,6.57894737 L24.4883721,10.3641036 Z" id="Rectangle-20" fill="url(#linearGradient-2)" fill-rule="nonzero"></path>
                <path d="M21.4651163,12.0639648 L21.4651163,14.6842105 L25,14.6842105 L25,12.0639648 L21.4651163,12.0639648 Z M21.4651163,10.0639648 L25,10.0639648 C26.1045695,10.0639648 27,10.9593953 27,12.0639648 L27,14.6842105 C27,15.78878 26.1045695,16.6842105 25,16.6842105 L21.4651163,16.6842105 C20.3605468,16.6842105 19.4651163,15.78878 19.4651163,14.6842105 L19.4651163,12.0639648 C19.4651163,10.9593953 20.3605468,10.0639648 21.4651163,10.0639648 Z" id="Rectangle-22" fill="url(#linearGradient-2)" fill-rule="nonzero"></path>
                <path d="M23.4788081,13.7781579 C23.7560904,13.7781579 23.9808721,13.5520617 23.9808721,13.2731579 C23.9808721,12.9942541 23.7560904,12.7681579 23.4788081,12.7681579 C23.2015259,12.7681579 22.9767442,12.9942541 22.9767442,13.2731579 C22.9767442,13.5520617 23.2015259,13.7781579 23.4788081,13.7781579 Z" id="Oval-33" fill="#50C8E9"></path>
            </g>
        </g>
    </g>
</svg>