<?xml version="1.0" encoding="UTF-8"?>
<svg width="22px" height="12px" viewBox="0 0 22 12" version="1.1" xmlns="http://www.w3.org/2000/svg" xmlns:xlink="http://www.w3.org/1999/xlink">
    <!-- Generator: Sketch 49.3 (51167) - http://www.bohemiancoding.com/sketch -->
    <title>deposit</title>
    <desc>Created with Sketch.</desc>
    <defs></defs>
    <g id="Page-1" stroke="none" stroke-width="1" fill="none" fill-rule="evenodd">
        <g id="coti-dashboard-desktop---dark-2-1" transform="translate(-389.000000, -463.000000)" fill="#FFFFFF" fill-rule="nonzero">
            <g id="deposit" transform="translate(389.000000, 463.000000)">
                <g id="Group-6">
                    <path d="M1,2 C0.44771525,2 0,1.55228475 0,1 C0,0.44771525 0.44771525,0 1,0 L7,0 C7.55228475,0 8,0.44771525 8,1 C8,1.55228475 7.55228475,2 7,2 L1,2 Z" id="Line-157-Copy"></path>
                    <path d="M15,2 C14.4477153,2 14,1.55228475 14,1 C14,0.44771525 14.4477153,0 15,0 L21,0 C21.5522847,0 22,0.44771525 22,1 C22,1.55228475 21.5522847,2 21,2 L15,2 Z" id="Line-157-Copy-2"></path>
                    <path d="M16,2 L18,2 L18,10 C18,11.1045695 17.1045695,12 16,12 L6,12 C4.8954305,12 4,11.1045695 4,10 L4,2 L6,2 L6,10 L16,10 L16,2 Z" id="Rectangle-17"></path>
                </g>
                <g id="Group-7" transform="translate(9.000000, 2.000000)">
                    <path d="M1.96190645,1.4143671 L0.717601238,2.69645421 C0.3329602,3.09277443 -0.300133988,3.10224228 -0.696454208,2.71760124 C-1.09277443,2.3329602 -1.10224228,1.69986601 -0.717601238,1.30354579 L1.92021734,-1.4143671 L4.69676573,1.28270124 C5.0929189,1.66751433 5.10211185,2.30061257 4.71729876,2.69676573 C4.33248567,3.0929189 3.69938743,3.10211185 3.30323427,2.71729876 L1.96190645,1.4143671 Z" id="Line-Copy"></path>
                    <path d="M1,0.338989258 C1,-0.213295492 1.44771525,-0.661010742 2,-0.661010742 C2.55228475,-0.661010742 3,-0.213295492 3,0.338989258 L3,5 C3,5.55228475 2.55228475,6 2,6 C1.44771525,6 1,5.55228475 1,5 L1,0.338989258 Z" id="Line-3"></path>
                </g>
            </g>
        </g>
    </g>
</svg>