<?xml version="1.0" encoding="UTF-8"?>
<svg width="24px" height="20px" viewBox="0 0 24 20" version="1.1" xmlns="http://www.w3.org/2000/svg" xmlns:xlink="http://www.w3.org/1999/xlink">
    <!-- Generator: Sketch 49.3 (51167) - http://www.bohemiancoding.com/sketch -->
    <title>exchange</title>
    <desc>Created with Sketch.</desc>
    <defs>
        <linearGradient x1="72.4392361%" y1="0%" x2="16.4767795%" y2="89.5887587%" id="linearGradient-1">
            <stop stop-color="#2CBFDF" offset="0%"></stop>
            <stop stop-color="#2C9CDF" offset="100%"></stop>
        </linearGradient>
        <linearGradient x1="100%" y1="0%" x2="0%" y2="92.5607639%" id="linearGradient-2">
            <stop stop-color="#50E3C2" offset="0%"></stop>
            <stop stop-color="#2CBEDF" offset="100%"></stop>
        </linearGradient>
    </defs>
    <g id="Page-1" stroke="none" stroke-width="1" fill="none" fill-rule="evenodd">
        <g id="Artboard-3" transform="translate(-236.000000, -159.000000)" fill-rule="nonzero">
            <g id="exchange" transform="translate(236.000000, 159.000000)">
                <path d="M20.3526717,4.49973822 C20.6567974,4.96074368 20.5296212,5.581005 20.0686157,5.88513065 C19.6076103,6.1892563 18.9873489,6.06208009 18.6832233,5.60107463 C17.2111525,3.36965266 14.7228104,2 12,2 C7.581722,2 4,5.581722 4,10 C4,10.5522847 3.55228475,11 3,11 C2.44771525,11 2,10.5522847 2,10 C2,4.4771525 6.4771525,0 12,0 C15.4020978,0 18.5142788,1.71303096 20.3526717,4.49973822 Z" id="Oval-20" fill="url(#linearGradient-1)"></path>
                <path d="M3.53097604,15.3197059 C3.23681257,14.8522807 3.37726893,14.2348911 3.8446941,13.9407277 C4.31211928,13.6465642 4.92950887,13.7870205 5.22367234,14.2544457 C6.67955422,16.5678391 9.21625331,18 12,18 C16.418278,18 20,14.418278 20,10 C20,9.44771525 20.4477153,9 21,9 C21.5522847,9 22,9.44771525 22,10 C22,15.5228475 17.5228475,20 12,20 C8.52164581,20 5.34925006,18.2089397 3.53097604,15.3197059 Z" id="Path" fill="url(#linearGradient-2)"></path>
                <path d="M19.727232,11.6863917 C19.3481484,12.0880309 18.7152475,12.1063157 18.3136083,11.727232 C17.9119691,11.3481484 17.8936843,10.7152475 18.272768,10.3136083 L20.8665499,7.56549617 L23.5966973,10.2924839 C23.9874477,10.682782 23.9878143,11.3159469 23.5975162,11.7066972 C23.2072181,12.0974476 22.5740532,12.0978142 22.1833029,11.7075161 L20.9088156,10.4345038 L19.727232,11.6863917 Z" id="Line" fill="#4FE1C4"></path>
                <path d="M2.9088156,10.4345038 L1.72723205,11.6863917 C1.34814838,12.0880309 0.715247478,12.1063157 0.31360831,11.727232 C-0.0880308583,11.3481484 -0.106315708,10.7152475 0.272767955,10.3136083 L2.86654988,7.56549617 L5.59669735,10.2924839 C5.98744769,10.682782 5.9878143,11.3159469 5.59751619,11.7066972 C5.20721808,12.0974476 4.5740532,12.0978142 4.18330286,11.7075161 L2.9088156,10.4345038 Z" id="Line-Copy" fill="#2C9CDF" transform="translate(2.944999, 9.782749) rotate(-180.000000) translate(-2.944999, -9.782749) "></path>
            </g>
        </g>
    </g>
</svg>