<?xml version="1.0" encoding="UTF-8"?>
<svg width="28px" height="23px" viewBox="0 0 28 23" version="1.1" xmlns="http://www.w3.org/2000/svg" xmlns:xlink="http://www.w3.org/1999/xlink">
    <!-- Generator: Sketch 49.3 (51167) - http://www.bohemiancoding.com/sketch -->
    <title>featured-merchants</title>
    <desc>Created with Sketch.</desc>
    <defs>
        <linearGradient x1="86.9927813%" y1="0%" x2="21.660419%" y2="129.463942%" id="linearGradient-1">
            <stop stop-color="#2CBFDF" offset="0%"></stop>
            <stop stop-color="#2C9CDF" offset="100%"></stop>
        </linearGradient>
    </defs>
    <g id="Page-1" stroke="none" stroke-width="1" fill="none" fill-rule="evenodd">
        <g id="Artboard-3" transform="translate(-183.000000, -158.000000)" fill="url(#linearGradient-1)" fill-rule="nonzero">
            <g id="featured-merchants" transform="translate(184.000000, 158.000000)">
                <path d="M24.7611953,3.64318986 L11.8924289,3.64318986 C11.3401442,3.64318986 10.8924289,3.19547461 10.8924289,2.64318986 C10.8924289,2.09090511 11.3401442,1.64318986 11.8924289,1.64318986 L26,1.64318986 C26.6372319,1.64318986 27.1119135,2.23122773 26.9775006,2.85412228 L24.5268429,14.2109324 C24.4274939,14.6713348 24.0203418,15 23.5493423,15 L5.93562033,15 C5.4402135,15 5.0194828,14.6372754 4.94652405,14.1472704 L3.01090373,1.14727037 C2.92956855,0.601007586 3.30646684,0.0922389083 3.85272963,0.010903727 C4.39899241,-0.0704314542 4.90776109,0.306466839 4.98909627,0.852729627 L6.79775038,13 L22.7421126,13 L24.7611953,3.64318986 Z" id="Rectangle-9"></path>
                <path d="M11.5,7 C11.2238576,7 11,6.77614237 11,6.5 C11,6.22385763 11.2238576,6 11.5,6 L21.5,6 C21.7761424,6 22,6.22385763 22,6.5 C22,6.77614237 21.7761424,7 21.5,7 L11.5,7 Z" id="Line-20"></path>
                <path d="M10.5,10 C10.2238576,10 10,9.77614237 10,9.5 C10,9.22385763 10.2238576,9 10.5,9 L20.5,9 C20.7761424,9 21,9.22385763 21,9.5 C21,9.77614237 20.7761424,10 20.5,10 L10.5,10 Z" id="Line-20-Copy"></path>
                <path d="M3.42232289,0 C3.97460764,0 4.42232289,0.44771525 4.42232289,1 C4.42232289,1.55228475 3.97460764,2 3.42232289,2 L0,2 C-0.55228475,2 -1,1.55228475 -1,1 C-1,0.44771525 -0.55228475,0 0,0 L3.42232289,0 Z" id="Line-18"></path>
                <path d="M8,23 C6.34314575,23 5,21.6568542 5,20 C5,18.3431458 6.34314575,17 8,17 C9.65685425,17 11,18.3431458 11,20 C11,21.6568542 9.65685425,23 8,23 Z M8,21 C8.55228475,21 9,20.5522847 9,20 C9,19.4477153 8.55228475,19 8,19 C7.44771525,19 7,19.4477153 7,20 C7,20.5522847 7.44771525,21 8,21 Z" id="Oval-10"></path>
                <path d="M22,23 C20.3431458,23 19,21.6568542 19,20 C19,18.3431458 20.3431458,17 22,17 C23.6568542,17 25,18.3431458 25,20 C25,21.6568542 23.6568542,23 22,23 Z M22,21 C22.5522847,21 23,20.5522847 23,20 C23,19.4477153 22.5522847,19 22,19 C21.4477153,19 21,19.4477153 21,20 C21,20.5522847 21.4477153,21 22,21 Z" id="Oval-10-Copy"></path>
            </g>
        </g>
    </g>
</svg>