<?xml version="1.0" encoding="UTF-8"?>
<svg width="29px" height="23px" viewBox="0 0 29 23" version="1.1" xmlns="http://www.w3.org/2000/svg" xmlns:xlink="http://www.w3.org/1999/xlink">
    <!-- Generator: Sketch 49.3 (51167) - http://www.bohemiancoding.com/sketch -->
    <title>transactions</title>
    <desc>Created with Sketch.</desc>
    <defs>
        <linearGradient x1="50%" y1="74.8834685%" x2="276.147095%" y2="20.0973546%" id="linearGradient-1">
            <stop stop-color="#2CBFDF" offset="0%"></stop>
            <stop stop-color="#2C9CDF" offset="100%"></stop>
        </linearGradient>
        <linearGradient x1="119.614955%" y1="0%" x2="20.8379836%" y2="100%" id="linearGradient-2">
            <stop stop-color="#2CBFDF" offset="0%"></stop>
            <stop stop-color="#2C9CDF" offset="100%"></stop>
        </linearGradient>
        <linearGradient x1="100%" y1="0%" x2="0%" y2="92.5607639%" id="linearGradient-3">
            <stop stop-color="#50E3C2" offset="0%"></stop>
            <stop stop-color="#2CBEDF" offset="100%"></stop>
        </linearGradient>
    </defs>
    <g id="Page-1" stroke="none" stroke-width="1" fill="none" fill-rule="evenodd">
        <g id="Artboard-3" transform="translate(-75.000000, -157.000000)" fill-rule="nonzero">
            <g id="transactions" transform="translate(75.000000, 156.000000)">
                <path d="M26.8815029,8.1071629 L26.963569,3.87089268 L23.7863663,5.94516363 L26.8815029,8.1071629 Z M27.272377,10.8198035 L21.427355,6.73696802 C20.8466102,6.3313091 20.860156,5.46707645 21.4533288,5.07981722 L27.4533288,1.16265266 C28.1258179,0.723610915 29.0153677,1.21640083 28.9998124,2.01936861 L28.8448344,10.0193686 C28.8293441,10.8189816 27.9280255,11.2777837 27.272377,10.8198035 Z" id="Triangle-Copy-10" fill="url(#linearGradient-1)" transform="translate(25.000006, 5.999933) rotate(-180.000000) translate(-25.000006, -5.999933) "></path>
                <path d="M7,20 C6.44771525,20 6,19.5522847 6,19 C6,18.4477153 6.44771525,18 7,18 L26,18 C26.5522847,18 27,18.4477153 27,19 C27,19.5522847 26.5522847,20 26,20 L7,20 Z" id="Line-157" fill="#4BDEC6"></path>
                <path d="M2,7 C1.44771525,7 1,6.55228475 1,6 C1,5.44771525 1.44771525,5 2,5 L21,5 C21.5522847,5 22,5.44771525 22,6 C22,6.55228475 21.5522847,7 21,7 L2,7 Z" id="Line-157-Copy" fill="url(#linearGradient-2)"></path>
                <path d="M6,16.8685171 L2.80277564,19 L6,21.1314829 L6,16.8685171 Z M6.4452998,23.8320503 L0.445299804,19.8320503 C-0.148433268,19.4362282 -0.148433268,18.5637718 0.445299804,18.1679497 L6.4452998,14.1679497 C7.10985453,13.7249132 8,14.2013046 8,15 L8,23 C8,23.7986954 7.10985453,24.2750868 6.4452998,23.8320503 Z" id="Triangle-Copy-11" fill="url(#linearGradient-3)"></path>
            </g>
        </g>
    </g>
</svg>