<?xml version="1.0" encoding="UTF-8"?>
<svg width="22px" height="20px" viewBox="0 0 22 20" version="1.1" xmlns="http://www.w3.org/2000/svg" xmlns:xlink="http://www.w3.org/1999/xlink">
    <!-- Generator: Sketch 49.3 (51167) - http://www.bohemiancoding.com/sketch -->
    <title>trust-score</title>
    <desc>Created with Sketch.</desc>
    <defs>
        <linearGradient x1="72.4392361%" y1="0%" x2="16.4767795%" y2="89.5887587%" id="linearGradient-1">
            <stop stop-color="#2CBFDF" offset="0%"></stop>
            <stop stop-color="#2C9CDF" offset="100%"></stop>
        </linearGradient>
    </defs>
    <g id="Page-1" stroke="none" stroke-width="1" fill="none" fill-rule="evenodd">
        <g id="Artboard-3" transform="translate(-284.000000, -159.000000)" fill-rule="nonzero">
            <g id="trust-score" transform="translate(285.000000, 160.000000)">
                <path d="M9,19 C3.4771525,19 -1,14.5228475 -1,9 C-1,3.4771525 3.4771525,-1 9,-1 C14.5228475,-1 19,3.4771525 19,9 C19,14.5228475 14.5228475,19 9,19 Z M9,17 C13.418278,17 17,13.418278 17,9 C17,4.581722 13.418278,1 9,1 C4.581722,1 1,4.581722 1,9 C1,13.418278 4.581722,17 9,17 Z" id="Oval-20" fill="url(#linearGradient-1)"></path>
                <path d="M16.5,19 C14.0147186,19 12,16.9852814 12,14.5 C12,12.0147186 14.0147186,10 16.5,10 C18.9852814,10 21,12.0147186 21,14.5 C21,16.9852814 18.9852814,19 16.5,19 Z" id="Oval-20" fill="#50E3C2"></path>
            </g>
        </g>
    </g>
</svg>