<?xml version="1.0" encoding="UTF-8"?>
<svg width="20px" height="20px" viewBox="0 0 20 20" version="1.1" xmlns="http://www.w3.org/2000/svg" xmlns:xlink="http://www.w3.org/1999/xlink">
    <!-- Generator: Sketch 49.3 (51167) - http://www.bohemiancoding.com/sketch -->
    <title>upgrade-score</title>
    <desc>Created with Sketch.</desc>
    <defs></defs>
    <g id="Page-1" stroke="none" stroke-width="1" fill="none" fill-rule="evenodd">
        <g id="Artboard-3" transform="translate(-26.000000, -159.000000)" fill="#fff" fill-rule="nonzero">
            <g id="upgrade-score" transform="translate(26.000000, 159.000000)">
                <path d="M8.71760124,10.6964542 C8.3329602,11.0927744 7.69986601,11.1022423 7.30354579,10.7176012 C6.90722557,10.3329602 6.89775772,9.69986601 7.28239876,9.30354579 L9.92021734,6.5856329 L12.6967657,9.28270124 C13.0929189,9.66751433 13.1021118,10.3006126 12.7172988,10.6967657 C12.3324857,11.0929189 11.6993874,11.1021118 11.3032343,10.7172988 L9.96190645,9.4143671 L8.71760124,10.6964542 Z" id="Line-Copy"></path>
                <path d="M9,8.33898926 C9,7.78670451 9.44771525,7.33898926 10,7.33898926 C10.5522847,7.33898926 11,7.78670451 11,8.33898926 L11,13 C11,13.5522847 10.5522847,14 10,14 C9.44771525,14 9,13.5522847 9,13 L9,8.33898926 Z" id="Line-3"></path>
                <path d="M10,20 C4.4771525,20 0,15.5228475 0,10 C0,4.4771525 4.4771525,0 10,0 C15.5228475,0 20,4.4771525 20,10 C20,15.5228475 15.5228475,20 10,20 Z M10,18 C14.418278,18 18,14.418278 18,10 C18,5.581722 14.418278,2 10,2 C5.581722,2 2,5.581722 2,10 C2,14.418278 5.581722,18 10,18 Z" id="Oval-20"></path>
            </g>
        </g>
    </g>
</svg>