<?xml version="1.0" encoding="UTF-8"?>
<svg width="22px" height="12px" viewBox="0 0 22 12" version="1.1" xmlns="http://www.w3.org/2000/svg" xmlns:xlink="http://www.w3.org/1999/xlink">
    <!-- Generator: Sketch 49.3 (51167) - http://www.bohemiancoding.com/sketch -->
    <title>withdraw</title>
    <desc>Created with Sketch.</desc>
    <defs></defs>
    <g id="Page-1" stroke="none" stroke-width="1" fill="none" fill-rule="evenodd">
        <g id="coti-dashboard-desktop---dark-2-1" transform="translate(-599.000000, -464.000000)" fill="#FFFFFF" fill-rule="nonzero">
            <g id="withdraw" transform="translate(600.000000, 464.000000)">
                <g id="Group-6-Copy">
                    <path d="M0,2 C-0.55228475,2 -1,1.55228475 -1,1 C-1,0.44771525 -0.55228475,0 0,0 L6,0 C6.55228475,0 7,0.44771525 7,1 C7,1.55228475 6.55228475,2 6,2 L0,2 Z" id="Line-157-Copy"></path>
                    <path d="M14,2 C13.4477153,2 13,1.55228475 13,1 C13,0.44771525 13.4477153,0 14,0 L20,0 C20.5522847,0 21,0.44771525 21,1 C21,1.55228475 20.5522847,2 20,2 L14,2 Z" id="Line-157-Copy-2"></path>
                    <path d="M15,2 L17,2 L17,10 C17,11.1045695 16.1045695,12 15,12 L5,12 C3.8954305,12 3,11.1045695 3,10 L3,2 L5,2 L5,10 L15,10 L15,2 Z" id="Rectangle-17"></path>
                </g>
                <g id="Group-7-Copy" transform="translate(10.000000, 3.500000) rotate(-180.000000) translate(-10.000000, -3.500000) translate(8.000000, 1.000000)">
                    <path d="M1.96190645,1.4143671 L0.717601238,2.69645421 C0.3329602,3.09277443 -0.300133988,3.10224228 -0.696454208,2.71760124 C-1.09277443,2.3329602 -1.10224228,1.69986601 -0.717601238,1.30354579 L1.92021734,-1.4143671 L4.69676573,1.28270124 C5.0929189,1.66751433 5.10211185,2.30061257 4.71729876,2.69676573 C4.33248567,3.0929189 3.69938743,3.10211185 3.30323427,2.71729876 L1.96190645,1.4143671 Z" id="Line-Copy"></path>
                    <path d="M1,0.338989258 C1,-0.213295492 1.44771525,-0.661010742 2,-0.661010742 C2.55228475,-0.661010742 3,-0.213295492 3,0.338989258 L3,5 C3,5.55228475 2.55228475,6 2,6 C1.44771525,6 1,5.55228475 1,5 L1,0.338989258 Z" id="Line-3"></path>
                </g>
            </g>
        </g>
    </g>
</svg>