<?xml version="1.0" encoding="utf-8"?>
<!-- Generator: Adobe Illustrator 22.1.0, SVG Export Plug-In . SVG Version: 6.00 Build 0)  -->
<svg version="1.1" id="Isolation_Mode" xmlns="http://www.w3.org/2000/svg" xmlns:xlink="http://www.w3.org/1999/xlink" x="0px"
	 y="0px" viewBox="0 0 24 24" style="enable-background:new 0 0 24 24;" xml:space="preserve">
<g>
	<path d="M23.1,14.1l-3.8-4.8c0.3-0.3,0.5-0.7,0.5-1.1V8c0-0.4-0.2-0.8-0.4-1.1c0.4-0.5,0.5-1.3,0.5-1.9c0.2-1.3-1.1-1.8-1.7-2
		c0,0-0.1,0-0.1,0h-6c0,0-0.1,0-0.1,0c-0.7,0.1-1.9,0.7-1.7,2c0.1,1,0.3,2.4,1.4,2.4H12h6.1c0.3,0,0.6,0.3,0.6,0.6v0.2
		c0,0.2-0.1,0.3-0.2,0.4c0,0,0,0,0,0h-5c-0.3,0-0.5,0.2-0.5,0.5c0,0,0,0,0,0.1c0,0,0,0,0,0.1c0,0.3,0.2,0.5,0.5,0.5h4.7
		c0.1,0,0.1,0,0.2,0l4,5c0,0,1,1.3,0.5,2.6l-0.3,0.8c-0.3,0.8-0.3,0.9-0.7,1.2c-0.3,0.4-1.7,0.5-2.5,0.5h-0.5h-7.7h-0.5
		c-0.8,0-2.2-0.2-2.5-0.5c-0.1-0.1-0.2-0.2-0.3-0.3c-0.1-0.1-0.1-0.1-0.3-0.4c-0.1-0.3-0.4-0.4-0.7-0.3c-0.3,0.1-0.4,0.4-0.3,0.7
		c0.2,0.5,0.3,0.7,0.5,0.9c0.1,0.1,0.1,0.1,0.2,0.2c0.8,0.9,2.9,0.9,3.3,0.9h0.5h7.7h0.5c0.4,0,2.5,0,3.3-0.9
		c0.5-0.5,0.6-0.7,0.9-1.6l0.3-0.8C24.5,15.9,23.2,14.2,23.1,14.1z M12.2,4.1H18c0.2,0,0.9,0.3,0.8,0.8c-0.1,1.2-0.3,1.4-0.4,1.5
		l-0.3,0c0,0,0,0,0,0H12c0,0,0,0,0,0l-0.3,0c-0.1,0-0.2-0.3-0.4-1.5C11.2,4.4,12,4.1,12.2,4.1z"/>
	<path d="M13.9,10.4c-0.3,0-0.5,0.2-0.5,0.5v0.7c-0.1,0-0.1,0.1-0.2,0.1c-0.5,0.6-0.8,1.3-0.6,2c0.1,0.3,0.3,0.8,0.8,1.1v2.2
		C13.2,17,13,17,12.8,16.9c-0.3-0.1-0.6,0-0.7,0.3c-0.1,0.3,0,0.6,0.3,0.7c0.3,0.1,0.7,0.2,1,0.3v0.6c0,0.3,0.2,0.5,0.5,0.5
		c0.3,0,0.5-0.2,0.5-0.5v-0.4c0.1,0,0.2,0,0.3,0c0.1,0,0.2,0,0.2,0v0.4c0,0.3,0.2,0.5,0.5,0.5s0.5-0.2,0.5-0.5v-0.7c0,0,0,0,0,0
		c0.5-0.3,0.8-0.8,0.9-1.4c0.1-0.9-0.3-1.4-0.9-1.7v-2.2c0.1,0,0.3,0.1,0.4,0.1c0.3,0.1,0.6,0,0.7-0.3c0.1-0.3,0-0.6-0.3-0.7
		c-0.1-0.1-0.4-0.2-0.8-0.3v-0.6c0-0.3-0.2-0.5-0.5-0.5S15,10.6,15,10.9v0.4c-0.2,0-0.3,0-0.5,0v-0.4C14.4,10.6,14.2,10.4,13.9,10.4
		z M14.4,17.3v-2c0,0,0,0,0,0c0.2,0.1,0.3,0.1,0.5,0.2v1.8C14.8,17.3,14.6,17.3,14.4,17.3z M15,12.4v2c0,0-0.1,0-0.1,0
		c-0.1,0-0.3-0.1-0.4-0.1v-1.8C14.6,12.4,14.8,12.4,15,12.4z"/>
	<path d="M0.5,10.7h9.9l-1.8,2.1c-0.2,0.2-0.2,0.6,0,0.7c0.1,0.1,0.2,0.1,0.4,0.1c0.1,0,0.3-0.1,0.4-0.2l2.6-2.9c0,0,0,0,0-0.1
		l0.1-0.1c0,0,0,0,0-0.1c0,0,0-0.1,0.1-0.1c0,0,0-0.1,0-0.1c0,0,0-0.1,0-0.1c0,0,0-0.1,0-0.1c0,0,0-0.1,0-0.1c0,0,0-0.1-0.1-0.1
		c0,0,0,0,0-0.1l-2.8-3c-0.2-0.2-0.5-0.2-0.7,0c-0.2,0.2-0.2,0.5,0,0.7l2,2.2H0.5C0.2,9.7,0,9.9,0,10.2C0,10.5,0.2,10.7,0.5,10.7z"
		/>
	<path d="M8.4,15.1C8.5,15.1,8.5,15.1,8.4,15.1L8.5,15c0,0,0,0,0-0.1c0,0,0-0.1,0.1-0.1c0,0,0-0.1,0-0.1c0,0,0-0.1,0-0.1
		c0,0,0-0.1,0-0.1c0,0,0-0.1,0-0.1c0,0,0-0.1-0.1-0.1c0,0,0,0,0-0.1l-2.8-3c-0.2-0.2-0.5-0.2-0.7,0c-0.2,0.2-0.2,0.5,0,0.7l2,2.2
		H0.5c-0.3,0-0.5,0.2-0.5,0.5s0.2,0.5,0.5,0.5h6.4l-1.8,2.1c-0.2,0.2-0.2,0.6,0,0.7c0.1,0.1,0.2,0.1,0.4,0.1c0.1,0,0.3-0.1,0.4-0.2
		L8.4,15.1z"/>
</g>
</svg>
