<?xml version="1.0" encoding="utf-8"?>
<!-- Generator: Adobe Illustrator 22.1.0, SVG Export Plug-In . SVG Version: 6.00 Build 0)  -->
<svg version="1.1" id="Layer_1" xmlns="http://www.w3.org/2000/svg" xmlns:xlink="http://www.w3.org/1999/xlink" x="0px" y="0px"
	 viewBox="0 0 24 24" style="enable-background:new 0 0 24 24;" xml:space="preserve">
<style type="text/css">
	.st0{fill:#3977FD;}
	.st1{fill:#50E3C2;}
</style>
<g>
	<path class="st0" d="M16.3,16.4c-0.2-0.2-0.5-0.3-0.7-0.1c-0.2,0.2-0.3,0.5-0.1,0.7l0.5,0.7c0,0,1,1.3,0.5,2.5l-0.3,0.8
		c-0.3,0.8-0.3,0.8-0.6,1.2c-0.3,0.4-1.7,0.5-2.5,0.5h-0.5H5H4.6c-0.8,0-2.1-0.2-2.5-0.5c-0.3-0.4-0.4-0.4-0.6-1.2l-0.3-0.8
		c-0.5-1.3,0.5-2.5,0.5-2.5l3.9-4.9c0.1,0,0.1,0,0.2,0h2.3c0.3,0,0.5-0.2,0.5-0.5c0,0,0,0,0-0.1c0,0,0,0,0-0.1
		c0-0.3-0.2-0.5-0.5-0.5H5.5c-0.1-0.1-0.2-0.3-0.2-0.4v-0.2c0-0.3,0.3-0.6,0.6-0.6h1.7c0.3,0,0.5-0.2,0.5-0.5c0-0.3-0.2-0.5-0.5-0.5
		l-1.7,0c0,0,0,0,0,0c0,0,0,0,0,0l-0.3,0C5.4,9.4,5.3,9.2,5.1,8C5.1,7.5,5.8,7.3,6,7.2h1.5C7.8,7.2,8,7,8,6.7c0-0.3-0.2-0.5-0.5-0.5
		H5.9c0,0-0.1,0-0.1,0c-0.7,0.1-1.9,0.7-1.7,2C4.2,8.7,4.3,9.5,4.6,10c-0.2,0.3-0.4,0.6-0.4,1v0.2c0,0.4,0.2,0.8,0.4,1.1l-3.8,4.7
		c-0.1,0.1-1.4,1.7-0.7,3.6l0.3,0.8c0.3,0.8,0.4,1,0.9,1.6c0.8,0.8,2.8,0.9,3.3,0.9H5h7.6h0.5c0.4,0,2.5,0,3.3-0.9
		c0.5-0.5,0.6-0.7,0.9-1.6l0.3-0.8c0.7-1.8-0.6-3.5-0.7-3.6L16.3,16.4z"/>
	<path class="st0" d="M9.3,13.5c-0.3,0-0.5,0.2-0.5,0.5v0.4c-0.2,0-0.3,0-0.5,0V14c0-0.3-0.2-0.5-0.5-0.5c-0.3,0-0.5,0.2-0.5,0.5
		v0.7c-0.1,0-0.1,0.1-0.2,0.1c-0.5,0.6-0.8,1.3-0.6,2c0.1,0.3,0.3,0.8,0.8,1.1v2.2C7,20,6.8,20,6.6,19.9c-0.3-0.1-0.6,0-0.7,0.3
		c-0.1,0.3,0,0.6,0.3,0.7c0.3,0.1,0.7,0.2,1,0.3v0.6c0,0.3,0.2,0.5,0.5,0.5c0.3,0,0.5-0.2,0.5-0.5v-0.4c0.1,0,0.2,0,0.3,0
		c0.1,0,0.2,0,0.2,0v0.4c0,0.3,0.2,0.5,0.5,0.5c0.3,0,0.5-0.2,0.5-0.5V21c0,0,0,0,0,0c0.5-0.3,0.8-0.8,0.8-1.4
		c0.1-0.9-0.3-1.4-0.9-1.7v-2.2c0.1,0,0.3,0.1,0.4,0.1c0.3,0.1,0.6,0,0.7-0.3c0.1-0.3,0-0.6-0.3-0.7c-0.1-0.1-0.4-0.2-0.8-0.3V14
		C9.8,13.7,9.5,13.5,9.3,13.5z M8.2,20.3v-2c0,0,0,0,0,0c0.2,0.1,0.3,0.1,0.5,0.2v1.8C8.6,20.3,8.4,20.3,8.2,20.3z M8.7,17.4
		c0,0-0.1,0-0.1,0c-0.1,0-0.2-0.1-0.4-0.1v-1.8c0.1,0,0.3,0,0.5,0V17.4z"/>
	<path class="st1" d="M16.2,0.1c-4.3,0-7.8,3.5-7.8,7.8s3.5,7.8,7.8,7.8S24,12.3,24,7.9S20.5,0.1,16.2,0.1z M16.2,14.7
		c-3.7,0-6.8-3-6.8-6.8s3-6.8,6.8-6.8s6.8,3,6.8,6.8S19.9,14.7,16.2,14.7z"/>
	<path class="st1" d="M19.9,5.7l-4.9,4.9c-1.3-1.3-2-2-2.4-2.3c0,0,0,0,0,0l0,0C12.1,7.9,12,8,11.8,8.2c-0.2,0.2-0.2,0.5,0,0.8
		c0,0.1,0.1,0.1,0.2,0.1c0.4,0.3,1.6,1.6,2.7,2.7c0.1,0.1,0.2,0.2,0.4,0.2c0.1,0,0.3-0.1,0.4-0.2l5.3-5.3c0.2-0.2,0.2-0.5,0-0.7
		S20.1,5.5,19.9,5.7z"/>
</g>
</svg>
