<?xml version="1.0" encoding="utf-8"?>
<!-- Generator: Adobe Illustrator 22.1.0, SVG Export Plug-In . SVG Version: 6.00 Build 0)  -->
<svg version="1.1" id="Isolation_Mode" xmlns="http://www.w3.org/2000/svg" xmlns:xlink="http://www.w3.org/1999/xlink" x="0px"
	 y="0px" viewBox="0 0 24 24" style="enable-background:new 0 0 24 24;" xml:space="preserve">
<g>
	<g>
		<path d="M21.5,20H2.5C1.1,20,0,18.8,0,17.4V6.6C0,5.2,1.1,4,2.5,4h18.9C22.9,4,24,5.2,24,6.6v10.9C24,18.8,22.9,20,21.5,20z
			 M2.5,5C1.7,5,1,5.7,1,6.6v10.9C1,18.3,1.7,19,2.5,19h18.9c0.8,0,1.5-0.7,1.5-1.5V6.6C23,5.7,22.3,5,21.5,5H2.5z"/>
	</g>
	<g>
		<path d="M8.9,13.1H3.4c-0.3,0-0.5-0.2-0.5-0.5V7.1c0-0.3,0.2-0.5,0.5-0.5h5.5c0.3,0,0.5,0.2,0.5,0.5v5.5
			C9.4,12.9,9.2,13.1,8.9,13.1z M3.9,12.1h4.5V7.6H3.9V12.1z"/>
	</g>
	<g>
		<path d="M18.1,12.3c-1.6,0-2.9-1.3-2.9-2.9c0-1.6,1.3-2.9,2.9-2.9c1.6,0,2.9,1.3,2.9,2.9C20.9,11,19.7,12.3,18.1,12.3z M18.1,7.6
			c-1,0-1.8,0.8-1.8,1.8s0.8,1.8,1.8,1.8s1.8-0.8,1.8-1.8S19.1,7.6,18.1,7.6z"/>
	</g>
	<g>
		<path d="M20.4,17.5h-17c-0.3,0-0.5-0.2-0.5-0.5s0.2-0.5,0.5-0.5h17c0.3,0,0.5,0.2,0.5,0.5S20.7,17.5,20.4,17.5z"/>
	</g>
	<g>
		<path d="M12.6,15.1H3.4c-0.3,0-0.5-0.2-0.5-0.5s0.2-0.5,0.5-0.5h9.2c0.3,0,0.5,0.2,0.5,0.5S12.8,15.1,12.6,15.1z"/>
	</g>
</g>
</svg>
