<?xml version="1.0" encoding="utf-8"?>
<!-- Generator: Adobe Illustrator 22.1.0, SVG Export Plug-In . SVG Version: 6.00 Build 0)  -->
<svg version="1.1" id="Layer_3" xmlns="http://www.w3.org/2000/svg" xmlns:xlink="http://www.w3.org/1999/xlink" x="0px" y="0px"
	 viewBox="0 0 24 24" style="enable-background:new 0 0 24 24;" xml:space="preserve">
<path d="M18.4,1.9L22.5,1l-0.2-1L16,1.3l1.8,6.2l1-0.3l-1.3-4.5c3.3,2,5.4,5.5,5.4,9.4c0,6-4.9,10.9-10.9,10.9S1.1,18,1.1,12
	S6,1.1,12,1.1c0.3,0,0.5-0.2,0.5-0.5S12.3,0.1,12,0.1C5.4,0.1,0,5.4,0,12s5.4,12,12,12s12-5.4,12-12C24,7.9,21.8,4.1,18.4,1.9z"/>
</svg>
