<?xml version="1.0" encoding="utf-8"?>
<!-- Generator: Adobe Illustrator 22.1.0, SVG Export Plug-In . SVG Version: 6.00 Build 0)  -->
<svg version="1.1" id="Layer_1" xmlns="http://www.w3.org/2000/svg" xmlns:xlink="http://www.w3.org/1999/xlink" x="0px" y="0px"
	 viewBox="0 0 24 24" style="enable-background:new 0 0 24 24;" xml:space="preserve">
<style type="text/css">
	.st0{fill:#3BDFFF;}
</style>
<path class="st0" d="M18,2.6l3.9-0.8l-0.2-1L15.8,2l1.7,5.8l1-0.3l-1.2-4.2c3.1,1.8,5,5.1,5,8.8c0,5.6-4.6,10.2-10.2,10.2
	S1.8,17.7,1.8,12S6.4,1.8,12,1.8c0.3,0,0.5-0.2,0.5-0.5S12.3,0.8,12,0.8C5.8,0.8,0.8,5.8,0.8,12s5,11.2,11.2,11.2s11.2-5,11.2-11.2
	C23.2,8.1,21.2,4.6,18,2.6z"/>
</svg>
