<?xml version="1.0" encoding="utf-8"?>
<!-- Generator: Adobe Illustrator 23.0.1, SVG Export Plug-In . SVG Version: 6.00 Build 0)  -->
<svg version="1.1" id="Layer_1" xmlns="http://www.w3.org/2000/svg" xmlns:xlink="http://www.w3.org/1999/xlink" x="0px" y="0px"
	 viewBox="0 0 24 24" style="enable-background:new 0 0 24 24;" xml:space="preserve">
<style type="text/css">
	.st0{fill:#50E3C2;}
	.st1{fill:#3BDFFF;}
</style>
<g>
	<path class="st0" d="M1,11.8V8.4c0-0.8,0.7-1.5,1.5-1.5h14.3l-1.2,2.8l7.9-3.3l-7.9-3.3l1.2,2.8H2.5C1.1,5.9,0,7.1,0,8.4v3.4
		c0,0.3,0.2,0.5,0.5,0.5S1,12.1,1,11.8z"/>
	<path class="st1" d="M23.5,11.7c-0.3,0-0.5,0.2-0.5,0.5v3.4c0,0.8-0.7,1.5-1.5,1.5H7.2l1.2-2.8l-7.9,3.3l7.9,3.3l-1.2-2.8h14.3
		c1.4,0,2.5-1.1,2.5-2.5v-3.4C24,11.9,23.8,11.7,23.5,11.7z"/>
</g>
</svg>
