<?xml version="1.0" encoding="utf-8"?>
<!-- Generator: Adobe Illustrator 23.0.1, SVG Export Plug-In . SVG Version: 6.00 Build 0)  -->
<svg version="1.1" id="Layer_1" xmlns="http://www.w3.org/2000/svg" xmlns:xlink="http://www.w3.org/1999/xlink" x="0px" y="0px"
	 viewBox="0 0 24 24" style="enable-background:new 0 0 24 24;" xml:space="preserve">
<style type="text/css">
	.st0{fill:url(#SVGID_1_);}
	.st1{fill:url(#SVGID_2_);}
	.st2{fill:url(#SVGID_3_);}
	.st3{fill:url(#SVGID_4_);}
	.st4{fill:url(#SVGID_5_);}
	.st5{fill:url(#SVGID_6_);}
	.st6{fill:url(#SVGID_7_);}
	.st7{fill:url(#SVGID_8_);}
	.st8{fill:url(#SVGID_9_);}
	.st9{fill:url(#SVGID_10_);}
	.st10{fill:url(#SVGID_11_);}
</style>
<g>
	<linearGradient id="SVGID_1_" gradientUnits="userSpaceOnUse" x1="1.0878" y1="12.1685" x2="27.3035" y2="11.7121">
		<stop  offset="0.2" style="stop-color:#00A9CD"/>
		<stop  offset="0.8" style="stop-color:#194AAD"/>
	</linearGradient>
	<path class="st0" d="M19.8,21c-0.3,0-0.5,0.2-0.5,0.5c0,0.8-0.7,1.5-1.5,1.5H3.7c-0.8,0-1.5-0.7-1.5-1.5v-19C2.2,1.7,2.9,1,3.7,1
		h14.1c0.8,0,1.5,0.7,1.5,1.5c0,0.3,0.2,0.5,0.5,0.5s0.5-0.2,0.5-0.5c0-1.4-1.1-2.5-2.5-2.5H3.7C2.3,0,1.2,1.1,1.2,2.5v19
		c0,1.4,1.1,2.5,2.5,2.5h14.1c1.4,0,2.5-1.1,2.5-2.5C20.3,21.2,20.1,21,19.8,21z"/>
	<linearGradient id="SVGID_2_" gradientUnits="userSpaceOnUse" x1="0.9698" y1="5.3937" x2="27.1856" y2="4.9373">
		<stop  offset="0.2" style="stop-color:#00A9CD"/>
		<stop  offset="0.8" style="stop-color:#194AAD"/>
	</linearGradient>
	<path class="st1" d="M16.5,5.1c0,0.3,0.2,0.5,0.5,0.5h5.3c0.3,0,0.5-0.2,0.5-0.5c0-0.3-0.2-0.5-0.5-0.5H17
		C16.7,4.6,16.5,4.8,16.5,5.1z"/>
	<linearGradient id="SVGID_3_" gradientUnits="userSpaceOnUse" x1="1.0502" y1="10.013" x2="27.266" y2="9.5567">
		<stop  offset="0.2" style="stop-color:#00A9CD"/>
		<stop  offset="0.8" style="stop-color:#194AAD"/>
	</linearGradient>
	<path class="st2" d="M22.3,9.2H17c-0.3,0-0.5,0.2-0.5,0.5c0,0.3,0.2,0.5,0.5,0.5h5.3c0.3,0,0.5-0.2,0.5-0.5
		C22.8,9.4,22.6,9.2,22.3,9.2z"/>
	<linearGradient id="SVGID_4_" gradientUnits="userSpaceOnUse" x1="1.1306" y1="14.6324" x2="27.3464" y2="14.1761">
		<stop  offset="0.2" style="stop-color:#00A9CD"/>
		<stop  offset="0.8" style="stop-color:#194AAD"/>
	</linearGradient>
	<path class="st3" d="M22.3,13.8H17c-0.3,0-0.5,0.2-0.5,0.5s0.2,0.5,0.5,0.5h5.3c0.3,0,0.5-0.2,0.5-0.5S22.6,13.8,22.3,13.8z"/>
	<linearGradient id="SVGID_5_" gradientUnits="userSpaceOnUse" x1="1.2111" y1="19.2523" x2="27.4268" y2="18.7959">
		<stop  offset="0.2" style="stop-color:#00A9CD"/>
		<stop  offset="0.8" style="stop-color:#194AAD"/>
	</linearGradient>
	<path class="st4" d="M22.3,18.4H17c-0.3,0-0.5,0.2-0.5,0.5c0,0.3,0.2,0.5,0.5,0.5h5.3c0.3,0,0.5-0.2,0.5-0.5
		C22.8,18.7,22.6,18.4,22.3,18.4z"/>
	<linearGradient id="SVGID_6_" gradientUnits="userSpaceOnUse" x1="1.0099" y1="7.6984" x2="27.2257" y2="7.242">
		<stop  offset="0.2" style="stop-color:#00A9CD"/>
		<stop  offset="0.8" style="stop-color:#194AAD"/>
	</linearGradient>
	<path class="st5" d="M19.3,6.5v1.7c0,0.3,0.2,0.5,0.5,0.5s0.5-0.2,0.5-0.5V6.5c0-0.3-0.2-0.5-0.5-0.5S19.3,6.2,19.3,6.5z"/>
	<linearGradient id="SVGID_7_" gradientUnits="userSpaceOnUse" x1="1.0905" y1="12.3256" x2="27.3063" y2="11.8693">
		<stop  offset="0.2" style="stop-color:#00A9CD"/>
		<stop  offset="0.8" style="stop-color:#194AAD"/>
	</linearGradient>
	<path class="st6" d="M20.3,12.9v-1.7c0-0.3-0.2-0.5-0.5-0.5s-0.5,0.2-0.5,0.5v1.7c0,0.3,0.2,0.5,0.5,0.5S20.3,13.1,20.3,12.9z"/>
	<linearGradient id="SVGID_8_" gradientUnits="userSpaceOnUse" x1="1.1682" y1="16.787" x2="27.3839" y2="16.3306">
		<stop  offset="0.2" style="stop-color:#00A9CD"/>
		<stop  offset="0.8" style="stop-color:#194AAD"/>
	</linearGradient>
	<path class="st7" d="M20.3,17.3v-1.7c0-0.3-0.2-0.5-0.5-0.5s-0.5,0.2-0.5,0.5v1.7c0,0.3,0.2,0.5,0.5,0.5S20.3,17.6,20.3,17.3z"/>
	<linearGradient id="SVGID_9_" gradientUnits="userSpaceOnUse" x1="1.0083" y1="7.6037" x2="27.2241" y2="7.1474">
		<stop  offset="0.2" style="stop-color:#00A9CD"/>
		<stop  offset="0.8" style="stop-color:#194AAD"/>
	</linearGradient>
	<path class="st8" d="M15.1,6.8c0-1.4-1.1-2.5-2.5-2.5H6.1c-1.4,0-2.5,1.1-2.5,2.5v1.3c0,1.4,1.1,2.5,2.5,2.5h6.5
		c1.4,0,2.5-1.1,2.5-2.5V6.8z M14.1,8.1c0,0.8-0.7,1.5-1.5,1.5H6.1c-0.8,0-1.5-0.7-1.5-1.5V6.8c0-0.8,0.7-1.5,1.5-1.5h6.5
		c0.8,0,1.5,0.7,1.5,1.5V8.1z"/>
	<linearGradient id="SVGID_10_" gradientUnits="userSpaceOnUse" x1="1.1239" y1="14.2462" x2="27.3397" y2="13.7898">
		<stop  offset="0.2" style="stop-color:#00A9CD"/>
		<stop  offset="0.8" style="stop-color:#194AAD"/>
	</linearGradient>
	<path class="st9" d="M15.1,14.1c0-0.3-0.2-0.5-0.5-0.5H4.3c-0.3,0-0.5,0.2-0.5,0.5c0,0.3,0.2,0.5,0.5,0.5h10.3
		C14.9,14.6,15.1,14.4,15.1,14.1z"/>
	<linearGradient id="SVGID_11_" gradientUnits="userSpaceOnUse" x1="1.1796" y1="17.4445" x2="27.3954" y2="16.9881">
		<stop  offset="0.2" style="stop-color:#00A9CD"/>
		<stop  offset="0.8" style="stop-color:#194AAD"/>
	</linearGradient>
	<path class="st10" d="M4.3,16.8c-0.3,0-0.5,0.2-0.5,0.5c0,0.3,0.2,0.5,0.5,0.5h8.4c0.3,0,0.5-0.2,0.5-0.5c0-0.3-0.2-0.5-0.5-0.5
		H4.3z"/>
</g>
</svg>
