<?xml version="1.0" encoding="utf-8"?>
<!-- Generator: Adobe Illustrator 22.1.0, SVG Export Plug-In . SVG Version: 6.00 Build 0)  -->
<svg version="1.1" id="Layer_1" xmlns="http://www.w3.org/2000/svg" xmlns:xlink="http://www.w3.org/1999/xlink" x="0px" y="0px"
	 viewBox="0 0 24 24" style="enable-background:new 0 0 24 24;" xml:space="preserve">
<style type="text/css">
	.st0{fill:url(#SVGID_1_);}
	.st1{fill:url(#SVGID_2_);}
	.st2{fill:url(#SVGID_3_);}
</style>
<g>
	<g>
		<linearGradient id="SVGID_1_" gradientUnits="userSpaceOnUse" x1="0.2575" y1="11.9998" x2="22.9382" y2="11.9998">
			<stop  offset="0.2" style="stop-color:#00A9CD"/>
			<stop  offset="0.8" style="stop-color:#194AAD"/>
		</linearGradient>
		<path class="st0" d="M6.2,18.2c-0.1,0-0.3,0-0.4-0.1l-5.7-5.7c-0.2-0.2-0.2-0.5,0-0.7l5.7-5.7c0.2-0.2,0.5-0.2,0.7,0
			c0.2,0.2,0.2,0.5,0,0.7L1.2,12l5.4,5.4c0.2,0.2,0.2,0.5,0,0.7C6.5,18.2,6.4,18.2,6.2,18.2z"/>
	</g>
	<g>
		<linearGradient id="SVGID_2_" gradientUnits="userSpaceOnUse" x1="0.2575" y1="11.9998" x2="22.9382" y2="11.9998">
			<stop  offset="0.2" style="stop-color:#00A9CD"/>
			<stop  offset="0.8" style="stop-color:#194AAD"/>
		</linearGradient>
		<path class="st1" d="M17.8,18.2c-0.1,0-0.3,0-0.4-0.1c-0.2-0.2-0.2-0.5,0-0.7l5.4-5.4l-5.4-5.4c-0.2-0.2-0.2-0.5,0-0.7
			c0.2-0.2,0.5-0.2,0.7,0l5.7,5.7c0.2,0.2,0.2,0.5,0,0.7l-5.7,5.7C18,18.2,17.9,18.2,17.8,18.2z"/>
	</g>
	<g>
		<linearGradient id="SVGID_3_" gradientUnits="userSpaceOnUse" x1="0.2575" y1="12" x2="22.9382" y2="12">
			<stop  offset="0.2" style="stop-color:#00A9CD"/>
			<stop  offset="0.8" style="stop-color:#194AAD"/>
		</linearGradient>
		<path class="st2" d="M7.8,20.1c-0.1,0-0.2,0-0.2-0.1c-0.2-0.1-0.3-0.4-0.2-0.7l8.3-15.1C15.9,4,16.2,3.9,16.4,4
			c0.2,0.1,0.3,0.4,0.2,0.7L8.3,19.8C8.2,20,8,20.1,7.8,20.1z"/>
	</g>
</g>
</svg>
