<?xml version="1.0" encoding="utf-8"?>
<!-- Generator: Adobe Illustrator 23.0.1, SVG Export Plug-In . SVG Version: 6.00 Build 0)  -->
<svg version="1.1" id="Layer_1" xmlns="http://www.w3.org/2000/svg" xmlns:xlink="http://www.w3.org/1999/xlink" x="0px" y="0px"
	 viewBox="0 0 16 16" style="enable-background:new 0 0 16 16;" xml:space="preserve">
<style type="text/css">
	.st0{fill:#fff;}
</style>
<g>
	<g>
		<path class="st0" d="M8,16c-4.4,0-8-3.6-8-8c0-2.8,1.4-5.4,3.9-6.8C4.1,1,4.4,1.1,4.5,1.3C4.7,1.6,4.6,1.9,4.4,2
			C2.3,3.3,1,5.5,1,8c0,3.9,3.1,7,7,7s7-3.1,7-7c0-2.5-1.3-4.7-3.4-6c-0.2-0.1-0.3-0.5-0.2-0.7c0.1-0.2,0.4-0.3,0.7-0.2
			C14.6,2.6,16,5.2,16,8C16,12.4,12.4,16,8,16z"/>
	</g>
	<g>
		<path class="st0" d="M8,9.6c-0.3,0-0.5-0.2-0.5-0.5V0.5C7.5,0.2,7.7,0,8,0s0.5,0.2,0.5,0.5v8.6C8.5,9.4,8.3,9.6,8,9.6z"/>
	</g>
</g>
</svg>
