<?xml version="1.0" encoding="utf-8"?>
<!-- Generator: Adobe Illustrator 23.0.1, SVG Export Plug-In . SVG Version: 6.00 Build 0)  -->
<svg version="1.1" id="Layer_1" xmlns="http://www.w3.org/2000/svg" xmlns:xlink="http://www.w3.org/1999/xlink" x="0px" y="0px"
	 viewBox="0 0 16 16" style="enable-background:new 0 0 16 16;" xml:space="preserve">
<style type="text/css">
	.st0{fill:#fff;}
</style>
<path class="st0" d="M8.4,4.7c0.2,0,0.4,0,0.6-0.1c0.6-0.2,1.2-0.5,1.8-1c0.6-0.5,1.1-1,1.4-1.5c0.5-0.9,0.2-1.4,0-1.6
	c-0.2-0.2-0.6-0.6-1.6-0.3c-0.6,0.2-1.2,0.5-1.8,1c-0.6,0.5-1.1,1-1.4,1.5c0,0.1-0.1,0.2-0.1,0.2C7.3,2.8,7.2,2.7,7.2,2.6
	C6.2,1.4,4.8,0.5,4,1.2C3.1,1.9,3.7,3.4,4.6,4.6c0.7,0.9,1.7,1.6,2.5,1.6c0,0,0,0,0.1,0v2.9H4.3C4.1,9.2,4,9.2,3.9,9.4
	C3.8,9.5,3.8,9.6,3.8,9.8l1,5.8C4.8,15.8,5,16,5.3,16h4.8c0.2,0,0.5-0.2,0.5-0.4l0.7-4.2c0-0.1,0-0.1,0-0.2c0,0,0,0,0,0l0.2-1.4
	c0-0.1,0-0.3-0.1-0.4c-0.1-0.1-0.2-0.2-0.4-0.2H8.2V5.4c0-0.2,0-0.5,0-0.7V4.6C8.2,4.6,8.3,4.7,8.4,4.7z M9.6,15h-4l-0.6-3.3h5.1
	L9.6,15z M10.4,10.7H5l-0.1-0.5h5.6L10.4,10.7z M8.3,3.1c0.2-0.4,0.6-0.9,1.1-1.2c0.5-0.4,1-0.7,1.5-0.8C11,1,11.2,1,11.2,1
	c0.1,0,0.2,0,0.2,0c0,0,0,0.2-0.1,0.5c-0.2,0.4-0.6,0.9-1.1,1.2c-0.5,0.4-1,0.7-1.5,0.8c-0.4,0.1-0.6,0-0.6,0
	C8.2,3.6,8.1,3.4,8.3,3.1z M5.4,4C4.6,2.9,4.5,2.1,4.6,2c0.1-0.1,0.9,0.2,1.8,1.2c0.5,0.6,0.7,1.2,0.8,1.5v0.5C7,5.3,6.2,5,5.4,4z"
	/>
</svg>
