<?xml version="1.0" encoding="utf-8"?>
<!-- Generator: Adobe Illustrator 22.1.0, SVG Export Plug-In . SVG Version: 6.00 Build 0)  -->
<svg version="1.1" id="Layer_2" xmlns="http://www.w3.org/2000/svg" xmlns:xlink="http://www.w3.org/1999/xlink" x="0px" y="0px"
	 viewBox="0 0 16 16" style="enable-background:new 0 0 16 16;" xml:space="preserve">
<style type="text/css">
	.st0{fill:#fff;}
</style>
<g>
	<path class="st0" d="M0,7.9c0,0.3,0.2,0.5,0.5,0.5h8.7l-3.1,2.9L6.8,12l4.4-4.1L6.8,3.8L6.1,4.5l3.1,2.9H0.5C0.2,7.4,0,7.6,0,7.9z"
		/>
	<path class="st0" d="M15.5,0h-15C0.2,0,0,0.2,0,0.5v4.4c0,0.3,0.2,0.5,0.5,0.5S1,5.2,1,4.9V1h14v14H1v-4.2c0-0.3-0.2-0.5-0.5-0.5
		S0,10.5,0,10.8v4.7C0,15.8,0.2,16,0.5,16h15c0.3,0,0.5-0.2,0.5-0.5v-15C16,0.2,15.8,0,15.5,0z"/>
</g>
</svg>
