<?xml version="1.0" encoding="utf-8"?>
<!-- Generator: Adobe Illustrator 22.1.0, SVG Export Plug-In . SVG Version: 6.00 Build 0)  -->
<svg version="1.1" id="Isolation_Mode" xmlns="http://www.w3.org/2000/svg" xmlns:xlink="http://www.w3.org/1999/xlink" x="0px"
	 y="0px" viewBox="0 0 16 16" style="enable-background:new 0 0 16 16;" xml:space="preserve">
<style type="text/css">
	.st0{fill:#2bbfdf;}
</style>
<path class="st0" d="M8,0C3.6,0,0,3.6,0,8s3.6,8,8,8c4.4,0,8-3.6,8-8S12.4,0,8,0z M1,8c0-3.9,3.1-7,7-7c1.7,0,3.3,0.6,4.6,1.7
	l-9.9,9.9C1.7,11.3,1,9.7,1,8z M8,15c-1.7,0-3.3-0.6-4.6-1.7l9.9-9.9C14.3,4.7,15,6.3,15,8C15,11.9,11.9,15,8,15z"/>
</svg>
