<?xml version="1.0" encoding="utf-8"?>
<!-- Generator: Adobe Illustrator 22.1.0, SVG Export Plug-In . SVG Version: 6.00 Build 0)  -->
<svg version="1.1" id="Isolation_Mode" xmlns="http://www.w3.org/2000/svg" xmlns:xlink="http://www.w3.org/1999/xlink" x="0px"
	 y="0px" viewBox="0 0 16 16" style="enable-background:new 0 0 16 16;" xml:space="preserve">
<style type="text/css">
	.st0{fill:#fff;}
</style>
<g>
	<path class="st0" d="M0.9,6.2C0.9,6.3,1,6.3,1,6.4c0,0,0,0,0,0c0,0,0,0,0,0c0,0,0.1,0,0.1,0c0,0,0.1,0,0.1,0c0,0,0,0,0,0
		c0,0,0,0,0,0c0,0,0,0,0,0c0,0,0,0,0,0c0,0,0,0,0,0c0,0,0,0,0,0c0,0,0,0,0.1,0c0,0,0,0,0.1,0l1.9-0.7c0.3-0.1,0.4-0.4,0.3-0.6
		C3.6,4.9,3.4,4.7,3.1,4.8L2.2,5.2c1-2.2,3.3-3.7,5.8-3.7c3.5,0,6.4,2.9,6.4,6.4c0,0.3,0.2,0.5,0.5,0.5s0.5-0.2,0.5-0.5
		c0-4.1-3.3-7.4-7.4-7.4c-2.9,0-5.5,1.7-6.7,4.3L0.9,4C0.8,3.8,0.5,3.7,0.3,3.8C0,3.9-0.1,4.2,0,4.5L0.9,6.2
		C0.9,6.2,0.9,6.2,0.9,6.2z"/>
	<path class="st0" d="M16,11.5l-0.8-1.8c0,0,0,0,0,0c0,0,0,0,0-0.1c0,0,0,0-0.1-0.1c0,0,0,0,0,0c0,0,0,0-0.1,0c0,0-0.1,0-0.1,0
		c0,0,0,0,0,0c0,0,0,0,0,0c0,0,0,0,0,0c0,0-0.1,0-0.1,0c0,0,0,0,0,0c0,0,0,0-0.1,0c0,0,0,0-0.1,0l-1.9,0.7c-0.3,0.1-0.4,0.4-0.3,0.6
		c0.1,0.2,0.3,0.3,0.5,0.3c0.1,0,0.1,0,0.2,0l0.9-0.3c-1,2.2-3.3,3.7-5.8,3.7c-3.5,0-6.4-2.9-6.4-6.4c0-0.3-0.2-0.5-0.5-0.5
		c-0.3,0-0.5,0.2-0.5,0.5c0,4.1,3.3,7.4,7.4,7.4c2.9,0,5.5-1.7,6.7-4.3l0.3,0.7c0.1,0.2,0.3,0.3,0.4,0.3c0.1,0,0.1,0,0.2,0
		C16,12.1,16.1,11.8,16,11.5z"/>
</g>
</svg>
