<?xml version="1.0" encoding="utf-8"?>
<!-- Generator: Adobe Illustrator 22.1.0, SVG Export Plug-In . SVG Version: 6.00 Build 0)  -->
<svg version="1.1" id="Layer_1" xmlns="http://www.w3.org/2000/svg" xmlns:xlink="http://www.w3.org/1999/xlink" x="0px" y="0px"
	 viewBox="0 0 160 160" style="enable-background:new 0 0 160 160;" xml:space="preserve">
<style type="text/css">
	.st0{fill:url(#SVGID_1_);}
	.st1{fill:url(#SVGID_2_);}
	.st2{fill:url(#SVGID_3_);}
	.st3{fill:url(#SVGID_4_);}
	.st4{fill:url(#SVGID_5_);}
</style>
<g>
	<g>
		<linearGradient id="SVGID_1_" gradientUnits="userSpaceOnUse" x1="56.1667" y1="74.6131" x2="103.9226" y2="74.6131">
			<stop  offset="0" style="stop-color:#2BBFDF"/>
			<stop  offset="1" style="stop-color:#1974AD"/>
		</linearGradient>
		<path class="st0" d="M91.3,89.9H71.1c-1.3,0-2.6-1-2.9-2.3l-4.5-20.8c-0.2-0.9-1.1-2.2-1.9-2.8l-5.6-3.8c-0.2-0.2-0.3-0.5-0.1-0.7
			c0.2-0.2,0.5-0.3,0.7-0.1l5.6,3.8c1,0.7,2,2.2,2.3,3.4l4.5,20.8c0.2,0.8,1.1,1.6,1.9,1.6h20.2c0.9,0,2-0.7,2.4-1.5l9.2-18.2
			c0.2-0.3,0.2-0.6,0.1-0.8c-0.1-0.2-0.4-0.3-0.7-0.3H70.4c-0.3,0-0.5-0.2-0.5-0.5c0-0.3,0.2-0.5,0.5-0.5h31.9
			c0.7,0,1.3,0.3,1.6,0.8c0.3,0.5,0.3,1.1,0,1.7l-9.2,18.2C94,89,92.5,89.9,91.3,89.9z"/>
	</g>
	<g>
		<linearGradient id="SVGID_2_" gradientUnits="userSpaceOnUse" x1="56.1667" y1="74.613" x2="103.9226" y2="74.613">
			<stop  offset="0" style="stop-color:#2BBFDF"/>
			<stop  offset="1" style="stop-color:#1974AD"/>
		</linearGradient>
		<path class="st1" d="M95.8,75.1H71.6c-0.3,0-0.5-0.2-0.5-0.5c0-0.3,0.2-0.5,0.5-0.5h24.2c0.3,0,0.5,0.2,0.5,0.5
			C96.3,74.9,96.1,75.1,95.8,75.1z"/>
	</g>
	<g>
		<linearGradient id="SVGID_3_" gradientUnits="userSpaceOnUse" x1="56.1667" y1="81.7055" x2="103.9226" y2="81.7055">
			<stop  offset="0" style="stop-color:#2BBFDF"/>
			<stop  offset="1" style="stop-color:#1974AD"/>
		</linearGradient>
		<path class="st2" d="M92.9,82.2H73c-0.3,0-0.5-0.2-0.5-0.5c0-0.3,0.2-0.5,0.5-0.5h20c0.3,0,0.5,0.2,0.5,0.5
			C93.4,82,93.2,82.2,92.9,82.2z"/>
	</g>
	<g>
		<linearGradient id="SVGID_4_" gradientUnits="userSpaceOnUse" x1="56.1667" y1="95.8468" x2="103.9226" y2="95.8468">
			<stop  offset="0" style="stop-color:#2BBFDF"/>
			<stop  offset="1" style="stop-color:#1974AD"/>
		</linearGradient>
		<path class="st3" d="M71.3,100.7c-2.7,0-4.9-2.2-4.9-4.9c0-2.7,2.2-4.9,4.9-4.9c2.7,0,4.9,2.2,4.9,4.9
			C76.1,98.5,74,100.7,71.3,100.7z M71.3,92c-2.1,0-3.9,1.7-3.9,3.9c0,2.1,1.7,3.9,3.9,3.9c2.1,0,3.9-1.7,3.9-3.9
			C75.1,93.7,73.4,92,71.3,92z"/>
	</g>
	<g>
		<linearGradient id="SVGID_5_" gradientUnits="userSpaceOnUse" x1="56.1667" y1="95.8468" x2="103.9226" y2="95.8468">
			<stop  offset="0" style="stop-color:#2BBFDF"/>
			<stop  offset="1" style="stop-color:#1974AD"/>
		</linearGradient>
		<path class="st4" d="M91.4,100.7c-2.7,0-4.9-2.2-4.9-4.9c0-2.7,2.2-4.9,4.9-4.9c2.7,0,4.9,2.2,4.9,4.9
			C96.3,98.5,94.1,100.7,91.4,100.7z M91.4,92c-2.1,0-3.9,1.7-3.9,3.9c0,2.1,1.7,3.9,3.9,3.9c2.1,0,3.9-1.7,3.9-3.9
			C95.3,93.7,93.6,92,91.4,92z"/>
	</g>
</g>
</svg>
