<?xml version="1.0" encoding="utf-8"?>
<!-- Generator: Adobe Illustrator 22.1.0, SVG Export Plug-In . SVG Version: 6.00 Build 0)  -->
<svg version="1.1" id="Layer_1" xmlns="http://www.w3.org/2000/svg" xmlns:xlink="http://www.w3.org/1999/xlink" x="0px" y="0px"
	 viewBox="0 0 16 16" style="enable-background:new 0 0 16 16;" xml:space="preserve">
<style type="text/css">
	.st0{fill:#2bbfdf;}
</style>
<g>
	<g>
		<path class="st0" d="M0.5,14.7C0.5,14.7,0.5,14.7,0.5,14.7c-0.3,0-0.5-0.3-0.5-0.5V1.8c0-0.3,0.2-0.5,0.5-0.5h7.1
			c0.2,0,0.4,0.1,0.5,0.3l0.6,1.6h6.8c0.3,0,0.5,0.2,0.5,0.5v1.8C16,5.8,15.8,6,15.5,6H3.1L1,14.3C0.9,14.6,0.7,14.7,0.5,14.7z
			 M1,2.3v7.8l1.2-4.7C2.2,5.2,2.5,5,2.7,5H15V4.2H8.3c-0.2,0-0.4-0.1-0.5-0.3L7.3,2.3H1z"/>
	</g>
	<g>
		<path class="st0" d="M13.9,14.7H2.4c-0.2,0-0.3-0.1-0.4-0.2c-0.1-0.1-0.1-0.3-0.1-0.4l1.6-6.9C3.5,7,3.8,6.8,4,6.8h11.5
			c0.2,0,0.3,0.1,0.4,0.2C16,7.1,16,7.3,16,7.4l-1.6,6.9C14.3,14.6,14.1,14.7,13.9,14.7z M3,13.7h10.5l1.4-5.9H4.4L3,13.7z"/>
	</g>
</g>
</svg>
