<?xml version="1.0" encoding="utf-8"?>
<!-- Generator: Adobe Illustrator 22.1.0, SVG Export Plug-In . SVG Version: 6.00 Build 0)  -->
<svg version="1.1" id="Layer_1" xmlns="http://www.w3.org/2000/svg" xmlns:xlink="http://www.w3.org/1999/xlink" x="0px" y="0px"
	 viewBox="0 0 24 24" style="enable-background:new 0 0 24 24;" xml:space="preserve">
<style type="text/css">
	.st0{fill:url(#SVGID_1_);}
	.st1{fill:url(#SVGID_2_);}
	.st2{fill:url(#SVGID_3_);}
	.st3{fill:url(#SVGID_4_);}
	.st4{fill:url(#SVGID_5_);}
	.st5{fill:url(#SVGID_6_);}
	.st6{fill:url(#SVGID_7_);}
	.st7{fill:url(#SVGID_8_);}
	.st8{fill:url(#SVGID_9_);}
	.st9{fill:url(#SVGID_10_);}
</style>
<g>
	<g>
		<linearGradient id="SVGID_1_" gradientUnits="userSpaceOnUse" x1="0.25" y1="14.3427" x2="23.9344" y2="14.3427">
			<stop  offset="0.2" style="stop-color:#00A9CD"/>
			<stop  offset="0.8" style="stop-color:#194AAD"/>
		</linearGradient>
		<path class="st0" d="M21.5,23.9h-9.1c-1.4,0-2.5-1.1-2.5-2.5V7.3c0-1.4,1.1-2.5,2.5-2.5h9.1c1.4,0,2.5,1.1,2.5,2.5v14.1
			C24,22.8,22.9,23.9,21.5,23.9z M12.3,5.8c-0.8,0-1.5,0.7-1.5,1.5v14.1c0,0.8,0.7,1.5,1.5,1.5h9.1c0.8,0,1.5-0.7,1.5-1.5V7.3
			c0-0.8-0.7-1.5-1.5-1.5H12.3z"/>
	</g>
	<g>
		<g>
			<linearGradient id="SVGID_2_" gradientUnits="userSpaceOnUse" x1="0.25" y1="11.1984" x2="23.9344" y2="11.1984">
				<stop  offset="0.2" style="stop-color:#00A9CD"/>
				<stop  offset="0.8" style="stop-color:#194AAD"/>
			</linearGradient>
			<path class="st1" d="M13.9,11.7h-1.6c-0.3,0-0.5-0.2-0.5-0.5c0-0.3,0.2-0.5,0.5-0.5h1.6c0.3,0,0.5,0.2,0.5,0.5
				C14.5,11.5,14.2,11.7,13.9,11.7z"/>
		</g>
		<g>
			<linearGradient id="SVGID_3_" gradientUnits="userSpaceOnUse" x1="0.25" y1="14.343" x2="23.9344" y2="14.343">
				<stop  offset="0.2" style="stop-color:#00A9CD"/>
				<stop  offset="0.8" style="stop-color:#194AAD"/>
			</linearGradient>
			<path class="st2" d="M13.9,14.8h-1.6c-0.3,0-0.5-0.2-0.5-0.5s0.2-0.5,0.5-0.5h1.6c0.3,0,0.5,0.2,0.5,0.5S14.2,14.8,13.9,14.8z"/>
		</g>
		<g>
			<linearGradient id="SVGID_4_" gradientUnits="userSpaceOnUse" x1="0.25" y1="11.1984" x2="23.9344" y2="11.1984">
				<stop  offset="0.2" style="stop-color:#00A9CD"/>
				<stop  offset="0.8" style="stop-color:#194AAD"/>
			</linearGradient>
			<path class="st3" d="M21.4,11.7h-6c-0.3,0-0.5-0.2-0.5-0.5c0-0.3,0.2-0.5,0.5-0.5h6c0.3,0,0.5,0.2,0.5,0.5
				C21.9,11.5,21.7,11.7,21.4,11.7z"/>
		</g>
		<g>
			<linearGradient id="SVGID_5_" gradientUnits="userSpaceOnUse" x1="0.25" y1="14.343" x2="23.9344" y2="14.343">
				<stop  offset="0.2" style="stop-color:#00A9CD"/>
				<stop  offset="0.8" style="stop-color:#194AAD"/>
			</linearGradient>
			<path class="st4" d="M21.4,14.8h-6c-0.3,0-0.5-0.2-0.5-0.5s0.2-0.5,0.5-0.5h6c0.3,0,0.5,0.2,0.5,0.5S21.7,14.8,21.4,14.8z"/>
		</g>
		<g>
			<linearGradient id="SVGID_6_" gradientUnits="userSpaceOnUse" x1="0.25" y1="17.453" x2="23.9344" y2="17.453">
				<stop  offset="0.2" style="stop-color:#00A9CD"/>
				<stop  offset="0.8" style="stop-color:#194AAD"/>
			</linearGradient>
			<path class="st5" d="M16.9,18h-4.5c-0.3,0-0.5-0.2-0.5-0.5c0-0.3,0.2-0.5,0.5-0.5h4.5c0.3,0,0.5,0.2,0.5,0.5
				C17.4,17.7,17.2,18,16.9,18z"/>
		</g>
	</g>
	<g>
		<linearGradient id="SVGID_7_" gradientUnits="userSpaceOnUse" x1="0.25" y1="9.3445" x2="23.9344" y2="9.3445">
			<stop  offset="0.2" style="stop-color:#00A9CD"/>
			<stop  offset="0.8" style="stop-color:#194AAD"/>
		</linearGradient>
		<path class="st6" d="M6.2,18.6H2.3c-1.3,0-2.3-1-2.3-2.3v-14c0-1.3,1-2.3,2.3-2.3h9.2c0.7,0,1.3,0.3,1.8,0.9
			c0.2,0.2,0.1,0.5-0.1,0.7c-0.2,0.2-0.5,0.1-0.7-0.1c-0.2-0.3-0.6-0.5-1-0.5H2.3C1.6,1.1,1,1.7,1,2.4v14c0,0.7,0.6,1.3,1.3,1.3h3.9
			c0.3,0,0.5,0.2,0.5,0.5S6.4,18.6,6.2,18.6z"/>
	</g>
	<g>
		<g>
			<linearGradient id="SVGID_8_" gradientUnits="userSpaceOnUse" x1="0.25" y1="6.0599" x2="23.9344" y2="6.0599">
				<stop  offset="0.2" style="stop-color:#00A9CD"/>
				<stop  offset="0.8" style="stop-color:#194AAD"/>
			</linearGradient>
			<path class="st7" d="M7.5,6.6H3.2c-0.3,0-0.5-0.2-0.5-0.5c0-0.3,0.2-0.5,0.5-0.5h4.3C7.8,5.6,8,5.8,8,6.1C8,6.3,7.8,6.6,7.5,6.6z
				"/>
		</g>
		<g>
			<linearGradient id="SVGID_9_" gradientUnits="userSpaceOnUse" x1="0.25" y1="9.3443" x2="23.9344" y2="9.3443">
				<stop  offset="0.2" style="stop-color:#00A9CD"/>
				<stop  offset="0.8" style="stop-color:#194AAD"/>
			</linearGradient>
			<path class="st8" d="M7.5,9.9H3.2c-0.3,0-0.5-0.2-0.5-0.5c0-0.3,0.2-0.5,0.5-0.5h4.3C7.8,8.8,8,9.1,8,9.3C8,9.6,7.8,9.9,7.5,9.9z
				"/>
		</g>
		<g>
			<linearGradient id="SVGID_10_" gradientUnits="userSpaceOnUse" x1="0.25" y1="12.9626" x2="23.9344" y2="12.9626">
				<stop  offset="0.2" style="stop-color:#00A9CD"/>
				<stop  offset="0.8" style="stop-color:#194AAD"/>
			</linearGradient>
			<path class="st9" d="M8.2,13.5h-5c-0.3,0-0.5-0.2-0.5-0.5s0.2-0.5,0.5-0.5h5c0.3,0,0.5,0.2,0.5,0.5S8.4,13.5,8.2,13.5z"/>
		</g>
	</g>
</g>
</svg>
