<?xml version="1.0" encoding="utf-8"?>
<!-- Generator: Adobe Illustrator 22.1.0, SVG Export Plug-In . SVG Version: 6.00 Build 0)  -->
<svg version="1.1" id="Layer_1" xmlns="http://www.w3.org/2000/svg" xmlns:xlink="http://www.w3.org/1999/xlink" x="0px" y="0px"
	 viewBox="0 0 24 24" style="enable-background:new 0 0 24 24;" xml:space="preserve">
<g>
	<path d="M18.8,9.2h-0.3C18.5,4.4,17.5,0,12,0S5.5,4.4,5.5,9.2H5.2c-1.4,0-2.5,1.1-2.5,2.5v9.8c0,1.4,1.1,2.5,2.5,2.5h13.5
		c1.4,0,2.5-1.1,2.5-2.5v-9.8C21.3,10.4,20.1,9.2,18.8,9.2z M12,1c4.4,0,5.4,3.3,5.5,8.2h-11C6.6,4.3,7.6,1,12,1z M20.3,21.5
		c0,0.8-0.7,1.5-1.5,1.5H5.2c-0.8,0-1.5-0.7-1.5-1.5v-9.8c0-0.8,0.7-1.5,1.5-1.5h13.5c0.8,0,1.5,0.7,1.5,1.5V21.5z"/>
	<path d="M12.1,12.6c-1.3,0-2.4,1.1-2.4,2.4c0,1.2,0.8,2.1,1.9,2.4v3.5c0,0.3,0.2,0.5,0.5,0.5c0.3,0,0.5-0.2,0.5-0.5v-3.5
		c1.1-0.2,1.9-1.2,1.9-2.4C14.5,13.6,13.4,12.6,12.1,12.6z M12.1,16.4c-0.8,0-1.4-0.6-1.4-1.4s0.6-1.4,1.4-1.4
		c0.8,0,1.4,0.6,1.4,1.4S12.9,16.4,12.1,16.4z"/>
</g>
</svg>
