<?xml version="1.0" encoding="utf-8"?>
<!-- Generator: Adobe Illustrator 22.1.0, SVG Export Plug-In . SVG Version: 6.00 Build 0)  -->
<svg version="1.1" id="Layer_1" xmlns="http://www.w3.org/2000/svg" xmlns:xlink="http://www.w3.org/1999/xlink" x="0px" y="0px"
	 viewBox="0 0 24 24" style="enable-background:new 0 0 24 24;" xml:space="preserve">
<style type="text/css">
	.st0{fill:#231F20;}
</style>
<g>
	<path class="st0" d="M19.6,8l-0.7,0.7l3.1,2.9H7.9c-0.3,0-0.5,0.2-0.5,0.5c0,0.3,0.2,0.5,0.5,0.5H22l-3.1,2.9l0.7,0.7l4.4-4.1
		L19.6,8z"/>
	<path class="st0" d="M12.6,22.8h-10c-0.9,0-1.6-0.7-1.6-1.6V2.8c0-0.9,0.7-1.6,1.6-1.6h10c0.3,0,0.5-0.2,0.5-0.5s-0.2-0.5-0.5-0.5
		h-10C1.2,0.2,0,1.3,0,2.8v18.4c0,1.4,1.2,2.6,2.6,2.6h10c0.3,0,0.5-0.2,0.5-0.5S12.9,22.8,12.6,22.8z"/>
</g>
</svg>
