<?xml version="1.0" encoding="utf-8"?>
<!-- Generator: Adobe Illustrator 23.0.1, SVG Export Plug-In . SVG Version: 6.00 Build 0)  -->
<svg version="1.1" id="Layer_1" xmlns="http://www.w3.org/2000/svg" xmlns:xlink="http://www.w3.org/1999/xlink" x="0px" y="0px"
	 viewBox="0 0 24 24" style="enable-background:new 0 0 24 24;" xml:space="preserve">
<g>
	<path d="M19.9,15.7L19.9,15.7c-0.9-0.5-1.1-1.5-1.1-1.5V8.7c0-3.9-2.7-5.6-5.1-6.1c0.1-0.2,0.2-0.5,0.2-0.8C13.9,0.9,13,0,12,0
		s-1.9,0.9-1.9,1.9c0,0.3,0.1,0.5,0.2,0.8C7.9,3.2,5.2,4.8,5.2,8.7l0,5.4c0,0-0.1,1-1.1,1.6c-1.7,0.9-1.9,1.8-1.9,2.3v1.1
		c0,0.9,1.2,1.5,2.2,1.5h5c0,0.2-0.1,0.4-0.1,0.6c0,1.5,1.2,2.7,2.7,2.7s2.7-1.2,2.7-2.7c0-0.2,0-0.4-0.1-0.6h5c1,0,2.2-0.7,2.2-1.5
		v-1.1C21.8,17.6,21.6,16.7,19.9,15.7z M11.1,1.9C11.1,1.4,11.5,1,12,1s0.9,0.4,0.9,0.9c0,0.2-0.1,0.4-0.3,0.6c-0.2,0-0.4,0-0.6,0
		c-0.2,0-0.4,0-0.6,0C11.2,2.3,11.1,2.1,11.1,1.9z M13.7,21.3c0,0.9-0.8,1.7-1.7,1.7s-1.7-0.8-1.7-1.7c0-0.2,0-0.4,0.1-0.6h3.2
		C13.7,20.9,13.7,21.1,13.7,21.3z M19.6,19.7H4.4c-0.6,0-1.1-0.4-1.2-0.5v-1.1c0-0.3,0.4-0.9,1.4-1.4c1.4-0.8,1.6-2.3,1.6-2.4V8.7
		c0-5.1,5.2-5.3,5.8-5.3s5.8,0.1,5.8,5.3l0,5.6c0,0.1,0.2,1.6,1.6,2.3c1,0.6,1.4,1.1,1.4,1.4l0,1.1C20.8,19.3,20.2,19.7,19.6,19.7z"
		/>
	<path d="M12,4.9c-2.7,0-5,2.2-5,5c0,0.3,0.2,0.5,0.5,0.5S8,10.1,8,9.8c0-2.2,1.8-4,4-4c0.3,0,0.5-0.2,0.5-0.5S12.3,4.9,12,4.9z"/>
</g>
</svg>
