<?xml version="1.0" encoding="utf-8"?>
<!-- Generator: Adobe Illustrator 23.0.1, SVG Export Plug-In . SVG Version: 6.00 Build 0)  -->
<svg version="1.1" id="Layer_1" xmlns="http://www.w3.org/2000/svg" xmlns:xlink="http://www.w3.org/1999/xlink" x="0px" y="0px"
	 viewBox="0 0 66 66" style="enable-background:new 0 0 66 66;" xml:space="preserve">
<style type="text/css">
	.st0{fill:#71BDDC;}
</style>
<g>
	<g>
		<g>
			<g>
				<g>
					<path class="st0" d="M33,42.8c-0.3,0-0.5-0.2-0.5-0.5V20.9c0-0.3,0.2-0.5,0.5-0.5s0.5,0.2,0.5,0.5v21.3
						C33.5,42.5,33.3,42.8,33,42.8z"/>
				</g>
			</g>
			<g>
				<path class="st0" d="M33,52.3c-1.4,0-2.5-1.1-2.5-2.5s1.1-2.5,2.5-2.5c1.4,0,2.5,1.1,2.5,2.5S34.4,52.3,33,52.3z M33,48.3
					c-0.8,0-1.5,0.7-1.5,1.5s0.7,1.5,1.5,1.5s1.5-0.7,1.5-1.5S33.8,48.3,33,48.3z"/>
			</g>
		</g>
	</g>
	<g>
		<path class="st0" d="M65.5,61.6h-65c-0.2,0-0.3-0.1-0.4-0.3S0,61,0.1,60.9L32.6,4.6c0.2-0.3,0.7-0.3,0.9,0l32.5,56.3
			c0.1,0.2,0.1,0.3,0,0.5C65.8,61.5,65.7,61.6,65.5,61.6z M1.4,60.6h63.3L33,5.8L1.4,60.6z"/>
	</g>
</g>
</svg>
