<?xml version="1.0" encoding="utf-8"?>
<!-- Generator: Adobe Illustrator 23.0.1, SVG Export Plug-In . SVG Version: 6.00 Build 0)  -->
<svg version="1.1" id="Layer_1" xmlns="http://www.w3.org/2000/svg" xmlns:xlink="http://www.w3.org/1999/xlink" x="0px" y="0px"
	 viewBox="0 0 66 66" style="enable-background:new 0 0 66 66;" xml:space="preserve">
<style type="text/css">
	.st0{fill:#50E3C2;}
</style>
<g>
	<g>
		<path class="st0" d="M49.6,21.6L27.8,43.3C16.3,31.5,16.2,31.5,15.8,31.9c-0.2,0.2-0.2,0.5,0,0.8c0.1,0.1,0.2,0.1,0.3,0.2
			c1.3,1.2,7.3,7.4,11.4,11.5c0.1,0.1,0.2,0.2,0.4,0.2c0.1,0,0.3-0.1,0.4-0.1l22.1-22.1c0.2-0.2,0.2-0.5,0-0.7S49.7,21.4,49.6,21.6z
			"/>
		<path class="st0" d="M33,0C14.8,0,0,14.8,0,33s14.8,33,33,33s33-14.8,33-33S51.2,0,33,0z M33,65C15.4,65,1,50.6,1,33
			C1,15.4,15.4,1,33,1c17.6,0,32,14.4,32,32C65,50.6,50.6,65,33,65z"/>
	</g>
</g>
</svg>
