<?xml version="1.0" encoding="utf-8"?>
<!-- Generator: Adobe Illustrator 22.1.0, SVG Export Plug-In . SVG Version: 6.00 Build 0)  -->
<svg version="1.1" id="Layer_1" xmlns="http://www.w3.org/2000/svg" xmlns:xlink="http://www.w3.org/1999/xlink" x="0px" y="0px"
	 viewBox="0 0 48 48" style="enable-background:new 0 0 48 48;" xml:space="preserve">
<g>
	<g>
		<path d="M29.8,33.8h-12c-0.3,0-0.5-0.2-0.5-0.5s0.2-0.5,0.5-0.5h12c0.9,0,1.5-0.7,1.5-1.5V14.9c0-0.9-0.7-1.5-1.5-1.5H15
			c-0.3,0-0.5-0.2-0.5-0.5s0.2-0.5,0.5-0.5h14.8c1.4,0,2.5,1.1,2.5,2.5v16.4C32.3,32.7,31.2,33.8,29.8,33.8z"/>
	</g>
	<g>
		<path d="M12.1,33.8H8.3c-1.4,0-2.5-1.1-2.5-2.5v-9.9c0-0.3,0.2-0.5,0.5-0.5s0.5,0.2,0.5,0.5v9.9c0,0.9,0.7,1.5,1.5,1.5h3.7
			c0.3,0,0.5,0.2,0.5,0.5S12.3,33.8,12.1,33.8z"/>
	</g>
	<g>
		<path d="M10.2,39.5H8.3c-1.4,0-2.5-1.1-2.5-2.5v-2.8h4.8v1H6.8v1.8c0,0.9,0.7,1.5,1.5,1.5h1.9V39.5z"/>
	</g>
	<g>
		<path d="M29.8,39.5H19.7v-1h10.1c0.9,0,1.5-0.7,1.5-1.5v-1.8H19.1v-1h13.3v2.8C32.3,38.3,31.2,39.5,29.8,39.5z"/>
	</g>
	<g>
		<path d="M45.5,37.9c-0.3,0-0.5-0.2-0.5-0.5s0.2-0.5,0.5-0.5c0.9,0,1.5-0.7,1.5-1.5v-7.5c0-5-0.4-5.7-1.7-6.3l-10.3-3
			c-0.8,0-1.5,0.7-1.5,1.5v15.3c0,0.9,0.7,1.5,1.5,1.5c0.3,0,0.5,0.2,0.5,0.5s-0.2,0.5-0.5,0.5c-1.4,0-2.5-1.1-2.5-2.5V20.1
			c0-1.4,1.1-2.5,2.5-2.5c0,0,0.1,0,0.1,0l10.4,3.1c2.1,0.9,2.4,2.4,2.4,7.3v7.5C48,36.8,46.9,37.9,45.5,37.9z"/>
	</g>
	<g>
		<path d="M40.5,42c-2.5,0-4.5-2-4.5-4.5s2-4.5,4.5-4.5s4.5,2,4.5,4.5S42.9,42,40.5,42z M40.5,33.9c-1.9,0-3.5,1.6-3.5,3.5
			s1.6,3.5,3.5,3.5s3.5-1.6,3.5-3.5S42.4,33.9,40.5,33.9z"/>
	</g>
	<g>
		<path d="M15,42c-2.5,0-4.5-2-4.5-4.5s2-4.5,4.5-4.5c2.5,0,4.5,2,4.5,4.5S17.5,42,15,42z M15,33.9c-1.9,0-3.5,1.6-3.5,3.5
			S13.1,41,15,41c1.9,0,3.5-1.6,3.5-3.5S17,33.9,15,33.9z"/>
	</g>
	<g>
		<path d="M9.9,30.9c-0.3,0-0.5-0.2-0.5-0.5v-9.6c0-0.3,0.2-0.5,0.5-0.5s0.5,0.2,0.5,0.5v9.6C10.4,30.6,10.2,30.9,9.9,30.9z"/>
	</g>
	<g>
		<path d="M13.5,30.9c-0.3,0-0.5-0.2-0.5-0.5V18c0-0.3,0.2-0.5,0.5-0.5S14,17.8,14,18v12.3C14,30.6,13.8,30.9,13.5,30.9z"/>
	</g>
	<g>
		<path d="M17.2,30.9c-0.3,0-0.5-0.2-0.5-0.5V15.3c0-0.3,0.2-0.5,0.5-0.5s0.5,0.2,0.5,0.5v15.1C17.7,30.6,17.4,30.9,17.2,30.9z"/>
	</g>
	<g>
		<path d="M20.8,30.9c-0.3,0-0.5-0.2-0.5-0.5V15.3c0-0.3,0.2-0.5,0.5-0.5s0.5,0.2,0.5,0.5v15.1C21.3,30.6,21.1,30.9,20.8,30.9z"/>
	</g>
	<g>
		<path d="M24.4,30.9c-0.3,0-0.5-0.2-0.5-0.5V15.3c0-0.3,0.2-0.5,0.5-0.5s0.5,0.2,0.5,0.5v15.1C24.9,30.6,24.7,30.9,24.4,30.9z"/>
	</g>
	<g>
		<path d="M28,30.9c-0.3,0-0.5-0.2-0.5-0.5V15.3c0-0.3,0.2-0.5,0.5-0.5s0.5,0.2,0.5,0.5v15.1C28.5,30.6,28.3,30.9,28,30.9z"/>
	</g>
	<g>
		<path d="M7.3,20.6c-4,0-7.3-3.3-7.3-7.3S3.3,6,7.3,6s7.3,3.3,7.3,7.3S11.3,20.6,7.3,20.6z M7.3,7C3.8,7,1,9.9,1,13.3
			c0,3.5,2.8,6.3,6.3,6.3c3.5,0,6.3-2.8,6.3-6.3C13.5,9.9,10.7,7,7.3,7z"/>
	</g>
	<g>
		<path d="M9.7,16.1c-0.1,0-0.3,0-0.4-0.1l-2.4-2.4c-0.1-0.1-0.1-0.2-0.1-0.4v-5c0-0.3,0.2-0.5,0.5-0.5s0.5,0.2,0.5,0.5V13l2.3,2.3
			c0.2,0.2,0.2,0.5,0,0.7C10,16,9.8,16.1,9.7,16.1z"/>
	</g>
</g>
</svg>
