<?xml version="1.0" encoding="utf-8"?>
<!-- Generator: Adobe Illustrator 22.1.0, SVG Export Plug-In . SVG Version: 6.00 Build 0)  -->
<svg version="1.1" id="Layer_1" xmlns="http://www.w3.org/2000/svg" xmlns:xlink="http://www.w3.org/1999/xlink" x="0px" y="0px"
	 viewBox="0 0 48 48" style="enable-background:new 0 0 48 48;" xml:space="preserve">
<style type="text/css">
	.st0{fill:url(#SVGID_1_);}
	.st1{fill:url(#SVGID_2_);}
	.st2{fill:url(#SVGID_3_);}
	.st3{fill:url(#SVGID_4_);}
	.st4{fill:url(#SVGID_5_);}
	.st5{fill:url(#SVGID_6_);}
	.st6{fill:url(#SVGID_7_);}
	.st7{fill:url(#SVGID_8_);}
</style>
<g>
	<g>
		<g>
			<linearGradient id="SVGID_1_" gradientUnits="userSpaceOnUse" x1="0.75" y1="24" x2="47.6257" y2="24">
				<stop  offset="0" style="stop-color:#2BBFDF"/>
				<stop  offset="1" style="stop-color:#1974AD"/>
			</linearGradient>
			<path class="st0" d="M35.7,48H8.8c-1.2,0-2.1-1-2.1-2.1V2.1C6.7,1,7.6,0,8.8,0h30.4c1.2,0,2.1,1,2.1,2.1v40.3L35.7,48z M8.8,1
				C8.2,1,7.7,1.5,7.7,2.1v43.7c0,0.6,0.5,1.1,1.1,1.1h26.4l5.1-5V2.1c0-0.6-0.5-1.1-1.1-1.1H8.8z"/>
		</g>
		<g>
			<linearGradient id="SVGID_2_" gradientUnits="userSpaceOnUse" x1="0.75" y1="44.5691" x2="47.6257" y2="44.5691">
				<stop  offset="0" style="stop-color:#2BBFDF"/>
				<stop  offset="1" style="stop-color:#1974AD"/>
			</linearGradient>
			<path class="st1" d="M36,47.5h-1v-3.7c0-1.2,1-2.1,2.1-2.1h3.7v1h-3.7c-0.6,0-1.1,0.5-1.1,1.1V47.5z"/>
		</g>
	</g>
	<g>
		<g>
			<linearGradient id="SVGID_3_" gradientUnits="userSpaceOnUse" x1="0.75" y1="9.9067" x2="47.6257" y2="9.9067">
				<stop  offset="0" style="stop-color:#2BBFDF"/>
				<stop  offset="1" style="stop-color:#1974AD"/>
			</linearGradient>
			<path class="st2" d="M35.9,10.4H12.1c-0.3,0-0.5-0.2-0.5-0.5s0.2-0.5,0.5-0.5h23.7c0.3,0,0.5,0.2,0.5,0.5S36.1,10.4,35.9,10.4z"
				/>
		</g>
		<g>
			<linearGradient id="SVGID_4_" gradientUnits="userSpaceOnUse" x1="0.75" y1="15.5439" x2="47.6257" y2="15.5439">
				<stop  offset="0" style="stop-color:#2BBFDF"/>
				<stop  offset="1" style="stop-color:#1974AD"/>
			</linearGradient>
			<path class="st3" d="M35.9,16H12.1c-0.3,0-0.5-0.2-0.5-0.5s0.2-0.5,0.5-0.5h23.7c0.3,0,0.5,0.2,0.5,0.5S36.1,16,35.9,16z"/>
		</g>
		<g>
			<linearGradient id="SVGID_5_" gradientUnits="userSpaceOnUse" x1="0.75" y1="21.1812" x2="47.6257" y2="21.1812">
				<stop  offset="0" style="stop-color:#2BBFDF"/>
				<stop  offset="1" style="stop-color:#1974AD"/>
			</linearGradient>
			<path class="st4" d="M35.9,21.7H12.1c-0.3,0-0.5-0.2-0.5-0.5s0.2-0.5,0.5-0.5h23.7c0.3,0,0.5,0.2,0.5,0.5S36.1,21.7,35.9,21.7z"
				/>
		</g>
		<g>
			<linearGradient id="SVGID_6_" gradientUnits="userSpaceOnUse" x1="0.75" y1="26.8188" x2="47.6257" y2="26.8188">
				<stop  offset="0" style="stop-color:#2BBFDF"/>
				<stop  offset="1" style="stop-color:#1974AD"/>
			</linearGradient>
			<path class="st5" d="M35.9,27.3H12.1c-0.3,0-0.5-0.2-0.5-0.5s0.2-0.5,0.5-0.5h23.7c0.3,0,0.5,0.2,0.5,0.5S36.1,27.3,35.9,27.3z"
				/>
		</g>
		<g>
			<linearGradient id="SVGID_7_" gradientUnits="userSpaceOnUse" x1="0.75" y1="32.4561" x2="47.6257" y2="32.4561">
				<stop  offset="0" style="stop-color:#2BBFDF"/>
				<stop  offset="1" style="stop-color:#1974AD"/>
			</linearGradient>
			<path class="st6" d="M35.9,33H12.1c-0.3,0-0.5-0.2-0.5-0.5s0.2-0.5,0.5-0.5h23.7c0.3,0,0.5,0.2,0.5,0.5S36.1,33,35.9,33z"/>
		</g>
		<g>
			<linearGradient id="SVGID_8_" gradientUnits="userSpaceOnUse" x1="0.75" y1="38.0933" x2="47.6257" y2="38.0933">
				<stop  offset="0" style="stop-color:#2BBFDF"/>
				<stop  offset="1" style="stop-color:#1974AD"/>
			</linearGradient>
			<path class="st7" d="M26.4,38.6H12.1c-0.3,0-0.5-0.2-0.5-0.5s0.2-0.5,0.5-0.5h14.3c0.3,0,0.5,0.2,0.5,0.5S26.7,38.6,26.4,38.6z"
				/>
		</g>
	</g>
</g>
</svg>
