<?xml version="1.0" encoding="utf-8"?>
<!-- Generator: Adobe Illustrator 22.1.0, SVG Export Plug-In . SVG Version: 6.00 Build 0)  -->
<svg version="1.1" id="Layer_1" xmlns="http://www.w3.org/2000/svg" xmlns:xlink="http://www.w3.org/1999/xlink" x="0px" y="0px"
	 viewBox="0 0 48 48" style="enable-background:new 0 0 48 48;" xml:space="preserve">
<style type="text/css">
	.st0{fill:url(#SVGID_1_);}
	.st1{fill:url(#SVGID_2_);}
	.st2{fill:url(#SVGID_3_);}
	.st3{fill:url(#SVGID_4_);}
	.st4{fill:url(#SVGID_5_);}
	.st5{fill:url(#SVGID_6_);}
</style>
<g>
	<linearGradient id="SVGID_1_" gradientUnits="userSpaceOnUse" x1="0.375" y1="28.0183" x2="47.645" y2="28.0183">
		<stop  offset="0" style="stop-color:#2BBFDF"/>
		<stop  offset="1" style="stop-color:#1974AD"/>
	</linearGradient>
	<path class="st0" d="M30,24.2c0.4-0.3,0.7-0.8,0.7-1.3v-1.4c0-0.5-0.2-0.9-0.5-1.2c0.5-0.7,0.6-1.8,0.7-2.7
		c0.2-1.7-1.4-2.5-2.3-2.6l-9,0l-0.1,0c-0.9,0.2-2.5,1-2.3,2.6c0.1,0.9,0.3,2,0.7,2.7c-0.3,0.3-0.5,0.7-0.5,1.2v1.4
		c0,0.5,0.3,1,0.7,1.3l-5.8,7.2c-0.1,0.1-2,2.5-1,5.1c0.2,0.5,0.3,0.8,0.4,1.2c0.4,1.2,0.5,1.5,1.2,2.3c1.1,1.2,4.3,1.2,4.7,1.2h0.7
		h11.4h0.7c0.4,0,3.6,0,4.7-1.2c0.7-0.8,0.8-1,1.2-2.3c0.1-0.3,0.2-0.7,0.4-1.2c1-2.6-0.9-5-1-5.1L30,24.2z M18.9,23.4
		c-0.3,0-0.5-0.2-0.5-0.5v-1.4c0-0.3,0.2-0.5,0.5-0.5h10.3c0.3,0,0.5,0.2,0.5,0.5v1.4c0,0.3-0.2,0.5-0.5,0.5H18.9z M19.6,15.9h8.8
		c0.3,0.1,1.6,0.5,1.5,1.5c-0.1,1.2-0.4,2.4-0.8,2.4H19c-0.5,0-0.7-1.2-0.8-2.4C18,16.4,19.4,16,19.6,15.9z M35.8,36.1
		c-0.2,0.5-0.3,0.9-0.4,1.2c-0.4,1.2-0.5,1.3-1,1.9c-0.6,0.7-2.7,0.9-3.9,0.9h-0.7H18.3h-0.7c-1.2,0-3.3-0.2-3.9-0.9
		c-0.6-0.6-0.6-0.7-1-1.9c-0.1-0.3-0.2-0.7-0.4-1.2C11.4,34,13,32,13.1,32l6-7.6h9.8l6,7.6C35,32,36.6,34,35.8,36.1z"/>
	<linearGradient id="SVGID_2_" gradientUnits="userSpaceOnUse" x1="0.375" y1="32.2195" x2="47.645" y2="32.2195">
		<stop  offset="0" style="stop-color:#2BBFDF"/>
		<stop  offset="1" style="stop-color:#1974AD"/>
	</linearGradient>
	<path class="st1" d="M26.2,28.9l0.4-0.9c-0.2-0.1-0.7-0.3-1.4-0.4v-1.1h-1v0.9c-0.4-0.1-0.9-0.1-1.3,0v-0.9h-1v1.2
		c-0.1,0.1-0.2,0.2-0.3,0.3c-0.7,0.8-1.1,1.8-0.9,2.7c0.1,0.5,0.4,1.1,1.2,1.6v3.8c-0.4-0.1-0.8-0.2-1.3-0.4l-0.4,0.9
		c0.6,0.2,1.1,0.4,1.6,0.5v1.1h1v-0.9c0.2,0,0.5,0,0.7,0c0.2,0,0.4,0,0.6-0.1v0.9h1v-1.2c0.1,0,0.1,0,0.2-0.1
		c0.7-0.4,1.1-1.1,1.1-1.9c0.1-1.2-0.5-1.9-1.3-2.4v-3.9C25.5,28.7,25.8,28.8,26.2,28.9z M21.6,30.3c-0.1-0.4,0-0.8,0.3-1.2v1.7
		C21.7,30.7,21.6,30.5,21.6,30.3z M22.8,36.1v-3.6c0.1,0.1,0.3,0.1,0.4,0.2c0.3,0.1,0.6,0.2,0.9,0.4v3.1
		C23.8,36.2,23.3,36.2,22.8,36.1z M25.5,34.7c0,0.4-0.2,0.6-0.3,0.9v-1.9C25.4,33.9,25.5,34.3,25.5,34.7z M24.1,32
		c-0.2-0.1-0.4-0.1-0.6-0.2c-0.2-0.1-0.5-0.2-0.7-0.3v-3.2c0.4-0.1,0.8,0,1.3,0.1V32z"/>
	<linearGradient id="SVGID_3_" gradientUnits="userSpaceOnUse" x1="0.375" y1="18.8354" x2="47.645" y2="18.8354">
		<stop  offset="0" style="stop-color:#2BBFDF"/>
		<stop  offset="1" style="stop-color:#1974AD"/>
	</linearGradient>
	<path class="st2" d="M11.9,30.8L11.9,30.8c0.3,0,0.5-0.2,0.5-0.5s-0.2-0.5-0.5-0.5v0h0H6.7H6c-1.1,0-3-0.2-3.5-0.8
		C2,28.4,2,28.3,1.6,27.2c-0.1-0.3-0.2-0.6-0.4-1.1c-0.7-1.8,0.8-3.7,0.8-3.7l5.5-6.9h9c0.9,0,1.5-0.7,1.5-1.5v-1.1
		c0-0.4-0.2-0.8-0.5-1.1c0.4-0.6,0.6-1.6,0.7-2.5c0.2-1.6-1.3-2.3-2.2-2.4l-8.2,0l-0.1,0C6.9,7.1,5.4,7.8,5.6,9.3
		c0.1,0.8,0.2,1.9,0.7,2.5c-0.3,0.3-0.5,0.7-0.5,1.1v1.1c0,0.5,0.2,1,0.6,1.2l-5.2,6.6c-0.1,0.1-1.8,2.3-0.9,4.7
		c0.2,0.4,0.3,0.8,0.4,1.1c0.4,1.1,0.5,1.4,1.1,2.1c1,1.1,4,1.1,4.3,1.1h0.6H11.9L11.9,30.8z M17,14.1c0,0.3-0.2,0.5-0.5,0.5H7.3
		c-0.3,0-0.5-0.2-0.5-0.5v-1.1c0-0.3,0.2-0.5,0.5-0.5h9.1c0.3,0,0.5,0.2,0.5,0.5V14.1z M6.6,9.2C6.5,8.3,7.7,7.9,7.9,7.9h8
		c0.2,0.1,1.4,0.4,1.3,1.3c-0.1,0.6-0.3,2.2-0.7,2.2v0c0,0,0,0,0,0H7.3c0,0,0,0,0,0v0C6.9,11.4,6.7,9.8,6.6,9.2z"/>
	<linearGradient id="SVGID_4_" gradientUnits="userSpaceOnUse" x1="0.375" y1="22.6545" x2="47.645" y2="22.6545">
		<stop  offset="0" style="stop-color:#2BBFDF"/>
		<stop  offset="1" style="stop-color:#1974AD"/>
	</linearGradient>
	<path class="st3" d="M13.8,19.7l0.4-0.9c-0.2-0.1-0.7-0.2-1.2-0.4v-1h-1v0.8c-0.4-0.1-0.7-0.1-1.1,0v-0.8h-1v1.1
		c-0.1,0.1-0.2,0.1-0.3,0.2c-0.7,0.8-1,1.7-0.8,2.5c0.1,0.4,0.4,1,1.1,1.4V26c-0.4-0.1-0.7-0.2-1.1-0.4l-0.4,0.9
		c0.5,0.2,1,0.4,1.5,0.5v1h1v-0.8c0.2,0,0.4,0,0.6,0c0.2,0,0.4,0,0.5-0.1V28h1v-1.1c0,0,0.1,0,0.2-0.1c0.6-0.4,1-1,1.1-1.8
		c0.1-1.1-0.4-1.8-1.2-2.2v-3.4C13.3,19.5,13.6,19.6,13.8,19.7z M9.7,20.9c-0.1-0.3,0-0.6,0.1-0.9v1.2C9.8,21.2,9.7,21.1,9.7,20.9z
		 M10.8,26.2V23c0.1,0,0.2,0.1,0.3,0.1c0.3,0.1,0.6,0.2,0.8,0.3v2.7C11.6,26.2,11.3,26.2,10.8,26.2z M13.2,24.9
		c0,0.3-0.1,0.5-0.2,0.7v-1.5C13.1,24.3,13.2,24.6,13.2,24.9z M11.9,22.4c-0.2-0.1-0.3-0.1-0.5-0.2c-0.2-0.1-0.4-0.2-0.6-0.2v-2.8
		c0.3,0,0.7,0,1.1,0.1V22.4z"/>
	<linearGradient id="SVGID_5_" gradientUnits="userSpaceOnUse" x1="0.375" y1="18.8354" x2="47.645" y2="18.8354">
		<stop  offset="0" style="stop-color:#2BBFDF"/>
		<stop  offset="1" style="stop-color:#1974AD"/>
	</linearGradient>
	<path class="st4" d="M46.8,21.9l-5.2-6.5c0.4-0.3,0.7-0.7,0.7-1.3v-1.1c0-0.4-0.2-0.8-0.5-1.1c0.4-0.6,0.6-1.6,0.7-2.5
		c0.2-1.6-1.3-2.3-2.2-2.4l-8.2,0l-0.1,0c-0.8,0.2-2.3,0.9-2.2,2.4c0.1,0.8,0.2,1.9,0.7,2.5c-0.3,0.3-0.5,0.7-0.5,1.1v1.1
		c0,0.9,0.7,1.5,1.5,1.5h9l5.5,6.9c0,0,1.5,1.8,0.8,3.7c-0.2,0.4-0.3,0.8-0.4,1.1C46,28.3,46,28.4,45.5,29C45,29.6,43,29.8,42,29.8
		h-0.6h-5.2h0v0c-0.3,0-0.5,0.2-0.5,0.5s0.2,0.5,0.5,0.5v0h0h5.2H42c0.3,0,3.3,0,4.3-1.1c0.6-0.7,0.7-0.9,1.1-2.1
		c0.1-0.3,0.2-0.6,0.4-1.1C48.6,24.1,46.9,22,46.8,21.9z M30.9,9.2c-0.1-0.9,1.1-1.3,1.3-1.3h8c0.2,0.1,1.4,0.4,1.3,1.3
		c-0.1,0.6-0.3,2.2-0.7,2.2v0c0,0,0,0,0,0h-9.1c0,0,0,0,0,0v0C31.1,11.4,30.9,9.8,30.9,9.2z M31,14.1v-1.1c0-0.3,0.2-0.5,0.5-0.5
		h9.1c0.3,0,0.5,0.2,0.5,0.5v1.1c0,0.3-0.2,0.5-0.5,0.5h-9.1C31.3,14.6,31,14.4,31,14.1z"/>
	<linearGradient id="SVGID_6_" gradientUnits="userSpaceOnUse" x1="0.375" y1="22.6545" x2="47.645" y2="22.6545">
		<stop  offset="0" style="stop-color:#2BBFDF"/>
		<stop  offset="1" style="stop-color:#1974AD"/>
	</linearGradient>
	<path class="st5" d="M33,25.6l-0.4,0.9c0.5,0.2,1,0.4,1.5,0.5v1h1v-0.8c0.2,0,0.4,0,0.6,0c0.2,0,0.4,0,0.5-0.1V28h1v-1.1
		c0,0,0.1,0,0.2-0.1c0.6-0.4,1-1,1.1-1.8c0.1-1.1-0.4-1.8-1.2-2.2v-3.4c0.3,0.1,0.6,0.2,0.9,0.3l0.4-0.9c-0.2-0.1-0.7-0.2-1.2-0.4
		v-1h-1v0.8c-0.4-0.1-0.7-0.1-1.1,0v-0.8h-1v1.1c-0.1,0.1-0.2,0.1-0.3,0.2c-0.7,0.8-1,1.7-0.8,2.5c0.1,0.4,0.4,1,1.1,1.4V26
		C33.7,25.9,33.4,25.8,33,25.6z M37.4,24.9c0,0.3-0.1,0.5-0.2,0.7v-1.5C37.4,24.3,37.5,24.6,37.4,24.9z M36.2,19.2v3.2
		c-0.2-0.1-0.3-0.1-0.5-0.2c-0.2-0.1-0.4-0.2-0.6-0.2v-2.8C35.4,19.1,35.8,19.1,36.2,19.2z M34,20.9c-0.1-0.3,0-0.6,0.1-0.9v1.2
		C34,21.2,34,21.1,34,20.9z M35.1,23c0.1,0,0.2,0.1,0.3,0.1c0.3,0.1,0.6,0.2,0.8,0.3v2.7c-0.3,0.1-0.7,0.1-1.1,0V23z"/>
</g>
</svg>
