<?xml version="1.0" encoding="utf-8"?>
<!-- Generator: Adobe Illustrator 22.1.0, SVG Export Plug-In . SVG Version: 6.00 Build 0)  -->
<svg version="1.1" id="Layer_1" xmlns="http://www.w3.org/2000/svg" xmlns:xlink="http://www.w3.org/1999/xlink" x="0px" y="0px"
	 viewBox="0 0 48 48" style="enable-background:new 0 0 48 48;" xml:space="preserve">
<g>
	<path d="M40.6,12.5l2.6-2.6c0.9-0.9,0.9-2.3,0-3.2s-2.3-0.9-3.2,0l-2.7,2.7c-2.8-2.2-6.1-3.7-9.8-4.3V2.6h1.7
		c0.7,0,1.3-0.6,1.3-1.3S30,0,29.3,0H18.7c-0.7,0-1.3,0.6-1.3,1.3s0.6,1.3,1.3,1.3h1.7v2.4c-3.7,0.6-7,2.1-9.8,4.3L7.9,6.7
		C7,5.8,5.6,5.8,4.7,6.7C3.8,7.5,3.8,9,4.7,9.8l2.7,2.7c-3.1,3.8-5,8.6-5,13.9C2.4,38.3,12.1,48,24,48s21.6-9.7,21.6-21.6
		C45.6,21.1,43.7,16.3,40.6,12.5z M40.7,7.4c0.5-0.5,1.3-0.5,1.8,0s0.5,1.3,0,1.8l-2.6,2.6c-0.6-0.6-1.2-1.2-1.8-1.7L40.7,7.4z
		 M18.7,1.6c-0.2,0-0.3-0.1-0.3-0.3c0-0.2,0.1-0.3,0.3-0.3h10.6c0.2,0,0.3,0.1,0.3,0.3c0,0.2-0.1,0.3-0.3,0.3h-2.7v3.3
		c-0.8-0.1-1.7-0.2-2.6-0.2s-1.7,0.1-2.6,0.2V1.6H18.7z M5.4,9.1c-0.5-0.5-0.5-1.3,0-1.8c0.5-0.5,1.3-0.5,1.8,0L9.9,10
		c-0.6,0.5-1.2,1.1-1.8,1.7L5.4,9.1z M24,47C12.6,47,3.4,37.8,3.4,26.4S12.6,5.8,24,5.8S44.6,15,44.6,26.4S35.4,47,24,47z"/>
	<path d="M39.4,33.4c1-2.2,1.5-4.5,1.5-7c0-0.1,0-0.1,0-0.2c0,0,0,0,0,0c0,0,0,0,0-0.1c0-1.2-0.2-2.3-0.4-3.5c0,0,0,0,0,0
		c0-0.1,0-0.2-0.1-0.2c-0.3-1.2-0.7-2.3-1.2-3.4c0-0.1-0.1-0.2-0.1-0.2c-0.6-1.2-1.4-2.4-2.3-3.4c0-0.1-0.1-0.1-0.2-0.2
		c-1.2-1.4-2.7-2.6-4.3-3.5c-0.1-0.1-0.1-0.1-0.2-0.1c-2.3-1.3-4.9-2-7.6-2.1V7.6c0-0.3-0.2-0.5-0.5-0.5s-0.5,0.2-0.5,0.5v7.8
		c-3,0.1-5.8,1.5-7.8,3.7l-0.2-4l-1,0.1l0.3,6l6-0.8l-0.1-1L16.3,20c1.8-2.2,4.4-3.5,7.2-3.6v10c0,0.1,0.1,0.3,0.1,0.4L27,30
		c0,0,0,0,0,0l3.5,3.5c0,0,0,0,0,0l0.2,0.2c-2.2,2-5.2,2.9-8.2,2.5c-2.6-0.4-5-1.8-6.5-4s-2.2-4.8-1.8-7.4c0-0.3-0.1-0.5-0.4-0.6
		c-0.3,0-0.5,0.1-0.6,0.4c-0.4,2.9,0.3,5.8,2,8.2s4.3,3.9,7.2,4.4c0.6,0.1,1.1,0.1,1.7,0.1c2.7,0,5.3-1,7.4-2.9l2.6,2.6c0,0,0,0,0,0
		l2.6,2.6c0.1,0.1,0.2,0.1,0.4,0.1s0.3,0,0.4-0.1c0.2-0.2,0.2-0.5,0-0.7l-1-1C37.5,36.6,38.6,35.1,39.4,33.4
		C39.3,33.4,39.4,33.4,39.4,33.4z M36.5,36.2h-1.9L32,33.7h6C37.6,34.6,37.1,35.5,36.5,36.2z M31,32.7l-2.5-2.5h10.9
		c-0.2,0.9-0.5,1.7-0.8,2.5H31z M35.2,15.1H24.5v-2.5h7.3C33,13.3,34.2,14.1,35.2,15.1z M39.8,25.7H24.5v-2.5h15
		C39.7,24,39.8,24.8,39.8,25.7z M24.5,22.1v-2.5h13.9c0.4,0.8,0.7,1.6,0.9,2.5H24.5z M24.5,18.6v-2.5h11.6c0.7,0.8,1.3,1.6,1.8,2.5
		H24.5z M39.9,26.7c0,0.9-0.1,1.7-0.2,2.5H27.5L25,26.7H39.9z M29.7,11.6h-5.2v-1C26.3,10.6,28.1,10.9,29.7,11.6z M35.6,37.2
		L35.6,37.2C35.6,37.2,35.6,37.2,35.6,37.2L35.6,37.2z"/>
</g>
</svg>
