<?xml version="1.0" encoding="utf-8"?>
<!-- Generator: Adobe Illustrator 22.1.0, SVG Export Plug-In . SVG Version: 6.00 Build 0)  -->
<svg version="1.1" id="Layer_1" xmlns="http://www.w3.org/2000/svg" xmlns:xlink="http://www.w3.org/1999/xlink" x="0px" y="0px"
	 viewBox="0 0 24 24" style="enable-background:new 0 0 24 24;" xml:space="preserve">
<style type="text/css">
	.st0{fill:#fff}
	.st1{fill:#fff}
</style>
<g>
	<g>
		<linearGradient id="SVGID_1_" gradientUnits="userSpaceOnUse" x1="-4.166667e-02" y1="12.0165" x2="23.9583" y2="12.0165">
			<stop  offset="0.2" style="stop-color:#00A9CD"/>
			<stop  offset="0.8" style="stop-color:#194AAD"/>
		</linearGradient>
		<path class="st0" d="M21.4,24H2.6C1.2,24,0,22.8,0,21.4V2.7C0,1.2,1.2,0,2.6,0h18.7C22.8,0,24,1.2,24,2.7v18.7
			C24,22.8,22.8,24,21.4,24z M2.6,1C1.7,1,1,1.8,1,2.7v18.7C1,22.3,1.7,23,2.6,23h18.7c0.9,0,1.6-0.7,1.6-1.6V2.7
			C23,1.8,22.3,1,21.4,1H2.6z"/>
	</g>
	<linearGradient id="SVGID_2_" gradientUnits="userSpaceOnUse" x1="-4.166667e-02" y1="12" x2="23.9584" y2="12">
		<stop  offset="0.2" style="stop-color:#00A9CD"/>
		<stop  offset="0.8" style="stop-color:#194AAD"/>
	</linearGradient>
	<path class="st1" d="M16.2,15.9c-0.2-0.2-0.5-0.2-0.7,0l-3,2.9V4.6c0-0.3-0.2-0.5-0.5-0.5s-0.5,0.2-0.5,0.5v14.1l-2.9-2.8
		c-0.2-0.2-0.5-0.2-0.7,0c-0.2,0.2-0.2,0.5,0,0.7l3.8,3.2c0,0,0,0,0.1,0c0,0,0.1,0,0.1,0.1c0.1,0,0.1,0,0.2,0c0,0,0,0,0.1,0
		c0,0,0,0,0.1,0c0.1,0,0.3,0,0.4-0.1l3.8-3.2C16.4,16.4,16.4,16.1,16.2,15.9z"/>
</g>
</svg>
