<?xml version="1.0" encoding="utf-8"?>
<!-- Generator: Adobe Illustrator 23.0.1, SVG Export Plug-In . SVG Version: 6.00 Build 0)  -->
<svg version="1.1" id="Layer_1" xmlns="http://www.w3.org/2000/svg" xmlns:xlink="http://www.w3.org/1999/xlink" x="0px" y="0px"
	 viewBox="0 0 24 24" style="enable-background:new 0 0 24 24;" xml:space="preserve">
<style type="text/css">
	.st0{fill:url(#SVGID_1_);}
	.st1{fill:url(#SVGID_2_);}
</style>
<g>
	<g>
		<linearGradient id="SVGID_1_" gradientUnits="userSpaceOnUse" x1="0.123" y1="11.8809" x2="23.9634" y2="12.1202">
			<stop  offset="0.2" style="stop-color:#00A9CD"/>
			<stop  offset="0.8" style="stop-color:#194AAD"/>
		</linearGradient>
		<path class="st0" d="M12,24C6.83,24,1.26,17.98,1.26,8.25c0-3.44,0.05-5.58,1.1-6.16C2.64,1.94,3.1,1.83,3.74,2.23
			c2.25,1.41,3.73,0.31,5.31-0.85C10.02,0.67,10.94,0,12,0s1.98,0.67,2.95,1.39c1.58,1.16,3.06,2.25,5.31,0.85
			c0.64-0.4,1.11-0.3,1.38-0.15c1.05,0.58,1.1,2.72,1.1,6.16C22.74,17.98,17.17,24,12,24z M2.89,2.95c-0.02,0-0.03,0-0.05,0.01
			C2.26,3.29,2.26,6.27,2.26,8.25C2.26,17.07,7.3,23,12,23s9.74-5.93,9.74-14.75c0-1.98,0-4.97-0.58-5.29
			c-0.06-0.03-0.2,0.01-0.37,0.12c-2.82,1.77-4.82,0.29-6.43-0.89C13.52,1.58,12.73,1,12,1s-1.52,0.58-2.35,1.19
			C8.04,3.38,6.03,4.85,3.21,3.08C3.08,3,2.96,2.95,2.89,2.95z"/>
	</g>
	<g>
		<linearGradient id="SVGID_2_" gradientUnits="userSpaceOnUse" x1="0.123" y1="11.8764" x2="23.9634" y2="12.1158">
			<stop  offset="0.2" style="stop-color:#00A9CD"/>
			<stop  offset="0.8" style="stop-color:#194AAD"/>
		</linearGradient>
		<path class="st1" d="M12,18.85c-0.74,0-1.1-0.29-1.1-1.01c0-0.65,0.36-1.03,1.1-1.03c0.76,0,1.1,0.38,1.1,1.03
			C13.1,18.49,12.76,18.85,12,18.85z M11.3,15.03l-0.27-9.88h1.85l-0.29,9.88H11.3z"/>
	</g>
</g>
</svg>
