<?xml version="1.0" encoding="utf-8"?>
<!-- Generator: Adobe Illustrator 22.1.0, SVG Export Plug-In . SVG Version: 6.00 Build 0)  -->
<svg version="1.1" id="Layer_1" xmlns="http://www.w3.org/2000/svg" xmlns:xlink="http://www.w3.org/1999/xlink" x="0px" y="0px"
	 viewBox="0 0 24 24" style="enable-background:new 0 0 24 24;" xml:space="preserve">
<style type="text/css">
	.st0{fill:url(#SVGID_1_);}
	.st1{fill:url(#SVGID_2_);}
	.st2{fill:url(#SVGID_3_);}
	.st3{fill:url(#SVGID_4_);}
	.st4{fill:url(#SVGID_5_);}
</style>
<g>
	<linearGradient id="SVGID_1_" gradientUnits="userSpaceOnUse" x1="0.1304" y1="12" x2="23.8273" y2="12">
		<stop  offset="0.2" style="stop-color:#00A9CD"/>
		<stop  offset="0.8" style="stop-color:#194AAD"/>
	</linearGradient>
	<path class="st0" d="M22.3,17.1c-0.2-0.1-0.6,0-0.7,0.2C19.7,20.8,16,23,12,23C6,23,1,18,1,12S6,1,12,1c5.6,0,10.2,4.2,10.9,9.7
		c0,0.3,0.3,0.5,0.6,0.5c0.3,0,0.5-0.3,0.5-0.6C23.2,4.6,18.1,0,12,0C5.4,0,0,5.4,0,12s5.4,12,12,12c4.4,0,8.4-2.4,10.5-6.2
		C22.7,17.5,22.6,17.2,22.3,17.1z"/>
	<linearGradient id="SVGID_2_" gradientUnits="userSpaceOnUse" x1="0.1304" y1="12" x2="23.8273" y2="12">
		<stop  offset="0.2" style="stop-color:#00A9CD"/>
		<stop  offset="0.8" style="stop-color:#194AAD"/>
	</linearGradient>
	<path class="st1" d="M20.9,11.6c0.3,0,0.5-0.3,0.5-0.6c-0.5-4.8-4.5-8.4-9.3-8.4c-5.2,0-9.4,4.2-9.4,9.4s4.2,9.4,9.4,9.4
		c3.4,0,6.5-1.8,8.2-4.8c0.1-0.3,0.1-0.6-0.2-0.7c-0.3-0.1-0.6-0.1-0.7,0.2c-1.5,2.6-4.3,4.3-7.3,4.3c-4.6,0-8.3-3.7-8.3-8.3
		S7.4,3.7,12,3.7c4.3,0,7.8,3.2,8.3,7.4C20.3,11.4,20.6,11.6,20.9,11.6z"/>
	<linearGradient id="SVGID_3_" gradientUnits="userSpaceOnUse" x1="0.1304" y1="12" x2="23.8273" y2="12">
		<stop  offset="0.2" style="stop-color:#00A9CD"/>
		<stop  offset="0.8" style="stop-color:#194AAD"/>
	</linearGradient>
	<path class="st2" d="M17.7,11.2c0,0.3,0.3,0.5,0.6,0.4c0.3,0,0.5-0.3,0.4-0.6c-0.5-3.3-3.4-5.8-6.7-5.8c-3.7,0-6.8,3-6.8,6.8
		s3,6.8,6.8,6.8c2.5,0,4.8-1.4,6-3.6c0.1-0.3,0-0.6-0.2-0.7c-0.3-0.1-0.6,0-0.7,0.2c-1,1.9-2.9,3.1-5.1,3.1c-3.2,0-5.7-2.6-5.7-5.7
		S8.8,6.3,12,6.3C14.8,6.3,17.3,8.4,17.7,11.2z"/>
	<linearGradient id="SVGID_4_" gradientUnits="userSpaceOnUse" x1="0.1304" y1="11.9997" x2="23.8273" y2="11.9997">
		<stop  offset="0.2" style="stop-color:#00A9CD"/>
		<stop  offset="0.8" style="stop-color:#194AAD"/>
	</linearGradient>
	<path class="st3" d="M12,10.4c0.5,0,1,0.3,1.3,0.7c0.2,0.2,0.5,0.3,0.7,0.1c0.2-0.2,0.3-0.5,0.1-0.7c-0.5-0.7-1.3-1.2-2.2-1.2
		c-1.4,0-2.6,1.2-2.6,2.6s1.2,2.6,2.6,2.6c0.6,0,1.2-0.2,1.7-0.6c0.2-0.2,0.2-0.5,0.1-0.7c-0.2-0.2-0.5-0.2-0.7-0.1
		c-0.3,0.2-0.6,0.4-1,0.4c-0.9,0-1.6-0.7-1.6-1.6C10.4,11.1,11.1,10.4,12,10.4z"/>
	<linearGradient id="SVGID_5_" gradientUnits="userSpaceOnUse" x1="0.1304" y1="13.9807" x2="23.8273" y2="13.9807">
		<stop  offset="0.2" style="stop-color:#00A9CD"/>
		<stop  offset="0.8" style="stop-color:#194AAD"/>
	</linearGradient>
	<path class="st4" d="M23.5,14.7c0.2,0,0.5-0.2,0.5-0.4c0.1-0.3-0.1-0.6-0.4-0.6l-1.9-0.3l1.9-0.8c0.3-0.1,0.4-0.4,0.3-0.7
		c-0.1-0.3-0.4-0.4-0.7-0.3L19.9,13l-8.2-1.5c-0.3,0-0.6,0.1-0.6,0.4c-0.1,0.3,0.1,0.6,0.4,0.6l8.2,1.5l3.1,2.4
		c0.1,0.1,0.2,0.1,0.3,0.1c0.2,0,0.3-0.1,0.4-0.2c0.2-0.2,0.1-0.6-0.1-0.7l-1.5-1.1L23.5,14.7C23.4,14.7,23.4,14.7,23.5,14.7z"/>
</g>
</svg>
