<?xml version="1.0" encoding="utf-8"?>
<!-- Generator: Adobe Illustrator 23.0.1, SVG Export Plug-In . SVG Version: 6.00 Build 0)  -->
<svg version="1.1" id="Layer_1" xmlns="http://www.w3.org/2000/svg" xmlns:xlink="http://www.w3.org/1999/xlink" x="0px" y="0px"
	 viewBox="0 0 24 24" style="enable-background:new 0 0 24 24;" xml:space="preserve">
<style type="text/css">
	.st0{fill:url(#SVGID_1_);}
	.st1{fill:url(#SVGID_2_);}
	.st2{fill:url(#SVGID_3_);}
	.st3{fill:url(#SVGID_4_);}
	.st4{fill:url(#SVGID_5_);}
</style>
<g>
	<g>
		<g>
			<linearGradient id="SVGID_1_" gradientUnits="userSpaceOnUse" x1="-0.1794" y1="10.2109" x2="23.7375" y2="9.5112">
				<stop  offset="0.2" style="stop-color:#00A9CD"/>
				<stop  offset="0.8" style="stop-color:#194AAD"/>
			</linearGradient>
			<path class="st0" d="M14.3,11.9c-0.1,0-0.3-0.1-0.4-0.2c-0.6-0.6-1.4-1.4-1.6-1.7c0,0-0.1-0.1-0.1-0.1c-0.2-0.2-0.2-0.5,0-0.7
				C12.5,9.1,12.5,9,13,9.3l0,0c0,0,0,0,0,0c0.3,0.2,0.7,0.7,1.4,1.3l3-3c0.2-0.2,0.5-0.2,0.7,0s0.2,0.5,0,0.7l-3.3,3.3
				C14.6,11.8,14.5,11.9,14.3,11.9z"/>
		</g>
		<g>
			<linearGradient id="SVGID_2_" gradientUnits="userSpaceOnUse" x1="-4.718626e-02" y1="14.7317" x2="23.8698" y2="14.032">
				<stop  offset="0.2" style="stop-color:#00A9CD"/>
				<stop  offset="0.8" style="stop-color:#194AAD"/>
			</linearGradient>
			<path class="st1" d="M14.3,16.4c-0.1,0-0.3-0.1-0.4-0.2c-0.6-0.6-1.4-1.4-1.6-1.7c0,0-0.1-0.1-0.1-0.1c-0.2-0.2-0.2-0.5,0-0.7
				c0.2-0.2,0.3-0.3,0.7,0.1l0,0c0,0,0,0,0,0c0.3,0.2,0.7,0.7,1.4,1.3l3-3c0.2-0.2,0.5-0.2,0.7,0s0.2,0.5,0,0.7l-3.3,3.3
				C14.6,16.4,14.5,16.4,14.3,16.4z"/>
		</g>
		<g>
			<linearGradient id="SVGID_3_" gradientUnits="userSpaceOnUse" x1="-0.1858" y1="9.994" x2="23.7312" y2="9.2943">
				<stop  offset="0.2" style="stop-color:#00A9CD"/>
				<stop  offset="0.8" style="stop-color:#194AAD"/>
			</linearGradient>
			<path class="st2" d="M10.8,10.2H6.3c-0.3,0-0.5-0.2-0.5-0.5s0.2-0.5,0.5-0.5h4.5c0.3,0,0.5,0.2,0.5,0.5S11.1,10.2,10.8,10.2z"/>
		</g>
		<g>
			<linearGradient id="SVGID_4_" gradientUnits="userSpaceOnUse" x1="-5.352527e-02" y1="14.515" x2="23.8634" y2="13.8153">
				<stop  offset="0.2" style="stop-color:#00A9CD"/>
				<stop  offset="0.8" style="stop-color:#194AAD"/>
			</linearGradient>
			<path class="st3" d="M10.8,14.8H6.3c-0.3,0-0.5-0.2-0.5-0.5s0.2-0.5,0.5-0.5h4.5c0.3,0,0.5,0.2,0.5,0.5S11.1,14.8,10.8,14.8z"/>
		</g>
	</g>
	<g>
		<linearGradient id="SVGID_5_" gradientUnits="userSpaceOnUse" x1="-3.1209" y1="12.4425" x2="26.7259" y2="11.5693">
			<stop  offset="0.2" style="stop-color:#00A9CD"/>
			<stop  offset="0.8" style="stop-color:#194AAD"/>
		</linearGradient>
		<path class="st4" d="M19.3,24H4.7c-1.4,0-2.5-1.1-2.5-2.5v-19C2.2,1.1,3.3,0,4.7,0h14.6c1.4,0,2.5,1.1,2.5,2.5v19
			C21.8,22.9,20.7,24,19.3,24z M4.7,1C3.9,1,3.2,1.7,3.2,2.5v19c0,0.8,0.7,1.5,1.5,1.5h14.6c0.8,0,1.5-0.7,1.5-1.5v-19
			c0-0.8-0.7-1.5-1.5-1.5H4.7z"/>
	</g>
</g>
</svg>
