<?xml version="1.0" encoding="utf-8"?>
<!-- Generator: Adobe Illustrator 22.1.0, SVG Export Plug-In . SVG Version: 6.00 Build 0)  -->
<svg version="1.1" id="Layer_1" xmlns="http://www.w3.org/2000/svg" xmlns:xlink="http://www.w3.org/1999/xlink" x="0px" y="0px"
	 viewBox="0 0 24 24" style="enable-background:new 0 0 24 24;" xml:space="preserve">
<style type="text/css">
	.st0{fill:url(#SVGID_1_);}
	.st1{fill:url(#SVGID_2_);}
	.st2{fill:url(#SVGID_3_);}
	.st3{fill:url(#SVGID_4_);}
	.st4{fill:url(#SVGID_5_);}
</style>
<g>
	<linearGradient id="SVGID_1_" gradientUnits="userSpaceOnUse" x1="0.9934" y1="12" x2="25.8524" y2="12">
		<stop  offset="0.2" style="stop-color:#00A9CD"/>
		<stop  offset="0.8" style="stop-color:#194AAD"/>
	</linearGradient>
	<path class="st0" d="M20.8,0H6C5.2,0,4.6,0.6,4.6,1.3V8c0,0.3,0.2,0.5,0.5,0.5S5.7,8.3,5.7,8V1.3C5.7,1.2,5.8,1,6,1h14.8
		c0.1,0,0.3,0.1,0.3,0.3v19h-1.3c-0.7,0-1.3,0.6-1.3,1.3V23H6c-0.1,0-0.3-0.1-0.3-0.3v-9.4c0-0.3-0.2-0.5-0.5-0.5S4.6,13,4.6,13.3
		v9.4C4.6,23.4,5.2,24,6,24h13c0.1,0,0.3-0.1,0.4-0.1l2.6-2.6c0.1-0.1,0.2-0.2,0.2-0.4V1.3C22.1,0.6,21.5,0,20.8,0z M19.8,21.4h0.6
		l-0.8,0.8v-0.6C19.5,21.5,19.7,21.4,19.8,21.4z"/>
	<linearGradient id="SVGID_2_" gradientUnits="userSpaceOnUse" x1="0.9934" y1="5.1139" x2="25.8524" y2="5.1139">
		<stop  offset="0.2" style="stop-color:#00A9CD"/>
		<stop  offset="0.8" style="stop-color:#194AAD"/>
	</linearGradient>
	<path class="st1" d="M19.2,4.6H7.6c-0.3,0-0.5,0.2-0.5,0.5c0,0.3,0.2,0.5,0.5,0.5h11.6c0.3,0,0.5-0.2,0.5-0.5
		C19.7,4.8,19.5,4.6,19.2,4.6z"/>
	<linearGradient id="SVGID_3_" gradientUnits="userSpaceOnUse" x1="0.9934" y1="16.1315" x2="25.8524" y2="16.1315">
		<stop  offset="0.2" style="stop-color:#00A9CD"/>
		<stop  offset="0.8" style="stop-color:#194AAD"/>
	</linearGradient>
	<path class="st2" d="M19.7,16.1c0-0.3-0.2-0.5-0.5-0.5H7.6c-0.3,0-0.5,0.2-0.5,0.5s0.2,0.5,0.5,0.5h11.6
		C19.5,16.6,19.7,16.4,19.7,16.1z"/>
	<linearGradient id="SVGID_4_" gradientUnits="userSpaceOnUse" x1="0.9934" y1="18.8862" x2="25.8524" y2="18.8862">
		<stop  offset="0.2" style="stop-color:#00A9CD"/>
		<stop  offset="0.8" style="stop-color:#194AAD"/>
	</linearGradient>
	<path class="st3" d="M7.6,18.4c-0.3,0-0.5,0.2-0.5,0.5c0,0.3,0.2,0.5,0.5,0.5h7c0.3,0,0.5-0.2,0.5-0.5c0-0.3-0.2-0.5-0.5-0.5H7.6z"
		/>
	<linearGradient id="SVGID_5_" gradientUnits="userSpaceOnUse" x1="0.9934" y1="10.7195" x2="25.8524" y2="10.7195">
		<stop  offset="0.2" style="stop-color:#00A9CD"/>
		<stop  offset="0.8" style="stop-color:#194AAD"/>
	</linearGradient>
	<path class="st4" d="M10.9,13.3c-0.2,0.2-0.2,0.5,0.1,0.7c0.1,0.1,0.2,0.1,0.3,0.1c0.1,0,0.3-0.1,0.4-0.2l2.4-2.9c0,0,0,0,0,0
		c0,0,0.1,0,0.1-0.1c0,0,0,0,0,0c0,0,0,0,0,0c0.1-0.1,0.2-0.2,0.2-0.4c0-0.2-0.1-0.4-0.3-0.5l-2.7-2.7c-0.2-0.2-0.5-0.2-0.7,0
		c-0.2,0.2-0.2,0.5,0,0.7l1.9,2H2.4c-0.3,0-0.5,0.2-0.5,0.5c0,0.3,0.2,0.5,0.5,0.5h10.4L10.9,13.3z"/>
</g>
</svg>
