<?xml version="1.0" encoding="utf-8"?>
<!-- Generator: Adobe Illustrator 22.1.0, SVG Export Plug-In . SVG Version: 6.00 Build 0)  -->
<svg version="1.1" id="Layer_1" xmlns="http://www.w3.org/2000/svg" xmlns:xlink="http://www.w3.org/1999/xlink" x="0px" y="0px"
	 viewBox="0 0 24 24" style="enable-background:new 0 0 24 24;" xml:space="preserve">
<style type="text/css">
	.st0{fill:url(#SVGID_1_);}
	.st1{fill:url(#SVGID_2_);}
</style>
<g>
	<g>
		<linearGradient id="SVGID_1_" gradientUnits="userSpaceOnUse" x1="0.625" y1="12" x2="23.4568" y2="12">
			<stop  offset="0.2" style="stop-color:#00A9CD"/>
			<stop  offset="0.8" style="stop-color:#194AAD"/>
		</linearGradient>
		<path class="st0" d="M12,0C7.9,0,4.1,2.2,1.9,5.6L1,1.5L0,1.7L1.3,8l6.2-1.8l-0.3-1L2.7,6.5c2-3.3,5.5-5.4,9.4-5.4
			C18,1.1,22.9,6,22.9,12S18,22.9,12,22.9S1.1,18,1.1,12c0-0.3-0.2-0.5-0.5-0.5S0.1,11.7,0.1,12c0,6.6,5.4,12,12,12s12-5.4,12-12
			S18.6,0,12,0z"/>
	</g>
	<g>
		<linearGradient id="SVGID_2_" gradientUnits="userSpaceOnUse" x1="0.5874" y1="12" x2="23.4192" y2="12">
			<stop  offset="0.2" style="stop-color:#00A9CD"/>
			<stop  offset="0.8" style="stop-color:#194AAD"/>
		</linearGradient>
		<path class="st1" d="M12,17.7c-0.8,0-1.1-0.3-1.1-1c0-0.7,0.4-1,1.1-1c0.8,0,1.1,0.4,1.1,1C13.1,17.3,12.8,17.7,12,17.7z
			 M11.2,14.4l-0.3-8.1H13l-0.3,8.1H11.2z"/>
	</g>
</g>
</svg>
