<?xml version="1.0" encoding="utf-8"?>
<!-- Generator: Adobe Illustrator 22.1.0, SVG Export Plug-In . SVG Version: 6.00 Build 0)  -->
<svg version="1.1" id="Layer_1" xmlns="http://www.w3.org/2000/svg" xmlns:xlink="http://www.w3.org/1999/xlink" x="0px" y="0px"
	 viewBox="0 0 24 24" style="enable-background:new 0 0 24 24;" xml:space="preserve">
<style type="text/css">
	.st0{fill:url(#SVGID_1_);}
</style>
<g>
	<linearGradient id="SVGID_1_" gradientUnits="userSpaceOnUse" x1="0" y1="12" x2="24" y2="12">
		<stop  offset="0.2" style="stop-color:#00A9CD"/>
		<stop  offset="0.8" style="stop-color:#194AAD"/>
	</linearGradient>
	<path class="st0" d="M5.9,22.3c-0.1,0-0.1,0-0.2,0c-0.2-0.1-0.3-0.2-0.3-0.5l-0.1-3.2H4.1c-2.3,0-4.1-1.9-4.1-4.1V5.9
		c0-2.3,1.9-4.1,4.1-4.1h15.7c2.3,0,4.1,1.9,4.1,4.1v8.6c0,2.3-1.9,4.1-4.1,4.1H9.1l-2.7,3.4C6.2,22.2,6.1,22.3,5.9,22.3z M4.1,2.7
		C2.4,2.7,1,4.1,1,5.9v8.6c0,1.7,1.4,3.1,3.1,3.1h1.7c0.3,0,0.5,0.2,0.5,0.5l0.1,2.3l2-2.6c0.1-0.1,0.2-0.2,0.4-0.2h11
		c1.7,0,3.1-1.4,3.1-3.1V5.9c0-1.7-1.4-3.1-3.1-3.1H4.1z"/>
</g>
</svg>
