<?xml version="1.0" encoding="utf-8"?>
<!-- Generator: Adobe Illustrator 23.0.1, SVG Export Plug-In . SVG Version: 6.00 Build 0)  -->
<svg version="1.1" id="Layer_1" xmlns="http://www.w3.org/2000/svg" xmlns:xlink="http://www.w3.org/1999/xlink" x="0px" y="0px"
	 viewBox="0 0 24 24" style="enable-background:new 0 0 24 24;" xml:space="preserve">
<style type="text/css">
	.st0{fill:url(#SVGID_1_);}
	.st1{fill:url(#SVGID_2_);}
</style>
<g>
	<linearGradient id="SVGID_1_" gradientUnits="userSpaceOnUse" x1="-0.0969" y1="13.4609" x2="24.2701" y2="11.4503">
		<stop  offset="0.2" style="stop-color:#00A9CD"/>
		<stop  offset="0.8" style="stop-color:#194AAD"/>
	</linearGradient>
	<path class="st0" d="M19.02,3c-2.75,0-4.98,2.23-4.98,4.98c0,0.27,0.02,0.54,0.07,0.81L2.6,8.83c-1.42,0.01-2.58,1.16-2.58,2.58
		L0,18.43c-0.01,0.68,0.26,1.33,0.74,1.81C1.23,20.72,1.87,21,2.56,21c0,0,0,0,0.01,0l14.36-0.05c1.41-0.01,2.57-1.16,2.58-2.58
		l0.02-5.43C22.03,12.69,24,10.56,24,7.98C24,5.24,21.77,3,19.02,3z M2.6,9.84L14.38,9.8c0.2,0.52,0.5,1.01,0.86,1.43l-5.47,3.09
		L1.98,9.96C2.17,9.88,2.39,9.84,2.6,9.84z M18.5,18.37v0.03c0,0,0,0,0,0l-2.91-6.22L16,11.94c0.71,0.54,1.58,0.91,2.52,1
		L18.5,18.37z M1.01,18.44C1.01,18.44,1.01,18.44,1.01,18.44l0-0.01l0.02-7.02c0-0.26,0.07-0.51,0.19-0.72l2.73,1.53l0,0L1.01,18.44
		z M16.92,19.94L2.56,19.99c-0.36,0-0.7-0.12-0.99-0.37c0,0,0,0,0,0l3.26-6.91l0,0l4.93,2.76l4.95-2.79l3.22,6.89
		C17.65,19.8,17.3,19.94,16.92,19.94z M19.52,11.93c-0.16,0.02-0.33,0.03-0.5,0.03c-0.17,0-0.34-0.01-0.5-0.04
		c-0.55-0.06-1.08-0.24-1.53-0.53c-0.32-0.17-0.6-0.4-0.85-0.67c-0.26-0.27-0.48-0.57-0.65-0.92c-0.17-0.31-0.29-0.65-0.36-1.01
		c-0.05-0.26-0.08-0.53-0.08-0.81c0-2.19,1.78-3.97,3.97-3.97c2.19,0,3.97,1.78,3.97,3.97C22.99,10.01,21.48,11.68,19.52,11.93z"/>
	<g>
		<linearGradient id="SVGID_2_" gradientUnits="userSpaceOnUse" x1="-0.4185" y1="9.5639" x2="23.9486" y2="7.5532">
			<stop  offset="0.2" style="stop-color:#00A9CD"/>
			<stop  offset="0.8" style="stop-color:#194AAD"/>
		</linearGradient>
		<path class="st1" d="M19.04,10.94c-0.4,0-0.58-0.15-0.58-0.53c0-0.34,0.19-0.54,0.58-0.54c0.4,0,0.58,0.19,0.58,0.54
			C19.63,10.75,19.45,10.94,19.04,10.94z M18.64,9.21l-0.16-4.2h1.07l-0.16,4.2H18.64z"/>
	</g>
</g>
</svg>
