<?xml version="1.0" encoding="utf-8"?>
<!-- Generator: Adobe Illustrator 23.0.1, SVG Export Plug-In . SVG Version: 6.00 Build 0)  -->
<svg version="1.1" id="Layer_1" xmlns="http://www.w3.org/2000/svg" xmlns:xlink="http://www.w3.org/1999/xlink" x="0px" y="0px"
	 viewBox="0 0 24 24" style="enable-background:new 0 0 24 24;" xml:space="preserve">
<style type="text/css">
	.st0{fill:url(#SVGID_1_);}
	.st1{fill:url(#SVGID_2_);}
	.st2{fill:url(#SVGID_3_);}
</style>
<g>
	<g>
		<linearGradient id="SVGID_1_" gradientUnits="userSpaceOnUse" x1="0.4423" y1="11.511" x2="24.3306" y2="12.6121">
			<stop  offset="0.2" style="stop-color:#00A9CD"/>
			<stop  offset="0.8" style="stop-color:#194AAD"/>
		</linearGradient>
		<path class="st0" d="M18.54,22.55c-0.12,0-0.23-0.04-0.32-0.12l-4.5-3.8H4.5c-0.44,0-1.96-0.1-3.18-1.32
			C0.47,16.45,0,15.33,0,14.13V6.69c0-2.48,2.02-4.5,4.5-4.5h15c2.48,0,4.5,2.02,4.5,4.5v7.44c0,2.48-2.02,4.5-4.5,4.5h-0.58
			l0.12,3.4c0.01,0.2-0.1,0.38-0.28,0.47C18.69,22.53,18.62,22.55,18.54,22.55z M4.5,3.19C2.57,3.19,1,4.76,1,6.69v7.44
			c0,0.93,0.37,1.81,1.03,2.47c0.95,0.95,2.13,1.03,2.47,1.03h9.4c0.12,0,0.23,0.04,0.32,0.12L18,20.94l-0.1-2.79
			c0-0.14,0.05-0.27,0.14-0.37s0.22-0.15,0.36-0.15h1.1c1.93,0,3.5-1.57,3.5-3.5V6.69c0-1.93-1.57-3.5-3.5-3.5H4.5z"/>
	</g>
	<g>
		<linearGradient id="SVGID_2_" gradientUnits="userSpaceOnUse" x1="0.6367" y1="7.2943" x2="24.525" y2="8.3953">
			<stop  offset="0.2" style="stop-color:#00A9CD"/>
			<stop  offset="0.8" style="stop-color:#194AAD"/>
		</linearGradient>
		<path class="st1" d="M18.75,8.32H5.25c-0.28,0-0.5-0.22-0.5-0.5c0-0.28,0.22-0.5,0.5-0.5h13.5c0.28,0,0.5,0.22,0.5,0.5
			C19.25,8.09,19.03,8.32,18.75,8.32z"/>
	</g>
	<g>
		<linearGradient id="SVGID_3_" gradientUnits="userSpaceOnUse" x1="0.4008" y1="12.4128" x2="24.2891" y2="13.5139">
			<stop  offset="0.2" style="stop-color:#00A9CD"/>
			<stop  offset="0.8" style="stop-color:#194AAD"/>
		</linearGradient>
		<path class="st2" d="M15.95,13.45h-7.9c-0.28,0-0.5-0.22-0.5-0.5s0.22-0.5,0.5-0.5h7.9c0.28,0,0.5,0.22,0.5,0.5
			S16.23,13.45,15.95,13.45z"/>
	</g>
</g>
</svg>
