<?xml version="1.0" encoding="utf-8"?>
<!-- Generator: Adobe Illustrator 23.0.1, SVG Export Plug-In . SVG Version: 6.00 Build 0)  -->
<svg version="1.1" id="Layer_1" xmlns="http://www.w3.org/2000/svg" xmlns:xlink="http://www.w3.org/1999/xlink" x="0px" y="0px"
	 viewBox="0 0 24 24" style="enable-background:new 0 0 24 24;" xml:space="preserve">
<style type="text/css">
	.st0{fill:url(#SVGID_1_);}
	.st1{fill:url(#SVGID_2_);}
	.st2{fill:url(#SVGID_3_);}
</style>
<g>
	<linearGradient id="SVGID_1_" gradientUnits="userSpaceOnUse" x1="0.1079" y1="12.2246" x2="23.9613" y2="11.7794">
		<stop  offset="0.2" style="stop-color:#00A9CD"/>
		<stop  offset="0.8" style="stop-color:#194AAD"/>
	</linearGradient>
	<path class="st0" d="M15.2,14.7c0.1-1.3-0.5-2-1.4-2.5v-4c0.4,0.1,0.8,0.2,1.1,0.4c0.3,0.1,0.5,0,0.6-0.3c0.1-0.3,0-0.5-0.3-0.6
		c-0.2-0.1-0.8-0.3-1.4-0.5V6c0-0.3-0.2-0.5-0.5-0.5S12.8,5.7,12.8,6v1c-0.5-0.1-0.9-0.1-1.4,0V6c0-0.3-0.2-0.5-0.5-0.5
		S10.4,5.7,10.4,6v1.3c-0.1,0.1-0.3,0.2-0.4,0.3C9.3,8.4,9,9.4,9.2,10.3c0.1,0.5,0.4,1.1,1.3,1.6v4c-0.4-0.1-0.9-0.3-1.3-0.4
		c-0.3-0.1-0.5,0-0.6,0.3s0,0.5,0.3,0.6c0.6,0.2,1.2,0.4,1.7,0.5V18c0,0.3,0.2,0.5,0.5,0.5s0.5-0.2,0.5-0.5v-1c0.2,0,0.5,0,0.7,0
		c0.2,0,0.5,0,0.7-0.1v1c0,0.3,0.2,0.5,0.5,0.5s0.5-0.2,0.5-0.5v-1.3c0.1,0,0.1-0.1,0.2-0.1C14.7,16.2,15.1,15.6,15.2,14.7z M12.8,8
		v3.8c-0.2-0.1-0.4-0.2-0.6-0.2c-0.3-0.1-0.5-0.2-0.8-0.3V7.9C11.8,7.9,12.3,7.9,12.8,8z M10.1,10.1c-0.1-0.4,0-0.9,0.3-1.3v1.9
		C10.3,10.5,10.2,10.3,10.1,10.1z M11.4,16.1v-3.8c0.1,0.1,0.3,0.1,0.4,0.2c0.4,0.1,0.7,0.2,0.9,0.4V16C12.4,16.1,12,16.1,11.4,16.1
		z M13.8,13.4c0.3,0.3,0.4,0.6,0.4,1.1c0,0.4-0.2,0.7-0.4,0.9V13.4z"/>
	<linearGradient id="SVGID_2_" gradientUnits="userSpaceOnUse" x1="9.517059e-02" y1="11.5419" x2="23.9485" y2="11.0966">
		<stop  offset="0.2" style="stop-color:#00A9CD"/>
		<stop  offset="0.8" style="stop-color:#194AAD"/>
	</linearGradient>
	<path class="st1" d="M12.1,21.7c-5.4,0-9.8-4.4-9.8-9.8C2.4,8,4.7,4.5,8.3,3L7.4,5.6C7.3,5.9,7.4,6.2,7.7,6.3c0.1,0,0.1,0,0.2,0
		C8,6.3,8.2,6.2,8.3,6l1.2-3.6c0,0,0,0,0-0.1c0,0,0,0,0-0.1c0,0,0,0,0,0c0,0,0-0.1,0-0.1c0,0,0,0,0-0.1c0,0,0,0,0,0c0,0,0,0,0,0
		c0,0,0-0.1,0-0.1c0,0,0,0,0-0.1c0,0,0,0,0,0c0,0,0,0-0.1-0.1c0,0,0,0-0.1,0c0,0,0,0,0,0L5.8,0.1C5.5,0,5.2,0.1,5.1,0.3
		C5,0.6,5.1,0.9,5.3,1l2.4,1.1C3.9,3.8,1.4,7.6,1.4,12c0,5.9,4.8,10.8,10.8,10.8c0.3,0,0.5-0.2,0.5-0.5S12.4,21.7,12.1,21.7z"/>
	<linearGradient id="SVGID_3_" gradientUnits="userSpaceOnUse" x1="0.1206" y1="12.9018" x2="23.9739" y2="12.4565">
		<stop  offset="0.2" style="stop-color:#00A9CD"/>
		<stop  offset="0.8" style="stop-color:#194AAD"/>
	</linearGradient>
	<path class="st2" d="M22.6,12c0-5.9-4.8-10.8-10.8-10.8c-0.3,0-0.5,0.2-0.5,0.5s0.2,0.5,0.5,0.5c5.4,0,9.8,4.4,9.8,9.8
		c0,3.9-2.3,7.4-5.9,8.9l0.9-2.6c0.1-0.3-0.1-0.5-0.3-0.6c-0.3-0.1-0.5,0.1-0.6,0.3l-1.2,3.6c0,0,0,0,0,0.1c0,0,0,0,0,0.1
		c0,0,0,0,0,0c0,0,0,0.1,0,0.1c0,0,0,0,0,0.1c0,0,0,0,0,0c0,0,0,0,0,0c0,0,0,0.1,0,0.1c0,0,0,0.1,0.1,0.1c0,0,0,0,0,0c0,0,0,0,0,0
		c0,0,0,0,0.1,0l3.5,1.6c0.1,0,0.1,0,0.2,0c0.2,0,0.4-0.1,0.5-0.3c0.1-0.3,0-0.5-0.2-0.7l-2.4-1.1C20.1,20.2,22.6,16.4,22.6,12z"/>
</g>
</svg>
