<?xml version="1.0" encoding="utf-8"?>
<!-- Generator: Adobe Illustrator 23.0.1, SVG Export Plug-In . SVG Version: 6.00 Build 0)  -->
<svg version="1.1" id="Layer_1" xmlns="http://www.w3.org/2000/svg" xmlns:xlink="http://www.w3.org/1999/xlink" x="0px" y="0px"
	 viewBox="0 0 24 24" style="enable-background:new 0 0 24 24;" xml:space="preserve">
<style type="text/css">
	.st0{fill:#fff;}
</style>
<g>
	<path class="st0" d="M21.5,0.5h-19C1.1,0.5,0,1.7,0,3v12.2c0,1.4,1.1,2.5,2.5,2.5H10c0.3,0,0.5-0.2,0.5-0.5s-0.2-0.5-0.5-0.5H2.5
		C1.7,16.7,1,16,1,15.2V3c0-0.8,0.7-1.5,1.5-1.5h18.9C22.3,1.5,23,2.2,23,3v12.2c0,0.8-0.7,1.5-1.5,1.5c-0.3,0-0.5,0.2-0.5,0.5
		s0.2,0.5,0.5,0.5c1.4,0,2.5-1.1,2.5-2.5V3C24,1.7,22.9,0.5,21.5,0.5z"/>
	<path class="st0" d="M7,5.7H4.3C4,5.7,3.8,5.9,3.8,6.2S4,6.7,4.3,6.7H7c0.3,0,0.5-0.2,0.5-0.5S7.3,5.7,7,5.7z"/>
	<path class="st0" d="M7,8.6H4.3C4,8.6,3.8,8.9,3.8,9.2S4,9.7,4.3,9.7H7c0.3,0,0.5-0.2,0.5-0.5S7.3,8.6,7,8.6z"/>
	<path class="st0" d="M7,11.6H4.3c-0.3,0-0.5,0.2-0.5,0.5s0.2,0.5,0.5,0.5H7c0.3,0,0.5-0.2,0.5-0.5S7.3,11.6,7,11.6z"/>
	<path class="st0" d="M9.5,6.7h10.2c0.3,0,0.5-0.2,0.5-0.5S20,5.7,19.7,5.7H9.5C9.2,5.7,9,5.9,9,6.2S9.2,6.7,9.5,6.7z"/>
	<path class="st0" d="M9.5,9.7h10.2c0.3,0,0.5-0.2,0.5-0.5S20,8.6,19.7,8.6H9.5C9.2,8.6,9,8.9,9,9.2S9.2,9.7,9.5,9.7z"/>
	<path class="st0" d="M19.6,18.4c-0.1-0.1-0.2-0.1-0.4-0.1c0.9-1.1,1.2-2.6,0.9-3.9c0-0.1,0-0.1,0-0.1c-0.2-0.7-0.6-1.5-1.2-2
		c-1.6-1.6-4-1.7-5.8-0.5H9.5C9.2,11.8,9,12,9,12.3s0.2,0.5,0.5,0.5h2.6c-1.4,1.8-1.3,4.3,0.4,6c0.9,0.9,2.1,1.3,3.2,1.3
		s2.2-0.4,3-1.2c0,0.1,0.1,0.2,0.1,0.3l4.2,4.2c0.1,0.1,0.2,0.1,0.4,0.1s0.3,0,0.4-0.1c0.2-0.2,0.2-0.5,0-0.7L19.6,18.4z M18.2,12.9
		c0.3,0.3,0.5,0.7,0.7,1h-6.4c0.2-0.4,0.4-0.7,0.7-1c0.7-0.7,1.6-1,2.5-1C16.6,11.9,17.5,12.2,18.2,12.9z M13.2,17.9
		c-0.8-0.8-1.1-1.9-1-3h7c0.1,1.1-0.2,2.2-1,3C16.9,19.3,14.6,19.3,13.2,17.9z"/>
</g>
</svg>
