<?xml version="1.0" encoding="utf-8"?>
<!-- Generator: Adobe Illustrator 22.1.0, SVG Export Plug-In . SVG Version: 6.00 Build 0)  -->
<svg version="1.1" id="Layer_1" xmlns="http://www.w3.org/2000/svg" xmlns:xlink="http://www.w3.org/1999/xlink" x="0px" y="0px"
	 viewBox="0 0 24 24" style="enable-background:new 0 0 24 24;" xml:space="preserve">
<style type="text/css">
	.st0{fill:url(#SVGID_1_);}
	.st1{fill:url(#SVGID_2_);}
	.st2{fill:url(#SVGID_3_);}
	.st3{fill:url(#SVGID_4_);}
	.st4{fill:url(#SVGID_5_);}
	.st5{fill:url(#SVGID_6_);}
	.st6{fill:url(#SVGID_7_);}
	.st7{fill:url(#SVGID_8_);}
</style>
<g>
	<linearGradient id="SVGID_1_" gradientUnits="userSpaceOnUse" x1="0.8125" y1="12" x2="23.4635" y2="12">
		<stop  offset="0.2" style="stop-color:#00A9CD"/>
		<stop  offset="0.8" style="stop-color:#194AAD"/>
	</linearGradient>
	<path class="st0" d="M13.6,0H3.1C1.7,0,0.6,1.1,0.6,2.5v18.9c0,1.4,1.1,2.5,2.5,2.5h10.5c1.4,0,2.5-1.1,2.5-2.5V2.5
		C16.1,1.1,15,0,13.6,0z M15.1,21.5c0,0.8-0.7,1.5-1.5,1.5H3.1c-0.8,0-1.5-0.7-1.5-1.5V2.5C1.6,1.7,2.2,1,3.1,1h10.5
		c0.8,0,1.5,0.7,1.5,1.5V21.5z"/>
	<linearGradient id="SVGID_2_" gradientUnits="userSpaceOnUse" x1="0.8125" y1="5.6856" x2="23.4635" y2="5.6856">
		<stop  offset="0.2" style="stop-color:#00A9CD"/>
		<stop  offset="0.8" style="stop-color:#194AAD"/>
	</linearGradient>
	<path class="st1" d="M5.1,5.2H3.3C3,5.2,2.8,5.4,2.8,5.7C2.8,6,3,6.2,3.3,6.2h1.8c0.3,0,0.5-0.2,0.5-0.5C5.6,5.4,5.4,5.2,5.1,5.2z"
		/>
	<linearGradient id="SVGID_3_" gradientUnits="userSpaceOnUse" x1="0.8125" y1="8.804" x2="23.4635" y2="8.804">
		<stop  offset="0.2" style="stop-color:#00A9CD"/>
		<stop  offset="0.8" style="stop-color:#194AAD"/>
	</linearGradient>
	<path class="st2" d="M5.1,8.3H3.3C3,8.3,2.8,8.5,2.8,8.8S3,9.3,3.3,9.3h1.8c0.3,0,0.5-0.2,0.5-0.5S5.4,8.3,5.1,8.3z"/>
	<linearGradient id="SVGID_4_" gradientUnits="userSpaceOnUse" x1="0.8125" y1="11.9224" x2="23.4635" y2="11.9224">
		<stop  offset="0.2" style="stop-color:#00A9CD"/>
		<stop  offset="0.8" style="stop-color:#194AAD"/>
	</linearGradient>
	<path class="st3" d="M5.1,11.4H3.3c-0.3,0-0.5,0.2-0.5,0.5c0,0.3,0.2,0.5,0.5,0.5h1.8c0.3,0,0.5-0.2,0.5-0.5
		C5.6,11.6,5.4,11.4,5.1,11.4z"/>
	<linearGradient id="SVGID_5_" gradientUnits="userSpaceOnUse" x1="0.8125" y1="5.6856" x2="23.4635" y2="5.6856">
		<stop  offset="0.2" style="stop-color:#00A9CD"/>
		<stop  offset="0.8" style="stop-color:#194AAD"/>
	</linearGradient>
	<path class="st4" d="M13.4,5.2H6.7c-0.3,0-0.5,0.2-0.5,0.5c0,0.3,0.2,0.5,0.5,0.5h6.6c0.3,0,0.5-0.2,0.5-0.5
		C13.9,5.4,13.6,5.2,13.4,5.2z"/>
	<linearGradient id="SVGID_6_" gradientUnits="userSpaceOnUse" x1="0.8125" y1="8.804" x2="23.4635" y2="8.804">
		<stop  offset="0.2" style="stop-color:#00A9CD"/>
		<stop  offset="0.8" style="stop-color:#194AAD"/>
	</linearGradient>
	<path class="st5" d="M13.4,8.3H6.7c-0.3,0-0.5,0.2-0.5,0.5s0.2,0.5,0.5,0.5h6.6c0.3,0,0.5-0.2,0.5-0.5S13.6,8.3,13.4,8.3z"/>
	<linearGradient id="SVGID_7_" gradientUnits="userSpaceOnUse" x1="0.8125" y1="11.9224" x2="23.4635" y2="11.9224">
		<stop  offset="0.2" style="stop-color:#00A9CD"/>
		<stop  offset="0.8" style="stop-color:#194AAD"/>
	</linearGradient>
	<path class="st6" d="M13.4,11.4H6.7c-0.3,0-0.5,0.2-0.5,0.5c0,0.3,0.2,0.5,0.5,0.5h6.6c0.3,0,0.5-0.2,0.5-0.5
		C13.9,11.6,13.6,11.4,13.4,11.4z"/>
	<linearGradient id="SVGID_8_" gradientUnits="userSpaceOnUse" x1="0.8125" y1="12.6349" x2="23.4635" y2="12.6349">
		<stop  offset="0.2" style="stop-color:#00A9CD"/>
		<stop  offset="0.8" style="stop-color:#194AAD"/>
	</linearGradient>
	<path class="st7" d="M20.9,1.3h-0.5c-1.4,0-2.5,1.1-2.5,2.5v2.6v11.2c0,0.1,0,0.1,0,0.1c0,0,0,0,0,0l2.3,5.9
		c0.1,0.2,0.3,0.3,0.5,0.3c0.2,0,0.4-0.1,0.5-0.3l2.3-5.9c0,0,0,0,0,0c0,0,0-0.1,0-0.1V6.4V3.8C23.4,2.4,22.3,1.3,20.9,1.3z
		 M22.4,8.3h-3.6V6.9h3.6V8.3z M18.9,9.3h3.6V17h-3.6V9.3z M18.9,3.8c0-0.8,0.7-1.5,1.5-1.5h0.5c0.8,0,1.5,0.7,1.5,1.5v2h-3.6V3.8z
		 M20.7,22.1l-1.6-4h3.1L20.7,22.1z"/>
</g>
</svg>
