<?xml version="1.0" encoding="utf-8"?>
<!-- Generator: Adobe Illustrator 23.0.1, SVG Export Plug-In . SVG Version: 6.00 Build 0)  -->
<svg version="1.1" id="Layer_1" xmlns="http://www.w3.org/2000/svg" xmlns:xlink="http://www.w3.org/1999/xlink" x="0px" y="0px"
	 viewBox="0 0 24 24" style="enable-background:new 0 0 24 24;" xml:space="preserve">
<style type="text/css">
	.st0{fill:url(#SVGID_1_);}
</style>
<linearGradient id="SVGID_1_" gradientUnits="userSpaceOnUse" x1="6.592143e-02" y1="12" x2="23.5273" y2="12">
	<stop  offset="0.2" style="stop-color:#00A9CD"/>
	<stop  offset="0.8" style="stop-color:#194AAD"/>
</linearGradient>
<path class="st0" d="M23.9,3.3c-0.2-0.7-0.7-1.3-1.3-1.7c-0.6-0.4-1.4-0.5-2.1-0.3c-0.7,0.2-1.3,0.7-1.7,1.3
	c-0.4,0.7-0.5,1.6-0.2,2.3L12,8.8L5.4,4.9c0.4-1.2,0-2.7-1.2-3.3c-1.3-0.8-3-0.3-3.8,1C0,3.3-0.1,4,0.1,4.7S0.7,6,1.4,6.4
	c0.4,0.2,0.9,0.4,1.4,0.4c0.2,0,0.5,0,0.7-0.1c0.6-0.1,1-0.5,1.4-0.9l6.6,3.8v7.7c-0.7,0.2-1.3,0.6-1.7,1.3
	c-0.4,0.6-0.5,1.4-0.3,2.1c0.2,0.7,0.7,1.3,1.3,1.7c0.4,0.3,0.9,0.4,1.4,0.4c1,0,1.9-0.5,2.4-1.4c0.8-1.3,0.3-3-1-3.8
	c-0.3-0.2-0.7-0.3-1.1-0.4V9.6l6.6-3.8c0.2,0.2,0.4,0.5,0.7,0.6c0.4,0.3,0.9,0.4,1.4,0.4c1,0,1.9-0.5,2.4-1.4
	C24,4.8,24.1,4,23.9,3.3z M1.9,5.5C1.5,5.3,1.2,4.9,1.1,4.5S1,3.5,1.2,3.1c0.3-0.6,0.9-0.9,1.5-0.9c0.3,0,0.6,0.1,0.9,0.2
	C4.5,2.9,4.8,4,4.3,4.9C3.8,5.7,2.7,6,1.9,5.5z M13.7,20.9c-0.5,0.9-1.6,1.1-2.4,0.7c-0.4-0.2-0.7-0.6-0.8-1.1
	c-0.1-0.5-0.1-0.9,0.2-1.4c0.2-0.4,0.6-0.7,1.1-0.8c0.2,0,0.3-0.1,0.5-0.1c0.3,0,0.6,0.1,0.9,0.2C13.9,18.9,14.2,20,13.7,20.9z
	 M22.8,4.9c-0.5,0.9-1.6,1.1-2.4,0.7c-0.3-0.2-0.5-0.4-0.6-0.6c0,0,0,0,0,0c0,0,0,0,0,0c-0.3-0.5-0.3-1.2,0-1.7
	c0.2-0.4,0.6-0.7,1.1-0.8c0.2,0,0.3-0.1,0.5-0.1c0.3,0,0.6,0.1,0.9,0.2c0.4,0.2,0.7,0.6,0.8,1.1S23,4.5,22.8,4.9z"/>
</svg>
