<?xml version="1.0" encoding="utf-8"?>
<!-- Generator: Adobe Illustrator 22.1.0, SVG Export Plug-In . SVG Version: 6.00 Build 0)  -->
<svg version="1.1" id="Layer_1" xmlns="http://www.w3.org/2000/svg" xmlns:xlink="http://www.w3.org/1999/xlink" x="0px" y="0px"
	 viewBox="0 0 24 24" style="enable-background:new 0 0 24 24;" xml:space="preserve">
<style type="text/css">
	.st0{fill:#50E3C2;}
	.st1{fill:#E0BE19;}
	.st2{fill:#E18915;}
</style>
<g>
	<path class="st0" d="M22.5,14l-3.6-4.5c0.3-0.3,0.4-0.7,0.4-1.1V8.2c0-0.4-0.1-0.7-0.4-1c0.3-0.5,0.4-1.2,0.5-1.8
		c0.1-1.2-1-1.8-1.6-1.9c0,0-0.1,0-0.1,0h-5.7c0,0-0.1,0-0.1,0c-0.6,0.1-1.8,0.7-1.6,1.9c0.1,0.9,0.3,2.3,1.3,2.3H12h5.8
		c0.3,0,0.5,0.2,0.5,0.5v0.2c0,0.2-0.1,0.3-0.2,0.4c0,0,0,0,0,0h-4.8c-0.3,0-0.5,0.2-0.5,0.5c0,0,0,0,0,0.1c0,0,0,0,0,0.1
		c0,0.3,0.2,0.5,0.5,0.5h4.4c0.1,0,0.1,0,0.2,0l3.8,4.7c0,0,1,1.2,0.5,2.4L22,17.8c-0.3,0.8-0.3,0.8-0.6,1.2
		c-0.3,0.4-1.6,0.5-2.4,0.5h-0.5h-7.3h-0.4c-0.8,0-2.1-0.2-2.4-0.5c-0.1-0.1-0.2-0.2-0.3-0.3C8,18.6,8,18.6,7.9,18.3
		C7.8,18,7.5,17.9,7.2,18c-0.3,0.1-0.4,0.4-0.3,0.6c0.2,0.5,0.3,0.6,0.5,0.8c0.1,0.1,0.1,0.1,0.2,0.2c0.7,0.8,2.7,0.9,3.1,0.9h0.5
		h7.3H19c0.4,0,2.4,0,3.1-0.9c0.5-0.5,0.5-0.7,0.8-1.5l0.3-0.7C23.9,15.7,22.6,14.1,22.5,14z M12.1,4.5h5.6c0.2,0,0.9,0.3,0.8,0.8
		c-0.1,1.1-0.3,1.4-0.4,1.4l-0.3,0c0,0,0,0,0,0H12c0,0,0,0,0,0l-0.3,0c-0.1,0-0.2-0.3-0.4-1.4C11.3,4.7,12,4.5,12.1,4.5z"/>
	<path class="st0" d="M13.8,10.5c-0.3,0-0.5,0.2-0.5,0.5v0.7c-0.1,0-0.1,0.1-0.2,0.1c-0.5,0.6-0.7,1.3-0.6,1.9
		c0.1,0.3,0.3,0.7,0.8,1v2.1c-0.2-0.1-0.4-0.1-0.6-0.2c-0.3-0.1-0.5,0-0.6,0.3c-0.1,0.3,0,0.5,0.3,0.6c0.3,0.1,0.6,0.2,0.9,0.3v0.6
		c0,0.3,0.2,0.5,0.5,0.5s0.5-0.2,0.5-0.5v-0.4c0.1,0,0.2,0,0.3,0c0.1,0,0.1,0,0.2,0v0.4c0,0.3,0.2,0.5,0.5,0.5s0.5-0.2,0.5-0.5v-0.7
		c0,0,0,0,0,0c0.5-0.3,0.8-0.8,0.8-1.4c0.1-0.8-0.3-1.3-0.9-1.7v-2.1c0.1,0,0.3,0.1,0.4,0.1c0.3,0.1,0.5,0,0.6-0.3
		c0.1-0.3,0-0.5-0.3-0.6c-0.1,0-0.4-0.2-0.8-0.3V11c0-0.3-0.2-0.5-0.5-0.5s-0.5,0.2-0.5,0.5v0.4c-0.2,0-0.3,0-0.5,0V11
		C14.3,10.7,14.1,10.5,13.8,10.5z M14.3,17.1v-1.9c0,0,0,0,0,0c0.2,0.1,0.3,0.1,0.5,0.2v1.7C14.7,17.1,14.5,17.1,14.3,17.1z
		 M14.8,12.4v1.9c0,0-0.1,0-0.1,0c-0.1,0-0.2-0.1-0.4-0.1v-1.7C14.5,12.4,14.6,12.4,14.8,12.4z"/>
	<path class="st1" d="M1.1,10.8h9.4l-1.7,2c-0.2,0.2-0.2,0.5,0,0.7c0.1,0.1,0.2,0.1,0.3,0.1c0.1,0,0.3-0.1,0.4-0.2l2.5-2.8
		c0,0,0,0,0-0.1l0-0.1c0,0,0,0,0-0.1c0,0,0-0.1,0-0.1c0,0,0-0.1,0-0.1c0,0,0-0.1,0-0.1c0,0,0-0.1,0-0.1c0,0,0-0.1,0-0.1
		c0,0,0-0.1-0.1-0.1c0,0,0,0,0-0.1L9.5,7C9.3,6.8,9,6.8,8.8,7c-0.2,0.2-0.2,0.5,0,0.7l1.9,2.1H1.1c-0.3,0-0.5,0.2-0.5,0.5
		S0.8,10.8,1.1,10.8z"/>
	<path class="st2" d="M8.6,15C8.6,14.9,8.7,14.9,8.6,15l0.1-0.1c0,0,0,0,0-0.1c0,0,0-0.1,0-0.1c0,0,0-0.1,0-0.1c0,0,0-0.1,0-0.1
		c0,0,0-0.1,0-0.1c0,0,0-0.1,0-0.1c0,0,0-0.1-0.1-0.1c0,0,0,0,0-0.1l-2.6-2.9c-0.2-0.2-0.5-0.2-0.7,0c-0.2,0.2-0.2,0.5,0,0.7
		l1.9,2.1H1.1c-0.3,0-0.5,0.2-0.5,0.5s0.2,0.5,0.5,0.5h6.1l-1.7,2c-0.2,0.2-0.2,0.5,0,0.7c0.1,0.1,0.2,0.1,0.3,0.1
		c0.1,0,0.3-0.1,0.4-0.2L8.6,15z"/>
</g>
</svg>
