<?xml version="1.0" encoding="utf-8"?>
<!-- Generator: Adobe Illustrator 23.0.1, SVG Export Plug-In . SVG Version: 6.00 Build 0)  -->
<svg version="1.1" id="Layer_1" xmlns="http://www.w3.org/2000/svg" xmlns:xlink="http://www.w3.org/1999/xlink" x="0px" y="0px"
	 viewBox="0 0 24 24" style="enable-background:new 0 0 24 24;" xml:space="preserve">
<style type="text/css">
	.st0{fill:url(#SVGID_1_);}
	.st1{fill:url(#SVGID_2_);}
	.st2{fill:url(#SVGID_3_);}
	.st3{fill:url(#SVGID_4_);}
</style>
<g>
	<linearGradient id="SVGID_1_" gradientUnits="userSpaceOnUse" x1="8.2167" y1="8.3357" x2="16.3132" y2="8.189">
		<stop  offset="0.2" style="stop-color:#00A9CD"/>
		<stop  offset="0.8" style="stop-color:#194AAD"/>
	</linearGradient>
	<path class="st0" d="M11.6,2v14c0,0.3,0.2,0.5,0.5,0.5s0.5-0.2,0.5-0.5V2l2.9,3.1l0.7-0.7L12.1,0L8,4.4l0.7,0.7L11.6,2z"/>
	<linearGradient id="SVGID_2_" gradientUnits="userSpaceOnUse" x1="0.318" y1="19.0275" x2="24.0769" y2="18.5972">
		<stop  offset="0.2" style="stop-color:#00A9CD"/>
		<stop  offset="0.8" style="stop-color:#194AAD"/>
	</linearGradient>
	<path class="st1" d="M0.5,19.3h23c0.3,0,0.5-0.2,0.5-0.5c0-0.3-0.2-0.5-0.5-0.5h-23c-0.3,0-0.5,0.2-0.5,0.5
		C0,19.1,0.2,19.3,0.5,19.3z"/>
	<linearGradient id="SVGID_3_" gradientUnits="userSpaceOnUse" x1="0.318" y1="21.3699" x2="24.0769" y2="20.9396">
		<stop  offset="0.2" style="stop-color:#00A9CD"/>
		<stop  offset="0.8" style="stop-color:#194AAD"/>
	</linearGradient>
	<path class="st2" d="M23.5,20.7h-23c-0.3,0-0.5,0.2-0.5,0.5c0,0.3,0.2,0.5,0.5,0.5h23c0.3,0,0.5-0.2,0.5-0.5
		C24,20.9,23.8,20.7,23.5,20.7z"/>
	<linearGradient id="SVGID_4_" gradientUnits="userSpaceOnUse" x1="0.318" y1="23.7123" x2="24.0769" y2="23.282">
		<stop  offset="0.2" style="stop-color:#00A9CD"/>
		<stop  offset="0.8" style="stop-color:#194AAD"/>
	</linearGradient>
	<path class="st3" d="M23.5,23h-23C0.2,23,0,23.2,0,23.5C0,23.8,0.2,24,0.5,24h23c0.3,0,0.5-0.2,0.5-0.5C24,23.2,23.8,23,23.5,23z"
		/>
</g>
</svg>
