<?xml version="1.0" encoding="UTF-8"?>
<svg width="20px" height="6px" viewBox="0 0 20 6" version="1.1" xmlns="http://www.w3.org/2000/svg" xmlns:xlink="http://www.w3.org/1999/xlink">
    <!-- Generator: Sketch 49.3 (51167) - http://www.bohemiancoding.com/sketch -->
    <title>disputes-active</title>
    <desc>Created with Sketch.</desc>
    <defs></defs>
    <g id="Page-1" stroke="none" stroke-width="1" fill="none" fill-rule="evenodd">
        <g id="Artboard-3" transform="translate(-174.000000, -89.000000)" fill="#FFFFFF">
            <g id="disputes-active" transform="translate(174.000000, 88.000000)">
                <g id="Group-24" fill-rule="nonzero">
                    <path d="M5.96356898,3.87089268 L5.78636631,3.98658135 L5.95899189,4.1071629 L5.96356898,3.87089268 Z M6.34986601,6.81980346 L3.427355,4.77838574 C2.84661023,4.37272682 2.860156,3.50849417 3.45332878,3.12123494 L6.45332878,1.16265266 C7.12581787,0.723610915 8.0153677,1.21640083 7.99981241,2.01936861 L7.92232342,6.01936861 C7.90683312,6.81898156 7.00551447,7.27778372 6.34986601,6.81980346 Z" id="Triangle-Copy-10" transform="translate(5.500006, 3.999933) rotate(-180.000000) translate(-5.500006, -3.999933) "></path>
                    <path d="M1,5 C0.44771525,5 0,4.55228475 0,4 C0,3.44771525 0.44771525,3 1,3 L3,3 C3.55228475,3 4,3.44771525 4,4 C4,4.55228475 3.55228475,5 3,5 L1,5 Z" id="Line-157-Copy"></path>
                </g>
                <g id="Group-24" transform="translate(16.000000, 4.000000) rotate(-180.000000) translate(-16.000000, -4.000000) translate(12.000000, 0.000000)" fill-rule="nonzero">
                    <path d="M5.96356898,3.87089268 L5.78636631,3.98658135 L5.95899189,4.1071629 L5.96356898,3.87089268 Z M6.34986601,6.81980346 L3.427355,4.77838574 C2.84661023,4.37272682 2.860156,3.50849417 3.45332878,3.12123494 L6.45332878,1.16265266 C7.12581787,0.723610915 8.0153677,1.21640083 7.99981241,2.01936861 L7.92232342,6.01936861 C7.90683312,6.81898156 7.00551447,7.27778372 6.34986601,6.81980346 Z" id="Triangle-Copy-10" transform="translate(5.500006, 3.999933) rotate(-180.000000) translate(-5.500006, -3.999933) "></path>
                    <path d="M1,5 C0.44771525,5 0,4.55228475 0,4 C0,3.44771525 0.44771525,3 1,3 L3,3 C3.55228475,3 4,3.44771525 4,4 C4,4.55228475 3.55228475,5 3,5 L1,5 Z" id="Line-157-Copy"></path>
                </g>
                <circle id="Oval-10-Copy-2" cx="10" cy="4" r="1"></circle>
            </g>
        </g>
    </g>
</svg>