<?xml version="1.0" encoding="UTF-8"?>
<svg width="14px" height="14px" viewBox="0 0 14 14" version="1.1" xmlns="http://www.w3.org/2000/svg" xmlns:xlink="http://www.w3.org/1999/xlink">
    <!-- Generator: Sketch 49.3 (51167) - http://www.bohemiancoding.com/sketch -->
    <title>help-active</title>
    <desc>Created with Sketch.</desc>
    <defs></defs>
    <g id="Page-1" stroke="none" stroke-width="1" fill="none" fill-rule="evenodd">
        <g id="Artboard-3" transform="translate(-236.000000, -85.000000)" fill="#FFFFFF" fill-rule="nonzero">
            <g id="help-active" transform="translate(236.000000, 85.000000)">
                <path d="M7,14 C3.13400675,14 0,10.8659932 0,7 C0,3.13400675 3.13400675,0 7,0 C10.8659932,0 14,3.13400675 14,7 C14,10.8659932 10.8659932,14 7,14 Z M7,12 C9.76142375,12 12,9.76142375 12,7 C12,4.23857625 9.76142375,2 7,2 C4.23857625,2 2,4.23857625 2,7 C2,9.76142375 4.23857625,12 7,12 Z" id="Oval"></path>
                <path d="M7.88406667,7.90827595 L6.47104378,7.90827595 L6.39080527,6.21323753 L6.53022208,6.13877628 C7.24686845,5.75602197 7.52788193,5.48319335 7.52788193,5.16023587 C7.52788193,4.95963376 7.38903564,4.85682391 7.03999932,4.85682391 C6.65655608,4.85682391 6.31965721,4.98484548 6.06144274,5.21587948 L5.80647233,5.4440109 L5.15914409,3.9990818 L5.30316319,3.87765393 C5.76026562,3.49225384 6.4801056,3.25 7.20909742,3.25 C8.50009569,3.25 9.25,3.88862818 9.25,4.96039266 C9.25,5.82169252 8.79390668,6.47241508 7.93543656,6.95793287 L7.88406667,7.90827595 Z M8.09705843,9.83427635 C8.09705843,10.363677 7.76210864,10.683806 7.17835231,10.683806 C6.57337822,10.683806 6.2596462,10.406167 6.2596462,9.83427635 C6.2596462,9.29334632 6.59057492,8.97706046 7.17835231,8.97706046 C7.7661297,8.97706046 8.09705843,9.29334632 8.09705843,9.83427635 Z" id="?"></path>
            </g>
        </g>
    </g>
</svg>