<?xml version="1.0" encoding="UTF-8"?>
<svg width="12px" height="12px" viewBox="0 0 12 12" version="1.1" xmlns="http://www.w3.org/2000/svg" xmlns:xlink="http://www.w3.org/1999/xlink">
    <!-- Generator: Sketch 49.3 (51167) - http://www.bohemiancoding.com/sketch -->
    <title>settings</title>
    <desc>Created with Sketch.</desc>
    <defs></defs>
    <g id="Page-1" stroke="none" stroke-width="1" fill="none" fill-rule="evenodd">
        <g id="Artboard-3" transform="translate(-209.000000, -34.000000)" fill="#7C90AA">
            <g id="settings" transform="translate(210.000000, 34.000000)">
                <path d="M0,3 C-0.55228475,3 -1,2.55228475 -1,2 C-1,1.44771525 -0.55228475,1 0,1 L10,1 C10.5522847,1 11,1.44771525 11,2 C11,2.55228475 10.5522847,3 10,3 L0,3 Z" id="Line-157-Copy" fill-rule="nonzero"></path>
                <path d="M0,7 C-0.55228475,7 -1,6.55228475 -1,6 C-1,5.44771525 -0.55228475,5 0,5 L10,5 C10.5522847,5 11,5.44771525 11,6 C11,6.55228475 10.5522847,7 10,7 L0,7 Z" id="Line-157-Copy" fill-rule="nonzero"></path>
                <path d="M0,11 C-0.55228475,11 -1,10.5522847 -1,10 C-1,9.44771525 -0.55228475,9 0,9 L10,9 C10.5522847,9 11,9.44771525 11,10 C11,10.5522847 10.5522847,11 10,11 L0,11 Z" id="Line-157-Copy" fill-rule="nonzero"></path>
                <circle id="Oval-10-Copy-2" cx="8" cy="2" r="2"></circle>
                <circle id="Oval-10-Copy-3" cx="2" cy="6" r="2"></circle>
                <circle id="Oval-10-Copy-4" cx="5" cy="10" r="2"></circle>
            </g>
        </g>
    </g>
</svg>