<?xml version="1.0" encoding="UTF-8"?>
<svg width="12px" height="12px" viewBox="0 0 12 12" version="1.1" xmlns="http://www.w3.org/2000/svg" xmlns:xlink="http://www.w3.org/1999/xlink">
    <!-- Generator: Sketch 49.3 (51167) - http://www.bohemiancoding.com/sketch -->
    <title>settings-active</title>
    <desc>Created with Sketch.</desc>
    <defs></defs>
    <g id="Page-1" stroke="none" stroke-width="1" fill="none" fill-rule="evenodd">
        <g id="Artboard-3" transform="translate(-209.000000, -86.000000)" fill="#FFFFFF">
            <g id="settings-active" transform="translate(209.000000, 86.000000)">
                <path d="M1,3 C0.44771525,3 0,2.55228475 0,2 C0,1.44771525 0.44771525,1 1,1 L11,1 C11.5522847,1 12,1.44771525 12,2 C12,2.55228475 11.5522847,3 11,3 L1,3 Z" id="Line-157-Copy" fill-rule="nonzero"></path>
                <path d="M1,7 C0.44771525,7 0,6.55228475 0,6 C0,5.44771525 0.44771525,5 1,5 L11,5 C11.5522847,5 12,5.44771525 12,6 C12,6.55228475 11.5522847,7 11,7 L1,7 Z" id="Line-157-Copy" fill-rule="nonzero"></path>
                <path d="M1,11 C0.44771525,11 0,10.5522847 0,10 C0,9.44771525 0.44771525,9 1,9 L11,9 C11.5522847,9 12,9.44771525 12,10 C12,10.5522847 11.5522847,11 11,11 L1,11 Z" id="Line-157-Copy" fill-rule="nonzero"></path>
                <circle id="Oval-10-Copy-2" cx="9" cy="2" r="2"></circle>
                <circle id="Oval-10-Copy-3" cx="3" cy="6" r="2"></circle>
                <circle id="Oval-10-Copy-4" cx="6" cy="10" r="2"></circle>
            </g>
        </g>
    </g>
</svg>