<?xml version="1.0" encoding="UTF-8"?>
<svg width="14px" height="12px" viewBox="0 0 14 12" version="1.1" xmlns="http://www.w3.org/2000/svg" xmlns:xlink="http://www.w3.org/1999/xlink">
    <!-- Generator: Sketch 49.3 (51167) - http://www.bohemiancoding.com/sketch -->
    <title>transactions-active</title>
    <desc>Created with Sketch.</desc>
    <defs></defs>
    <g id="Page-1" stroke="none" stroke-width="1" fill="none" fill-rule="evenodd">
        <g id="Artboard-3" transform="translate(-109.000000, -86.000000)" fill="#FFFFFF" fill-rule="nonzero">
            <g id="transactions-active" transform="translate(109.000000, 85.000000)">
                <path d="M11.963569,3.87089268 L11.7863663,3.98658135 L11.9589919,4.1071629 L11.963569,3.87089268 Z M12.349866,6.81980346 L9.427355,4.77838574 C8.84661023,4.37272682 8.860156,3.50849417 9.45332878,3.12123494 L12.4533288,1.16265266 C13.1258179,0.723610915 14.0153677,1.21640083 13.9998124,2.01936861 L13.9223234,6.01936861 C13.9068331,6.81898156 13.0055145,7.27778372 12.349866,6.81980346 Z" id="Triangle-Copy-10" transform="translate(11.500006, 3.999933) rotate(-180.000000) translate(-11.500006, -3.999933) "></path>
                <path d="M2,5 C1.44771525,5 1,4.55228475 1,4 C1,3.44771525 1.44771525,3 2,3 L9,3 C9.55228475,3 10,3.44771525 10,4 C10,4.55228475 9.55228475,5 9,5 L2,5 Z" id="Line-157-Copy"></path>
                <path d="M2.96356898,9.87089268 L2.78636631,9.98658135 L2.95899189,10.1071629 L2.96356898,9.87089268 Z M3.34986601,12.8198035 L0.427355004,10.7783857 C-0.153389767,10.3727268 -0.139843998,9.50849417 0.453328777,9.12123494 L3.45332878,7.16265266 C4.12581787,6.72361091 5.0153677,7.21640083 4.99981241,8.01936861 L4.92232342,12.0193686 C4.90683312,12.8189816 4.00551447,13.2777837 3.34986601,12.8198035 Z" id="Triangle-Copy-10" transform="translate(2.500006, 9.999933) rotate(-360.000000) translate(-2.500006, -9.999933) "></path>
                <path d="M5,11 C4.44771525,11 4,10.5522847 4,10 C4,9.44771525 4.44771525,9 5,9 L12,9 C12.5522847,9 13,9.44771525 13,10 C13,10.5522847 12.5522847,11 12,11 L5,11 Z" id="Line-157-Copy" transform="translate(8.500000, 10.000000) rotate(-360.000000) translate(-8.500000, -10.000000) "></path>
            </g>
        </g>
    </g>
</svg>