<?xml version="1.0" encoding="utf-8"?>
<!-- Generator: Adobe Illustrator 22.1.0, SVG Export Plug-In . SVG Version: 6.00 Build 0)  -->
<svg version="1.1" id="Layer_3" xmlns="http://www.w3.org/2000/svg" xmlns:xlink="http://www.w3.org/1999/xlink" x="0px" y="0px"
	 viewBox="0 0 24 24" style="enable-background:new 0 0 24 24;" xml:space="preserve">
<style type="text/css">
	.st0{fill:url(#SVGID_1_);}
	.st1{fill:url(#SVGID_2_);}
</style>
<g>
	<linearGradient id="SVGID_1_" gradientUnits="userSpaceOnUse" x1="0.1667" y1="12" x2="24.2366" y2="12">
		<stop  offset="0.2" style="stop-color:#00A9CD"/>
		<stop  offset="0.8" style="stop-color:#194AAD"/>
	</linearGradient>
	<path class="st0" d="M19.2,11.2c-1,0-1.9,0.1-2.7,0.4l-2.6-3.2c0.3-0.3,0.5-0.7,0.5-1.1V6.8c0-0.4-0.2-0.8-0.4-1
		c0.4-0.5,0.5-1.4,0.5-2c0.2-1.3-1.1-1.9-1.8-2.1l-6.5,0l-0.1,0C5.5,1.8,4.2,2.4,4.4,3.8c0.1,0.6,0.2,1.5,0.5,2
		C4.7,6,4.5,6.4,4.5,6.8v0.5c0,0.4,0.2,0.8,0.5,1.1L1,13.5c-0.1,0.1-1.5,1.8-0.8,3.8c0.1,0.4,0.2,0.7,0.3,0.9c0.4,1.1,0.6,1.6,1.3,2
		c0.8,0.4,1.1,0.5,2.3,0.5h9.3c0.7,0.9,2.4,1.6,4.5,1.6c2.7,0,4.8-1.1,4.8-2.5v-1.6c0.8-0.4,1.3-1,1.3-1.7v-2.9
		C24,12.3,21.9,11.2,19.2,11.2z M23,13.7c0,0.6-1.4,1.5-3.8,1.5c-2.3,0-3.8-0.9-3.8-1.5c0-0.6,1.4-1.5,3.8-1.5S23,13.1,23,13.7z
		 M19.8,18v-1.9c0.6,0,1.2-0.1,1.8-0.3v1.9C21.1,17.8,20.5,18,19.8,18z M18.8,18c-0.8,0-1.4-0.2-2-0.3v-1.9c0.6,0.2,1.3,0.3,2,0.3
		V18z M15.8,17.2c-0.3-0.2-0.4-0.4-0.4-0.6v-1.4c0.1,0.1,0.3,0.2,0.4,0.3V17.2z M15.2,17.9c-0.7-0.3-1.1-0.7-1.1-1
		c0-0.2,0.1-0.3,0.3-0.5v0.1C14.4,17.1,14.7,17.5,15.2,17.9z M17.4,19.4v1.9c-0.7,0-1.2-0.1-1.7-0.3v-1.9
		C16.2,19.3,16.8,19.4,17.4,19.4z M18.4,19.4c0.5,0,1-0.1,1.5-0.2v1.9c-0.4,0.1-1,0.2-1.5,0.2V19.4z M6.1,7.8
		c-0.3,0-0.5-0.2-0.5-0.5V6.8c0-0.3,0.2-0.5,0.5-0.5h6.8c0.3,0,0.5,0.2,0.5,0.5v0.5c0,0.3-0.2,0.5-0.5,0.5H6.1z M6.3,2.7h6.3
		c0.2,0.1,1,0.3,1,0.9c-0.2,1.5-0.4,1.6-0.5,1.6h-0.2H6.1H5.8c-0.1,0-0.3-0.2-0.5-1.6C5.3,3,6.1,2.7,6.3,2.7z M2.3,19.3
		c-0.4-0.2-0.5-0.5-0.8-1.5c-0.1-0.3-0.2-0.6-0.3-1c-0.5-1.4,0.6-2.8,0.6-2.8L6,8.8c0,0,0.1,0,0.1,0h6.8c0,0,0.1,0,0.1,0l2.6,3.3
		c-0.7,0.4-1.2,1-1.2,1.6v1.6c-0.8,0.4-1.3,1-1.3,1.7v2.8H4.2C3.1,19.7,3,19.7,2.3,19.3z M14.1,19.8v-1.4c0.2,0.1,0.4,0.2,0.6,0.3
		v1.8C14.3,20.3,14.1,20.1,14.1,19.8z M21.7,19.8c0,0.3-0.3,0.6-0.8,0.8v-1.8c0,0,0,0,0,0c0.3,0,0.5-0.1,0.7-0.2V19.8z M22.6,17.2
		v-1.7c0.2-0.1,0.3-0.2,0.4-0.3v1.4C23,16.8,22.8,17,22.6,17.2z"/>
	<linearGradient id="SVGID_2_" gradientUnits="userSpaceOnUse" x1="0.1667" y1="14.2704" x2="24.2366" y2="14.2704">
		<stop  offset="0.2" style="stop-color:#00A9CD"/>
		<stop  offset="0.8" style="stop-color:#194AAD"/>
	</linearGradient>
	<path class="st1" d="M10.8,14.3v-2.5c0.2,0.1,0.4,0.1,0.5,0.2l0.4-0.9c-0.1-0.1-0.5-0.2-0.9-0.3v-0.7h-1v0.5c-0.2,0-0.4,0-0.7,0
		v-0.5h-1v0.8C8.1,10.9,8,11,7.9,11c-0.6,0.6-0.8,1.4-0.7,2.1c0.1,0.3,0.3,0.8,0.9,1.1v2.5c-0.2-0.1-0.5-0.1-0.7-0.2l-0.4,0.9
		c0.4,0.2,0.7,0.3,1.1,0.4v0.7h1V18c0.1,0,0.2,0,0.3,0c0.1,0,0.2,0,0.3,0v0.5h1v-0.8c0,0,0.1,0,0.1,0c0.5-0.3,0.8-0.8,0.9-1.5
		C11.9,15.2,11.4,14.7,10.8,14.3z M9.8,11.6v2.3c-0.1,0-0.1-0.1-0.2-0.1c-0.1-0.1-0.3-0.1-0.4-0.2v-2.1C9.3,11.6,9.6,11.6,9.8,11.6z
		 M9.1,17v-2.3c0,0,0.1,0,0.1,0c0.2,0.1,0.4,0.1,0.6,0.2v2C9.6,17,9.4,17,9.1,17z"/>
</g>
</svg>
