<svg id="Layer_1" data-name="Layer 1" xmlns="http://www.w3.org/2000/svg" viewBox="0 0 16 16"><defs><style>.cls-1{fill:#fff;}</style></defs><title>buttonicons_deposit_16X16</title><path class="cls-1" d="M8.08,10.6a.5.5,0,0,1-.5-.5V.5a.51.51,0,0,1,1,0v9.6A.5.5,0,0,1,8.08,10.6Z"/><polygon class="cls-1" points="3.96 6.76 4.7 6.07 8.08 9.71 11.47 6.07 12.21 6.76 8.08 11.19 3.96 6.76"/><path class="cls-1" d="M14.1,16H1.89A1.9,1.9,0,0,1,0,14.1V7.46a.51.51,0,0,1,1,0V14.1a.89.89,0,0,0,.88.89H14.1A.89.89,0,0,0,15,14.1V7.46a.51.51,0,0,1,1,0V14.1A1.9,1.9,0,0,1,14.1,16Z"/></svg>