<?xml version="1.0" encoding="utf-8"?>
<!-- Generator: Adobe Illustrator 22.1.0, SVG Export Plug-In . SVG Version: 6.00 Build 0)  -->
<svg version="1.1" id="Layer_3" xmlns="http://www.w3.org/2000/svg" xmlns:xlink="http://www.w3.org/1999/xlink" x="0px" y="0px"
	 viewBox="0 0 24 24" style="enable-background:new 0 0 24 24;" xml:space="preserve">
<style type="text/css">
	.st0{fill:url(#SVGID_1_);}
	.st1{fill:url(#SVGID_2_);}
</style>
<g>
	<linearGradient id="SVGID_1_" gradientUnits="userSpaceOnUse" x1="1.9097" y1="11.5523" x2="22.499" y2="11.5523">
		<stop  offset="0.2" style="stop-color:#00A9CD"/>
		<stop  offset="0.8" style="stop-color:#194AAD"/>
	</linearGradient>
	<path class="st0" d="M12.2,21.9c-5.4,0-9.8-4.4-9.8-9.8c0-4,2.3-7.4,5.9-9L7.4,5.8C7.3,6.1,7.5,6.4,7.7,6.5c0.1,0,0.1,0,0.2,0
		c0.2,0,0.4-0.1,0.5-0.3l1.3-4.3L5.8,0.2c-0.2-0.1-0.5,0-0.6,0.3C5.1,0.7,5.2,1,5.4,1.2l2.4,1.1C4,4,1.4,7.8,1.4,12.2
		c0,6,4.8,10.8,10.8,10.8c0.3,0,0.5-0.2,0.5-0.5S12.5,21.9,12.2,21.9z"/>
	<linearGradient id="SVGID_2_" gradientUnits="userSpaceOnUse" x1="1.9097" y1="12.4477" x2="22.499" y2="12.4477">
		<stop  offset="0.2" style="stop-color:#00A9CD"/>
		<stop  offset="0.8" style="stop-color:#194AAD"/>
	</linearGradient>
	<path class="st1" d="M11.8,2.1c5.4,0,9.8,4.4,9.8,9.8c0,4-2.3,7.4-5.9,9l0.9-2.7c0.1-0.3-0.1-0.6-0.3-0.7c-0.1,0-0.1,0-0.2,0
		c-0.2,0-0.4,0.1-0.5,0.3l-1.3,4.3l3.9,1.7c0.2,0.1,0.5,0,0.6-0.3c0.1-0.2,0-0.5-0.2-0.7l-2.4-1.1c3.8-1.7,6.4-5.5,6.4-9.9
		c0-6-4.8-10.8-10.8-10.8c-0.3,0-0.5,0.2-0.5,0.5S11.5,2.1,11.8,2.1z"/>
</g>
</svg>
