<?xml version="1.0" encoding="utf-8"?>
<!-- Generator: Adobe Illustrator 22.1.0, SVG Export Plug-In . SVG Version: 6.00 Build 0)  -->
<svg version="1.1" xmlns="http://www.w3.org/2000/svg" xmlns:xlink="http://www.w3.org/1999/xlink" x="0px" y="0px"
	 viewBox="0 0 24 24" style="enable-background:new 0 0 24 24;" xml:space="preserve">
<style type="text/css">
	.st0{display:none;}
	.st1{display:inline;}
	.st2{fill:none;stroke:#000000;stroke-miterlimit:10;}
	.st3{fill:none;stroke:#000000;stroke-linecap:round;stroke-linejoin:round;stroke-miterlimit:10;}
	.st4{fill:none;stroke:#000000;stroke-linecap:round;stroke-linejoin:round;}
	.st5{fill:none;stroke:#333333;stroke-linecap:round;stroke-linejoin:round;stroke-miterlimit:10;}
	.st6{fill:none;stroke:#231F20;stroke-linecap:round;stroke-linejoin:round;stroke-miterlimit:10;}
	.st7{display:inline;fill:url(#SVGID_1_);}
	.st8{display:inline;fill:url(#SVGID_2_);}
	.st9{display:inline;fill:url(#SVGID_3_);}
	.st10{display:inline;fill:url(#SVGID_4_);}
	.st11{display:inline;fill:url(#SVGID_5_);}
	.st12{display:inline;fill:url(#SVGID_6_);}
	.st13{fill:#E18915;}
	.st14{fill:#E0BE19;}
	.st15{display:none;fill:#3BDFFF;}
	.st16{display:inline;fill:#50E3C2;}
	.st17{display:inline;fill:#E0BE19;}
	.st18{display:inline;fill:#E18915;}
	.st19{fill:#50E3C2;}
	.st20{fill:url(#SVGID_7_);}
	.st21{fill:url(#SVGID_8_);}
	.st22{fill:url(#SVGID_9_);}
	.st23{fill:url(#SVGID_10_);}
	.st24{fill:url(#SVGID_11_);}
	.st25{fill:url(#SVGID_12_);}
	.st26{fill:url(#SVGID_13_);}
	.st27{fill:url(#SVGID_14_);}
	.st28{fill:url(#SVGID_15_);}
	.st29{fill:url(#SVGID_16_);}
	.st30{fill:url(#SVGID_17_);}
	.st31{fill:url(#SVGID_18_);}
	.st32{display:none;fill:url(#SVGID_19_);}
	.st33{fill:url(#SVGID_20_);}
	.st34{fill:url(#SVGID_21_);}
	.st35{fill:url(#SVGID_22_);}
	.st36{fill:url(#SVGID_23_);}
	.st37{fill:url(#SVGID_24_);}
	.st38{fill:url(#SVGID_25_);}
	.st39{fill:url(#SVGID_26_);}
	.st40{fill:url(#SVGID_27_);}
	.st41{display:inline;fill:url(#SVGID_28_);}
</style>
<g id="Layer_2" class="st0">
	<g class="st1">
		<g>
			<path class="st2" d="M9.5,5.7c0,0-3,0-3.6,0S5,4.9,4.9,3.7C4.7,2.5,6.3,2.2,6.3,2.2h3.2h3.2c0,0,1.5,0.3,1.4,1.5
				c-0.1,1.2-0.3,2.1-1,2.1C12.5,5.7,9.5,5.7,9.5,5.7z"/>
			<line class="st2" x1="16.3" y1="12.2" x2="13.1" y2="8.2"/>
			<path class="st2" d="M17.6,13.8"/>
			<path class="st2" d="M5.8,8.2l-4.5,5.7c0,0-1.3,1.6-0.7,3.3s0.7,2.3,1.4,2.7s0.9,0.4,2.1,0.4s5.3,0,5.3,0s2.5,0,4.1,0"/>
			<path class="st2" d="M12.9,8.3H6.1c-0.6,0-1-0.5-1-1V6.8c0-0.6,0.5-1,1-1h6.8c0.6,0,1,0.5,1,1v0.5C13.9,7.8,13.5,8.3,12.9,8.3z"
				/>
		</g>
		<g>
			<line class="st2" x1="17.9" y1="18.9" x2="17.9" y2="21.8"/>
			<line class="st2" x1="15.2" y1="18.5" x2="15.2" y2="21.5"/>
			<line class="st2" x1="20.4" y1="18.5" x2="20.4" y2="21.4"/>
			<path class="st2" d="M13.6,17v2.9c0,1.1,1.9,2,4.3,2s4.3-0.9,4.3-2V18"/>
			<path class="st2" d="M20.8,18.4c-0.8,0.3-1.8,0.5-2.9,0.5c-2.4,0-4.3-0.9-4.3-2c0-0.5,0.5-1,1.3-1.4"/>
		</g>
		<g>
			<line class="st2" x1="19.3" y1="15.6" x2="19.3" y2="18.5"/>
			<line class="st2" x1="16.3" y1="15.1" x2="16.3" y2="18"/>
			<line class="st2" x1="22.1" y1="15.1" x2="22.1" y2="18.1"/>
			<ellipse class="st2" cx="19.2" cy="13.7" rx="4.3" ry="2"/>
			<path class="st2" d="M14.9,13.7v2.9c0,1.1,1.9,2,4.3,2s4.3-0.9,4.3-2v-2.9"/>
		</g>
		<line class="st2" x1="8.6" y1="10.1" x2="8.6" y2="18.5"/>
		<line class="st2" x1="10.3" y1="10.1" x2="10.3" y2="18.5"/>
		<path class="st2" d="M11.5,11.5c0,0-2.5-1-3.2-0.2c-0.7,0.8-0.9,2.1,0.4,2.6s2.7,0.7,2.6,2.1c-0.1,1.4-1.6,1.8-4,0.9"/>
	</g>
	<g class="st1">
		<g>
			<path class="st3" d="M12.1,22.2C6.5,22.2,1.9,17.6,1.9,12c0-4.6,3-8.5,7.2-9.8"/>
			<line class="st3" x1="5.6" y1="0.5" x2="9.1" y2="2.2"/>
			<line class="st3" x1="7.8" y1="5.8" x2="9.1" y2="2.2"/>
		</g>
		<g>
			<path class="st3" d="M11.9,1.8c5.7,0,10.3,4.6,10.3,10.3c0,4.6-3,8.5-7.2,9.8"/>
			<line class="st3" x1="18.4" y1="23.5" x2="14.9" y2="21.8"/>
			<line class="st3" x1="16.2" y1="18.2" x2="14.9" y2="21.8"/>
		</g>
	</g>
	<g class="st1">
		<path class="st3" d="M21.3,19.3H2.7c-1.1,0-2-0.9-2-2V6.7c0-1.1,0.9-2,2-2h18.6c1.1,0,2,0.9,2,2v10.7
			C23.3,18.4,22.4,19.3,21.3,19.3z"/>
		<rect x="3.5" y="7.2" class="st3" width="5.4" height="5.4"/>
		<circle class="st3" cx="18" cy="9.5" r="2.3"/>
		<line class="st3" x1="3.5" y1="16.9" x2="20.3" y2="16.9"/>
		<line class="st3" x1="3.5" y1="14.6" x2="12.5" y2="14.6"/>
	</g>
	<g class="st1">
		<g>
			<g>
				<path class="st4" d="M12,1.3C6.1,1.3,1.3,6.1,1.3,12S6.1,22.7,12,22.7S22.7,17.9,22.7,12c0-4.2-2.4-7.8-5.9-9.6"/>
				<g>
					<polygon points="21.7,0.7 21.9,1.7 17,2.7 18.4,7.5 17.5,7.7 15.8,2 					"/>
				</g>
			</g>
		</g>
	</g>
	<g class="st1">
		<g>
			<g>
				<path class="st2" d="M14.1,10.2c0,0,2.7,0,3.2,0s0.7-0.8,0.8-1.8C18.3,7.3,16.9,7,16.9,7h-2.8h-2.8c0,0-1.4,0.3-1.2,1.3
					s0.3,1.8,0.8,1.8S14.1,10.2,14.1,10.2z"/>
				<path class="st2" d="M6.8,17.3"/>
				<path class="st2" d="M11.2,12.4H17c0.6,0,1-0.5,1-1v-0.2c0-0.6-0.5-1-1-1h-5.8c-0.6,0-1,0.5-1,1v0.2
					C10.1,11.9,10.6,12.4,11.2,12.4z"/>
				<path class="st2" d="M17.7,23c-1.5,0-3.7,0-3.7,0H9.9c0,0-2.1,0-2.8-0.7c-0.5-0.6-0.4-0.6-1-2.1s0.6-2.9,0.6-2.9l4-5h6.5l4,5
					c0,0,1.2,1.4,0.6,2.9c-0.6,1.5-0.5,1.5-1,2.1C20.3,23,18.1,23,18.1,23h-4.1c0,0-2.2,0-3.7,0"/>
			</g>
			<g>
				<line class="st2" x1="13" y1="14" x2="13" y2="21.5"/>
				<line class="st2" x1="14.4" y1="14" x2="14.4" y2="21.5"/>
				<path class="st2" d="M15.5,15.3c0,0-2.2-0.9-2.9-0.1C12,15.9,11.8,17,13,17.5s2.4,0.7,2.3,1.9c-0.1,1.2-1.4,1.6-3.6,0.8"/>
			</g>
		</g>
		<g>
			<path class="st3" d="M2,2.3C2.4,2,2.9,1.8,3.4,1.6c4.3-1.6,9-0.2,11.7,3.3"/>
			<line class="st3" x1="15.4" y1="1.1" x2="15.1" y2="4.9"/>
			<line class="st3" x1="11.2" y1="5" x2="15.1" y2="4.9"/>
		</g>
	</g>
	<g class="st1">
		<g>
			<g>
				<path class="st3" d="M14.9,7.2c0,0,2.7,0,3.2,0c0.6,0,0.7-0.8,0.8-1.8S17.8,4,17.8,4h-2.8h-2.8c0,0-1.4,0.3-1.2,1.3
					s0.3,1.8,0.8,1.8C12.3,7.2,14.9,7.2,14.9,7.2z"/>
				<path class="st3" d="M7.7,14.3"/>
				<path class="st3" d="M13.4,9.4h4.4c0.6,0,1-0.5,1-1V8.2c0-0.6-0.5-1-1-1H12"/>
				<path class="st3" d="M13.4,9.3h4.8l4,5c0,0,1.2,1.4,0.6,2.9c-0.6,1.5-0.5,1.5-1,2.1C21.1,20,19,20,19,20h-4.1c0,0-2.2,0-3.7,0"
					/>
				<path class="st3" d="M18.6,20c-1.5,0-3.7,0-3.7,0h-4.1c0,0-2.1,0-2.8-0.7c-0.4-0.4-0.4-0.3-0.6-0.9"/>
			</g>
			<g>
				<line class="st3" x1="13.8" y1="11" x2="13.8" y2="18.4"/>
				<line class="st3" x1="15.3" y1="11" x2="15.3" y2="18.4"/>
				<path class="st3" d="M16.4,12.3c0,0-2.2-0.9-2.9-0.1s-0.8,1.8,0.3,2.3c1.2,0.5,2.4,0.7,2.3,1.9s-1.4,1.6-3.6,0.8"/>
			</g>
		</g>
		<line class="st3" x1="10.1" y1="7.4" x2="12.7" y2="10.2"/>
		<line class="st3" x1="10.2" y1="13.1" x2="12.7" y2="10.2"/>
		<line class="st3" x1="1.1" y1="10.3" x2="12.7" y2="10.3"/>
		<line class="st3" x1="6.7" y1="11.7" x2="9.3" y2="14.5"/>
		<line class="st3" x1="6.8" y1="17.4" x2="9.3" y2="14.5"/>
		<line class="st3" x1="1.1" y1="14.6" x2="9.3" y2="14.6"/>
	</g>
	<g class="st1">
		<path class="st5" d="M0.3,2l3,1.3l2.1,11.1c0.1,1.7,1.3,2.8,2.8,2.8l10.7,0c1.5,0,2.1-1.6,3-3.6l1.5-4.4c0.8-2.5,0.2-3.6-2.5-3.6
			H7.5"/>
		<circle class="st5" cx="7.8" cy="20.4" r="1.6"/>
		<circle class="st5" cx="18.2" cy="20.4" r="1.6"/>
		<line class="st5" x1="8.4" y1="9.2" x2="20.4" y2="9.2"/>
		<line class="st5" x1="8.8" y1="12.7" x2="18.8" y2="12.7"/>
	</g>
	<g class="st1">
		<path class="st2" d="M6.2,11.8c-0.5-0.6,4.1,4.1,4.1,4.1l7.8-7.8"/>
		<path class="st2" d="M12,1.1c2.3,0,4.3,4.4,8.1,2c1.6-1,1.6,2.1,1.6,5.3c0,8.5-4.8,14.4-9.7,14.4S2.3,17,2.3,8.5
			c0-3.2,0-6.3,1.6-5.3C7.7,5.5,9.7,1.1,12,1.1z"/>
	</g>
	<g class="st1">
		<path class="st3" d="M22.9,10.7C22.3,5.2,17.6,1,12,1C5.9,1,1,5.9,1,12s4.9,11,11,11c4.2,0,7.8-2.3,9.7-5.7"/>
		<path class="st3" d="M20.5,11.1C20,6.8,16.4,3.5,12,3.5c-4.7,0-8.5,3.8-8.5,8.5s3.8,8.5,8.5,8.5c3.2,0,6-1.8,7.4-4.3"/>
		<path class="st3" d="M17.9,11.1C17.5,8.2,15,6,12,6c-3.3,0-6,2.7-6,6s2.7,6,6,6c2.3,0,4.3-1.3,5.3-3.2"/>
		<path class="st3" d="M13.7,10.9c-0.4-0.5-1-0.9-1.7-0.9c-1.1,0-2,0.9-2,2s0.9,2,2,2c0.5,0,0.9-0.2,1.3-0.5"/>
		<line class="st3" x1="23" y1="14.1" x2="11.6" y2="12"/>
		<line class="st3" x1="19.6" y1="13.4" x2="22.6" y2="15.8"/>
		<line class="st3" x1="22.9" y1="12" x2="19.6" y2="13.4"/>
	</g>
	<g class="st1">
		<polyline class="st3" points="0.8,21.4 8.6,9.6 15,12.8 22.2,2.6 		"/>
		<line class="st3" x1="18.4" y1="3.2" x2="22.3" y2="2.6"/>
		<line class="st3" x1="23.2" y1="6.7" x2="22.3" y2="2.8"/>
	</g>
	<g class="st1">
		<g>
			<g>
				<path class="st3" d="M5.4,8.1V1.7c0-0.4,0.3-0.8,0.8-0.8h14.3c0.4,0,0.8,0.3,0.8,0.8v18.9l-2.5,2.5H6.2c-0.4,0-0.8-0.3-0.8-0.8
					v-9.1"/>
				<path class="st2" d="M21.3,20.6h-1.7c-0.4,0-0.8,0.3-0.8,0.8v1.8"/>
			</g>
			<g>
				<line class="st3" x1="7.7" y1="5.4" x2="18.9" y2="5.4"/>
				<line class="st3" x1="7.7" y1="16" x2="18.9" y2="16"/>
				<line class="st3" x1="7.7" y1="18.6" x2="14.5" y2="18.6"/>
			</g>
		</g>
		<line class="st3" x1="2.7" y1="10.7" x2="13.9" y2="10.7"/>
		<line class="st3" x1="11.2" y1="7.9" x2="13.9" y2="10.7"/>
		<line class="st3" x1="11.4" y1="13.6" x2="13.8" y2="10.7"/>
	</g>
	<g class="st1">
		<path class="st3" d="M21.3,17.9H8.8l-0.1,2.9l-3-2.9h-3c-1.1,0-2-0.9-2-2V5.2c0-1.1,0.9-2,2-2h18.6c1.1,0,2,0.9,2,2v10.7
			C23.3,17,22.4,17.9,21.3,17.9z"/>
	</g>
	<g class="st1">
		<circle class="st6" cx="8.8" cy="8.9" r="7"/>
		<line class="st6" x1="14.9" y1="14.7" x2="22.2" y2="22"/>
	</g>
</g>
<g id="Layer_3">
	<g class="st0">
		<linearGradient id="SVGID_1_" gradientUnits="userSpaceOnUse" x1="0" y1="12" x2="24" y2="12">
			<stop  offset="0" style="stop-color:#2BBFDF"/>
			<stop  offset="1" style="stop-color:#1974AD"/>
		</linearGradient>
		<path class="st7" d="M19.2,11.2c-1,0-1.9,0.1-2.7,0.4l-2.6-3.2c0.3-0.3,0.5-0.7,0.5-1.1V6.8c0-0.4-0.2-0.8-0.4-1
			c0.4-0.5,0.5-1.4,0.5-2c0.2-1.3-1.1-1.9-1.8-2.1l-6.5,0l-0.1,0C5.5,1.8,4.2,2.4,4.4,3.8c0.1,0.6,0.2,1.5,0.5,2
			C4.7,6,4.5,6.4,4.5,6.8v0.5c0,0.4,0.2,0.8,0.5,1.1L1,13.5c-0.1,0.1-1.5,1.8-0.8,3.8c0.1,0.4,0.2,0.7,0.3,0.9
			c0.4,1.1,0.6,1.6,1.3,2c0.8,0.4,1.1,0.5,2.3,0.5h9.3c0.7,0.9,2.4,1.6,4.5,1.6c2.7,0,4.8-1.1,4.8-2.5v-1.6c0.8-0.4,1.3-1,1.3-1.7
			v-2.9C24,12.3,21.9,11.2,19.2,11.2z M23,13.7c0,0.6-1.4,1.5-3.8,1.5c-2.3,0-3.8-0.9-3.8-1.5c0-0.6,1.4-1.5,3.8-1.5
			S23,13.1,23,13.7z M19.8,18v-1.9c0.6,0,1.2-0.1,1.8-0.3v1.9C21.1,17.8,20.5,18,19.8,18z M18.8,18c-0.8,0-1.4-0.2-2-0.3v-1.9
			c0.6,0.2,1.3,0.3,2,0.3V18z M15.8,17.2c-0.3-0.2-0.4-0.4-0.4-0.6v-1.4c0.1,0.1,0.3,0.2,0.4,0.3V17.2z M15.2,17.9
			c-0.7-0.3-1.1-0.7-1.1-1c0-0.2,0.1-0.3,0.3-0.5v0.1C14.4,17.1,14.7,17.5,15.2,17.9z M17.4,19.4v1.9c-0.7,0-1.2-0.1-1.7-0.3v-1.9
			C16.2,19.3,16.8,19.4,17.4,19.4z M18.4,19.4c0.5,0,1-0.1,1.5-0.2v1.9c-0.4,0.1-1,0.2-1.5,0.2V19.4z M6.1,7.8
			c-0.3,0-0.5-0.2-0.5-0.5V6.8c0-0.3,0.2-0.5,0.5-0.5h6.8c0.3,0,0.5,0.2,0.5,0.5v0.5c0,0.3-0.2,0.5-0.5,0.5H6.1z M6.3,2.7h6.3
			c0.2,0.1,1,0.3,1,0.9c-0.2,1.5-0.4,1.6-0.5,1.6h-0.2H6.1H5.8c-0.1,0-0.3-0.2-0.5-1.6C5.3,3,6.1,2.7,6.3,2.7z M2.3,19.3
			c-0.4-0.2-0.5-0.5-0.8-1.5c-0.1-0.3-0.2-0.6-0.3-1c-0.5-1.4,0.6-2.8,0.6-2.8L6,8.8c0,0,0.1,0,0.1,0h6.8c0,0,0.1,0,0.1,0l2.6,3.3
			c-0.7,0.4-1.2,1-1.2,1.6v1.6c-0.8,0.4-1.3,1-1.3,1.7v2.8H4.2C3.1,19.7,3,19.7,2.3,19.3z M14.1,19.8v-1.4c0.2,0.1,0.4,0.2,0.6,0.3
			v1.8C14.3,20.3,14.1,20.1,14.1,19.8z M21.7,19.8c0,0.3-0.3,0.6-0.8,0.8v-1.8c0,0,0,0,0,0c0.3,0,0.5-0.1,0.7-0.2V19.8z M22.6,17.2
			v-1.7c0.2-0.1,0.3-0.2,0.4-0.3v1.4C23,16.8,22.8,17,22.6,17.2z"/>
		<linearGradient id="SVGID_2_" gradientUnits="userSpaceOnUse" x1="7.0504" y1="14.2704" x2="11.7801" y2="14.2704">
			<stop  offset="0" style="stop-color:#2BBFDF"/>
			<stop  offset="1" style="stop-color:#1974AD"/>
		</linearGradient>
		<path class="st8" d="M10.8,14.3v-2.5c0.2,0.1,0.4,0.1,0.5,0.2l0.4-0.9c-0.1-0.1-0.5-0.2-0.9-0.3v-0.7h-1v0.5c-0.2,0-0.4,0-0.7,0
			v-0.5h-1v0.8C8.1,10.9,8,11,7.9,11c-0.6,0.6-0.8,1.4-0.7,2.1c0.1,0.3,0.3,0.8,0.9,1.1v2.5c-0.2-0.1-0.5-0.1-0.7-0.2l-0.4,0.9
			c0.4,0.2,0.7,0.3,1.1,0.4v0.7h1V18c0.1,0,0.2,0,0.3,0c0.1,0,0.2,0,0.3,0v0.5h1v-0.8c0,0,0.1,0,0.1,0c0.5-0.3,0.8-0.8,0.9-1.5
			C11.9,15.2,11.4,14.7,10.8,14.3z M9.8,11.6v2.3c-0.1,0-0.1-0.1-0.2-0.1c-0.1-0.1-0.3-0.1-0.4-0.2v-2.1C9.3,11.6,9.6,11.6,9.8,11.6
			z M9.1,17v-2.3c0,0,0.1,0,0.1,0c0.2,0.1,0.4,0.1,0.6,0.2v2C9.6,17,9.4,17,9.1,17z"/>
	</g>
	<g class="st0">
		<linearGradient id="SVGID_3_" gradientUnits="userSpaceOnUse" x1="1.3311" y1="11.3763" x2="12.631" y2="11.3763">
			<stop  offset="0" style="stop-color:#2BBFDF"/>
			<stop  offset="1" style="stop-color:#1974AD"/>
		</linearGradient>
		<path class="st9" d="M12.1,21.7c-5.4,0-9.8-4.4-9.8-9.8c0-4,2.3-7.4,5.9-9L7.3,5.6C7.2,5.9,7.4,6.2,7.6,6.3c0.1,0,0.1,0,0.2,0
			c0.2,0,0.4-0.1,0.5-0.3l1.2-3.7c0,0,0,0,0-0.1c0,0,0,0,0-0.1c0,0,0,0,0,0c0,0,0-0.1,0-0.1c0,0,0,0,0-0.1c0,0,0,0,0,0c0,0,0,0,0,0
			c0,0,0-0.1,0-0.1c0,0,0,0,0-0.1c0,0,0,0,0,0c0,0,0,0-0.1-0.1c0,0,0,0-0.1,0c0,0,0,0,0,0L5.7,0C5.5-0.1,5.2,0,5.1,0.3
			C5,0.5,5.1,0.8,5.3,1l2.4,1.1C3.9,3.8,1.3,7.6,1.3,12c0,6,4.8,10.8,10.8,10.8c0.3,0,0.5-0.2,0.5-0.5S12.4,21.7,12.1,21.7z"/>
		<linearGradient id="SVGID_4_" gradientUnits="userSpaceOnUse" x1="11.369" y1="12.6238" x2="22.6689" y2="12.6238">
			<stop  offset="0" style="stop-color:#2BBFDF"/>
			<stop  offset="1" style="stop-color:#1974AD"/>
		</linearGradient>
		<path class="st10" d="M22.7,12c0-6-4.8-10.8-10.8-10.8c-0.3,0-0.5,0.2-0.5,0.5s0.2,0.5,0.5,0.5c5.4,0,9.8,4.4,9.8,9.8
			c0,4-2.3,7.4-5.9,9l0.9-2.6c0.1-0.3-0.1-0.5-0.3-0.6c-0.3-0.1-0.5,0.1-0.6,0.3l-1.2,3.7c0,0,0,0,0,0.1c0,0,0,0,0,0.1c0,0,0,0,0,0
			c0,0,0,0.1,0,0.1c0,0,0,0,0,0.1c0,0,0,0,0,0c0,0,0,0,0,0c0,0,0,0.1,0,0.1c0,0,0,0.1,0.1,0.1c0,0,0,0,0,0c0,0,0,0,0,0
			c0,0,0,0,0.1,0l3.5,1.6c0.1,0,0.1,0,0.2,0c0.2,0,0.4-0.1,0.5-0.3c0.1-0.3,0-0.6-0.2-0.7l-2.4-1.1C20.1,20.2,22.7,16.4,22.7,12z"/>
	</g>
	<g class="st0">
		<linearGradient id="SVGID_5_" gradientUnits="userSpaceOnUse" x1="0" y1="7.9338" x2="24" y2="7.9338">
			<stop  offset="0" style="stop-color:#2BBFDF"/>
			<stop  offset="1" style="stop-color:#1974AD"/>
		</linearGradient>
		<path class="st11" d="M0.5,8.6h21.8L17,14.2c-0.2,0.2-0.2,0.5,0,0.7c0.1,0.1,0.2,0.1,0.3,0.1c0.1,0,0.3-0.1,0.4-0.2l6-6.3
			C23.9,8.5,24,8.3,24,8.1c0,0,0,0,0,0c0-0.1,0-0.3-0.1-0.4L17.8,1c-0.2-0.2-0.5-0.2-0.7,0c-0.2,0.2-0.2,0.5,0,0.7l5.4,5.9H0.5
			C0.2,7.6,0,7.9,0,8.1C0,8.4,0.2,8.6,0.5,8.6z"/>
		<linearGradient id="SVGID_6_" gradientUnits="userSpaceOnUse" x1="0" y1="16.0665" x2="24" y2="16.0665">
			<stop  offset="0" style="stop-color:#2BBFDF"/>
			<stop  offset="1" style="stop-color:#1974AD"/>
		</linearGradient>
		<path class="st12" d="M23.5,15.4H1.7L7,9.8c0.2-0.2,0.2-0.5,0-0.7C6.7,8.9,6.4,9,6.2,9.2l-6,6.3C0.1,15.5,0,15.7,0,15.9
			c0,0,0,0,0,0c0,0.1,0,0.3,0.1,0.4L6.2,23c0.1,0.1,0.2,0.2,0.4,0.2c0.1,0,0.2,0,0.3-0.1c0.2-0.2,0.2-0.5,0-0.7l-5.4-5.9h21.9
			c0.3,0,0.5-0.2,0.5-0.5S23.8,15.4,23.5,15.4z"/>
	</g>
	<g class="st0">
		<g class="st1">
			<path class="st13" d="M21.5,20H2.5C1.1,20,0,18.8,0,17.4V6.6C0,5.2,1.1,4,2.5,4h18.9C22.9,4,24,5.2,24,6.6v10.9
				C24,18.8,22.9,20,21.5,20z M2.5,5C1.7,5,1,5.7,1,6.6v10.9C1,18.3,1.7,19,2.5,19h18.9c0.8,0,1.5-0.7,1.5-1.5V6.6
				C23,5.7,22.3,5,21.5,5H2.5z"/>
		</g>
		<g class="st1">
			<path class="st13" d="M8.9,13.1H3.4c-0.3,0-0.5-0.2-0.5-0.5V7.1c0-0.3,0.2-0.5,0.5-0.5h5.5c0.3,0,0.5,0.2,0.5,0.5v5.5
				C9.4,12.9,9.2,13.1,8.9,13.1z M3.9,12.1h4.5V7.6H3.9V12.1z"/>
		</g>
		<g class="st1">
			<path class="st14" d="M18.1,12.3c-1.6,0-2.9-1.3-2.9-2.9c0-1.6,1.3-2.9,2.9-2.9c1.6,0,2.9,1.3,2.9,2.9
				C20.9,11,19.7,12.3,18.1,12.3z M18.1,7.6c-1,0-1.8,0.8-1.8,1.8s0.8,1.8,1.8,1.8s1.8-0.8,1.8-1.8S19.1,7.6,18.1,7.6z"/>
		</g>
		<g class="st1">
			<path class="st14" d="M20.4,17.5h-17c-0.3,0-0.5-0.2-0.5-0.5s0.2-0.5,0.5-0.5h17c0.3,0,0.5,0.2,0.5,0.5S20.7,17.5,20.4,17.5z"/>
		</g>
		<g class="st1">
			<path class="st14" d="M12.6,15.1H3.4c-0.3,0-0.5-0.2-0.5-0.5s0.2-0.5,0.5-0.5h9.2c0.3,0,0.5,0.2,0.5,0.5S12.8,15.1,12.6,15.1z"/>
		</g>
	</g>
	<path class="st15" d="M18,2.6l3.9-0.8l-0.2-1L15.8,2l1.7,5.8l1-0.3l-1.2-4.2c3.1,1.8,5,5.1,5,8.8c0,5.6-4.6,10.2-10.2,10.2
		S1.8,17.7,1.8,12S6.4,1.8,12,1.8c0.3,0,0.5-0.2,0.5-0.5S12.3,0.8,12,0.8C5.8,0.8,0.8,5.8,0.8,12s5,11.2,11.2,11.2s11.2-5,11.2-11.2
		C23.2,8.1,21.2,4.6,18,2.6z"/>
	<g class="st0">
		<path class="st16" d="M22.5,14l-3.6-4.5c0.3-0.3,0.4-0.7,0.4-1.1V8.2c0-0.4-0.1-0.7-0.4-1c0.3-0.5,0.4-1.2,0.5-1.8
			c0.1-1.2-1-1.8-1.6-1.9c0,0-0.1,0-0.1,0h-5.7c0,0-0.1,0-0.1,0c-0.6,0.1-1.8,0.7-1.6,1.9c0.1,0.9,0.3,2.3,1.3,2.3H12h5.8
			c0.3,0,0.5,0.2,0.5,0.5v0.2c0,0.2-0.1,0.3-0.2,0.4c0,0,0,0,0,0h-4.8c-0.3,0-0.5,0.2-0.5,0.5c0,0,0,0,0,0.1c0,0,0,0,0,0.1
			c0,0.3,0.2,0.5,0.5,0.5h4.4c0.1,0,0.1,0,0.2,0l3.8,4.7c0,0,1,1.2,0.5,2.4L22,17.8c-0.3,0.8-0.3,0.8-0.6,1.2
			c-0.3,0.4-1.6,0.5-2.4,0.5h-0.5h-7.3h-0.4c-0.8,0-2.1-0.2-2.4-0.5c-0.1-0.1-0.2-0.2-0.3-0.3C8,18.6,8,18.6,7.9,18.3
			C7.8,18,7.5,17.9,7.2,18c-0.3,0.1-0.4,0.4-0.3,0.6c0.2,0.5,0.3,0.6,0.5,0.8c0.1,0.1,0.1,0.1,0.2,0.2c0.7,0.8,2.7,0.9,3.1,0.9h0.5
			h7.3H19c0.4,0,2.4,0,3.1-0.9c0.5-0.5,0.5-0.7,0.8-1.5l0.3-0.7C23.9,15.7,22.6,14.1,22.5,14z M12.1,4.5h5.6c0.2,0,0.9,0.3,0.8,0.8
			c-0.1,1.1-0.3,1.4-0.4,1.4l-0.3,0c0,0,0,0,0,0H12c0,0,0,0,0,0l-0.3,0c-0.1,0-0.2-0.3-0.4-1.4C11.3,4.7,12,4.5,12.1,4.5z"/>
		<path class="st16" d="M13.8,10.5c-0.3,0-0.5,0.2-0.5,0.5v0.7c-0.1,0-0.1,0.1-0.2,0.1c-0.5,0.6-0.7,1.3-0.6,1.9
			c0.1,0.3,0.3,0.7,0.8,1v2.1c-0.2-0.1-0.4-0.1-0.6-0.2c-0.3-0.1-0.5,0-0.6,0.3c-0.1,0.3,0,0.5,0.3,0.6c0.3,0.1,0.6,0.2,0.9,0.3v0.6
			c0,0.3,0.2,0.5,0.5,0.5s0.5-0.2,0.5-0.5v-0.4c0.1,0,0.2,0,0.3,0c0.1,0,0.1,0,0.2,0v0.4c0,0.3,0.2,0.5,0.5,0.5s0.5-0.2,0.5-0.5
			v-0.7c0,0,0,0,0,0c0.5-0.3,0.8-0.8,0.8-1.4c0.1-0.8-0.3-1.3-0.9-1.7v-2.1c0.1,0,0.3,0.1,0.4,0.1c0.3,0.1,0.5,0,0.6-0.3
			c0.1-0.3,0-0.5-0.3-0.6c-0.1,0-0.4-0.2-0.8-0.3V11c0-0.3-0.2-0.5-0.5-0.5s-0.5,0.2-0.5,0.5v0.4c-0.2,0-0.3,0-0.5,0V11
			C14.3,10.7,14.1,10.5,13.8,10.5z M14.3,17.1v-1.9c0,0,0,0,0,0c0.2,0.1,0.3,0.1,0.5,0.2v1.7C14.7,17.1,14.5,17.1,14.3,17.1z
			 M14.8,12.4v1.9c0,0-0.1,0-0.1,0c-0.1,0-0.2-0.1-0.4-0.1v-1.7C14.5,12.4,14.6,12.4,14.8,12.4z"/>
		<path class="st17" d="M1.1,10.8h9.4l-1.7,2c-0.2,0.2-0.2,0.5,0,0.7c0.1,0.1,0.2,0.1,0.3,0.1c0.1,0,0.3-0.1,0.4-0.2l2.5-2.8
			c0,0,0,0,0-0.1l0-0.1c0,0,0,0,0-0.1c0,0,0-0.1,0-0.1c0,0,0-0.1,0-0.1c0,0,0-0.1,0-0.1c0,0,0-0.1,0-0.1c0,0,0-0.1,0-0.1
			c0,0,0-0.1-0.1-0.1c0,0,0,0,0-0.1L9.5,7C9.3,6.8,9,6.8,8.8,7c-0.2,0.2-0.2,0.5,0,0.7l1.9,2.1H1.1c-0.3,0-0.5,0.2-0.5,0.5
			S0.8,10.8,1.1,10.8z"/>
		<path class="st18" d="M8.6,15C8.6,14.9,8.7,14.9,8.6,15l0.1-0.1c0,0,0,0,0-0.1c0,0,0-0.1,0-0.1c0,0,0-0.1,0-0.1c0,0,0-0.1,0-0.1
			c0,0,0-0.1,0-0.1c0,0,0-0.1,0-0.1c0,0,0-0.1-0.1-0.1c0,0,0,0,0-0.1l-2.6-2.9c-0.2-0.2-0.5-0.2-0.7,0c-0.2,0.2-0.2,0.5,0,0.7
			l1.9,2.1H1.1c-0.3,0-0.5,0.2-0.5,0.5s0.2,0.5,0.5,0.5h6.1l-1.7,2c-0.2,0.2-0.2,0.5,0,0.7c0.1,0.1,0.2,0.1,0.3,0.1
			c0.1,0,0.3-0.1,0.4-0.2L8.6,15z"/>
	</g>
	<g>
		<g>
			<path class="st19" d="M10.2,16.6l-0.4-0.4c-1.4-1.5-3.8-3.9-4.1-4.1L6,11.9l-0.3,0.2l0-0.7c0.2-0.2,0.3-0.2,0.7,0.1l0,0l0,0
				c0.5,0.4,1.5,1.5,3.7,3.7l7.5-7.5l0.7,0.7L10.2,16.6z"/>
		</g>
		<g>
			<path class="st19" d="M11.8,23.3c-4.9,0-10.2-5.7-10.2-14.9c0-3.3,0.1-5.3,1.1-5.9C2.9,2.4,3.4,2.3,4,2.7C6.1,4,7.5,3,9,1.9
				c0.9-0.7,1.8-1.3,2.8-1.3s1.9,0.6,2.8,1.3c1.5,1.1,2.9,2.1,5,0.8c0.6-0.4,1.1-0.3,1.3-0.1C22,3.1,22,5.1,22,8.4
				C22,17.6,16.7,23.3,11.8,23.3z M3.2,3.4C3.2,3.4,3.2,3.4,3.2,3.4c-0.6,0.3-0.6,3.2-0.6,5c0,8.3,4.8,13.9,9.2,13.9S21,16.7,21,8.4
				c0-1.8,0-4.7-0.5-5c0,0-0.2,0-0.3,0.1c-2.7,1.7-4.6,0.3-6.1-0.8c-0.8-0.6-1.5-1.1-2.2-1.1s-1.4,0.5-2.2,1.1
				C8.1,3.8,6.2,5.2,3.5,3.5C3.3,3.5,3.2,3.4,3.2,3.4z"/>
		</g>
	</g>
	<g class="st0">
		<g class="st1">
			<linearGradient id="SVGID_7_" gradientUnits="userSpaceOnUse" x1="-9.094947e-13" y1="9.6677" x2="24" y2="9.6677">
				<stop  offset="0" style="stop-color:#00A9CD"/>
				<stop  offset="0.3755" style="stop-color:#05799F"/>
				<stop  offset="1" style="stop-color:#0F224B"/>
			</linearGradient>
			<path class="st20" d="M8.1,17.6c-1.7,0-3-1.3-3.1-3.2L3,3.8L0.3,2.6C0,2.5-0.1,2.2,0,2c0.1-0.2,0.4-0.4,0.7-0.3l3,1.3
				c0.1,0.1,0.3,0.2,0.3,0.4l2,10.9c0.1,1.4,1,2.4,2.2,2.3l10.5,0c1.1,0,1.6-1.1,2.4-3l0.1-0.3l1.5-4.3c0.4-1.1,0.4-1.9,0.1-2.3
				c-0.3-0.4-1-0.6-2.1-0.6H7.5C7.3,6.1,7,5.9,7,5.7c0-0.3,0.2-0.5,0.5-0.5h13.2c1.5,0,2.4,0.3,2.9,1c0.5,0.7,0.5,1.7,0,3.2L22,14.1
				c-0.8,1.9-1.6,3.6-3.3,3.6H8.2C8.1,17.6,8.1,17.6,8.1,17.6z"/>
		</g>
		<g class="st1">
			<linearGradient id="SVGID_8_" gradientUnits="userSpaceOnUse" x1="5.7808" y1="20.2675" x2="9.8545" y2="20.2675">
				<stop  offset="0" style="stop-color:#00A9CD"/>
				<stop  offset="0.3755" style="stop-color:#05799F"/>
				<stop  offset="1" style="stop-color:#0F224B"/>
			</linearGradient>
			<path class="st21" d="M7.8,22.3c-1.1,0-2-0.9-2-2s0.9-2,2-2s2,0.9,2,2S8.9,22.3,7.8,22.3z M7.8,19.2c-0.6,0-1.1,0.5-1.1,1.1
				c0,0.6,0.5,1.1,1.1,1.1c0.6,0,1.1-0.5,1.1-1.1C8.9,19.7,8.4,19.2,7.8,19.2z"/>
		</g>
		<g class="st1">
			<linearGradient id="SVGID_9_" gradientUnits="userSpaceOnUse" x1="16.0505" y1="20.2675" x2="20.1242" y2="20.2675">
				<stop  offset="0" style="stop-color:#00A9CD"/>
				<stop  offset="0.3755" style="stop-color:#05799F"/>
				<stop  offset="1" style="stop-color:#0F224B"/>
			</linearGradient>
			<path class="st22" d="M18.1,22.3c-1.1,0-2-0.9-2-2s0.9-2,2-2s2,0.9,2,2S19.2,22.3,18.1,22.3z M18.1,19.2c-0.6,0-1.1,0.5-1.1,1.1
				c0,0.6,0.5,1.1,1.1,1.1s1.1-0.5,1.1-1.1C19.1,19.7,18.7,19.2,18.1,19.2z"/>
		</g>
		<g class="st1">
			<linearGradient id="SVGID_10_" gradientUnits="userSpaceOnUse" x1="7.9789" y1="9.21" x2="20.8129" y2="9.21">
				<stop  offset="0" style="stop-color:#00A9CD"/>
				<stop  offset="0.3755" style="stop-color:#05799F"/>
				<stop  offset="1" style="stop-color:#0F224B"/>
			</linearGradient>
			<path class="st23" d="M20.3,9.7H8.5C8.2,9.7,8,9.5,8,9.2c0-0.3,0.2-0.5,0.5-0.5h11.8c0.3,0,0.5,0.2,0.5,0.5
				C20.8,9.5,20.6,9.7,20.3,9.7z"/>
		</g>
		<g class="st1">
			<linearGradient id="SVGID_11_" gradientUnits="userSpaceOnUse" x1="8.3379" y1="12.6916" x2="19.2333" y2="12.6916">
				<stop  offset="0" style="stop-color:#00A9CD"/>
				<stop  offset="0.3755" style="stop-color:#05799F"/>
				<stop  offset="1" style="stop-color:#0F224B"/>
			</linearGradient>
			<path class="st24" d="M18.7,13.2H8.8c-0.3,0-0.5-0.2-0.5-0.5s0.2-0.5,0.5-0.5h9.9c0.3,0,0.5,0.2,0.5,0.5S19,13.2,18.7,13.2z"/>
		</g>
	</g>
	<g class="st0">
		<g class="st1">
			<linearGradient id="SVGID_12_" gradientUnits="userSpaceOnUse" x1="0.5" y1="12.0002" x2="23.4261" y2="12.0002">
				<stop  offset="0" style="stop-color:#00A9CD"/>
				<stop  offset="0.3755" style="stop-color:#05799F"/>
				<stop  offset="1" style="stop-color:#0F224B"/>
			</linearGradient>
			<path class="st25" d="M12,23.5C5.7,23.5,0.5,18.3,0.5,12S5.7,0.5,12,0.5c5.8,0,10.7,4.4,11.4,10.2c0,0.3-0.2,0.5-0.4,0.6
				c-0.3,0-0.5-0.2-0.6-0.4C21.8,5.5,17.3,1.5,12,1.5C6.2,1.5,1.5,6.2,1.5,12S6.2,22.5,12,22.5c3.8,0,7.4-2.1,9.2-5.5
				c0.1-0.2,0.4-0.3,0.7-0.2c0.2,0.1,0.3,0.4,0.2,0.7C20.1,21.2,16.2,23.5,12,23.5z"/>
		</g>
		<g class="st1">
			<linearGradient id="SVGID_13_" gradientUnits="userSpaceOnUse" x1="3" y1="12.0002" x2="20.9512" y2="12.0002">
				<stop  offset="0" style="stop-color:#00A9CD"/>
				<stop  offset="0.3755" style="stop-color:#05799F"/>
				<stop  offset="1" style="stop-color:#0F224B"/>
			</linearGradient>
			<path class="st26" d="M12,21c-5,0-9-4-9-9s4-9,9-9c4.6,0,8.5,3.5,8.9,8c0,0.3-0.2,0.5-0.4,0.6c-0.3,0-0.5-0.2-0.6-0.4
				C19.5,7.1,16.1,4,12,4c-4.4,0-8,3.6-8,8s3.6,8,8,8c2.9,0,5.6-1.6,7-4.1c0.1-0.2,0.4-0.3,0.7-0.2c0.2,0.1,0.3,0.4,0.2,0.7
				C18.3,19.2,15.3,21,12,21z"/>
		</g>
		<g class="st1">
			<linearGradient id="SVGID_14_" gradientUnits="userSpaceOnUse" x1="5.5" y1="12.0002" x2="18.437" y2="12.0002">
				<stop  offset="0" style="stop-color:#00A9CD"/>
				<stop  offset="0.3755" style="stop-color:#05799F"/>
				<stop  offset="1" style="stop-color:#0F224B"/>
			</linearGradient>
			<path class="st27" d="M12,18.5c-3.6,0-6.5-2.9-6.5-6.5S8.4,5.5,12,5.5c3.2,0,6,2.4,6.4,5.6c0,0.3-0.1,0.5-0.4,0.6
				c-0.3,0-0.5-0.1-0.6-0.4c-0.4-2.7-2.7-4.7-5.4-4.7C9,6.5,6.5,9,6.5,12S9,17.5,12,17.5c2.1,0,3.9-1.1,4.9-2.9
				c0.1-0.2,0.4-0.3,0.7-0.2c0.2,0.1,0.3,0.4,0.2,0.7C16.6,17.2,14.4,18.5,12,18.5z"/>
		</g>
		<g class="st1">
			<linearGradient id="SVGID_15_" gradientUnits="userSpaceOnUse" x1="9.4688" y1="11.9999" x2="14.1586" y2="11.9999">
				<stop  offset="0" style="stop-color:#00A9CD"/>
				<stop  offset="0.3755" style="stop-color:#05799F"/>
				<stop  offset="1" style="stop-color:#0F224B"/>
			</linearGradient>
			<path class="st28" d="M12,14.5c-1.4,0-2.5-1.1-2.5-2.5s1.1-2.5,2.5-2.5c0.8,0,1.6,0.4,2.1,1.1c0.2,0.2,0.1,0.5-0.1,0.7
				c-0.2,0.2-0.5,0.1-0.7-0.1c-0.3-0.4-0.8-0.7-1.3-0.7c-0.8,0-1.5,0.7-1.5,1.5c0,0.8,0.7,1.5,1.5,1.5c0.4,0,0.7-0.1,1-0.4
				c0.2-0.2,0.5-0.1,0.7,0.1c0.2,0.2,0.2,0.5-0.1,0.7C13.1,14.3,12.6,14.5,12,14.5z"/>
		</g>
		<g class="st1">
			<linearGradient id="SVGID_16_" gradientUnits="userSpaceOnUse" x1="11.1258" y1="13.0316" x2="23.5002" y2="13.0316">
				<stop  offset="0" style="stop-color:#00A9CD"/>
				<stop  offset="0.3755" style="stop-color:#05799F"/>
				<stop  offset="1" style="stop-color:#0F224B"/>
			</linearGradient>
			<path class="st29" d="M23,14.6C23,14.6,22.9,14.6,23,14.6l-11.5-2.1c-0.3,0-0.5-0.3-0.4-0.6c0-0.3,0.3-0.4,0.6-0.4l11.4,2.1
				c0.3,0,0.5,0.3,0.4,0.6C23.4,14.4,23.2,14.6,23,14.6z"/>
		</g>
		<g class="st1">
			<linearGradient id="SVGID_17_" gradientUnits="userSpaceOnUse" x1="19.1015" y1="14.6216" x2="23.1249" y2="14.6216">
				<stop  offset="0" style="stop-color:#00A9CD"/>
				<stop  offset="0.3755" style="stop-color:#05799F"/>
				<stop  offset="1" style="stop-color:#0F224B"/>
			</linearGradient>
			<path class="st30" d="M22.6,16.3c-0.1,0-0.2,0-0.3-0.1l-3-2.4c-0.2-0.2-0.3-0.5-0.1-0.7c0.2-0.2,0.5-0.3,0.7-0.1l3,2.4
				c0.2,0.2,0.3,0.5,0.1,0.7C22.9,16.2,22.8,16.3,22.6,16.3z"/>
		</g>
		<g class="st1">
			<linearGradient id="SVGID_18_" gradientUnits="userSpaceOnUse" x1="19.1014" y1="12.7233" x2="23.4256" y2="12.7233">
				<stop  offset="0" style="stop-color:#00A9CD"/>
				<stop  offset="0.3755" style="stop-color:#05799F"/>
				<stop  offset="1" style="stop-color:#0F224B"/>
			</linearGradient>
			<path class="st31" d="M19.6,13.9c-0.2,0-0.4-0.1-0.5-0.3c-0.1-0.3,0-0.5,0.3-0.7l3.3-1.4c0.3-0.1,0.5,0,0.7,0.3
				c0.1,0.3,0,0.5-0.3,0.7l-3.3,1.4C19.7,13.9,19.7,13.9,19.6,13.9z"/>
		</g>
	</g>
	<linearGradient id="SVGID_19_" gradientUnits="userSpaceOnUse" x1="0.2527" y1="12.0004" x2="23.7475" y2="12.0004">
		<stop  offset="0" style="stop-color:#00A9CD"/>
		<stop  offset="0.3755" style="stop-color:#05799F"/>
		<stop  offset="1" style="stop-color:#0F224B"/>
	</linearGradient>
	<path class="st32" d="M23.7,6.5l-0.9-3.9c0,0,0,0,0,0c0,0,0-0.1,0-0.1c0-0.3-0.3-0.5-0.6-0.4l-0.1,0c-0.1,0-0.2,0-0.2,0l-3.7,0.5
		c-0.3,0-0.5,0.3-0.4,0.6c0,0.3,0.2,0.4,0.5,0.4c0,0,0,0,0.1,0l2.6-0.3l-6.2,8.9l-6-3C8.6,9,8.3,9.1,8.2,9.3L0.3,21.1
		c-0.2,0.2-0.1,0.5,0.1,0.7c0.1,0.1,0.2,0.1,0.3,0.1c0.2,0,0.3-0.1,0.4-0.2l7.6-11.4l6,3c0.2,0.1,0.5,0,0.6-0.2L22,3.7l0.7,3.1
		C22.8,7,23,7.2,23.2,7.2c0,0,0.1,0,0.1,0C23.6,7.1,23.8,6.8,23.7,6.5z"/>
	<g class="st0">
		<g class="st1">
			<g>
				<g>
					<linearGradient id="SVGID_20_" gradientUnits="userSpaceOnUse" x1="3.5713" y1="11.9999" x2="20.4287" y2="11.9999">
						<stop  offset="0" style="stop-color:#00A9CD"/>
						<stop  offset="0.3755" style="stop-color:#05799F"/>
						<stop  offset="1" style="stop-color:#0F224B"/>
					</linearGradient>
					<path class="st33" d="M17.4,23.6H4.8c-0.7,0-1.3-0.6-1.3-1.3v-9.1c0-0.3,0.2-0.5,0.5-0.5s0.5,0.2,0.5,0.5v9.1
						c0,0.1,0.1,0.3,0.3,0.3h12.4l2.2-2.2V1.7c0-0.1-0.1-0.3-0.3-0.3H4.8c-0.1,0-0.3,0.1-0.3,0.3v6.4c0,0.3-0.2,0.5-0.5,0.5
						S3.6,8.4,3.6,8.1V1.7c0-0.7,0.6-1.3,1.3-1.3h14.3c0.7,0,1.3,0.6,1.3,1.3v18.9c0,0.1-0.1,0.3-0.1,0.4l-2.5,2.5
						C17.7,23.5,17.5,23.6,17.4,23.6z"/>
				</g>
				<g>
					<linearGradient id="SVGID_21_" gradientUnits="userSpaceOnUse" x1="16.937" y1="21.5715" x2="19.9287" y2="21.5715">
						<stop  offset="0" style="stop-color:#00A9CD"/>
						<stop  offset="0.3755" style="stop-color:#05799F"/>
						<stop  offset="1" style="stop-color:#0F224B"/>
					</linearGradient>
					<path class="st34" d="M17.9,23.1h-1v-1.8c0-0.7,0.6-1.3,1.3-1.3h1.7v1h-1.7c-0.1,0-0.3,0.1-0.3,0.3V23.1z"/>
				</g>
			</g>
			<g>
				<g>
					<linearGradient id="SVGID_22_" gradientUnits="userSpaceOnUse" x1="5.9087" y1="5.3512" x2="18.0913" y2="5.3512">
						<stop  offset="0" style="stop-color:#00A9CD"/>
						<stop  offset="0.3755" style="stop-color:#05799F"/>
						<stop  offset="1" style="stop-color:#0F224B"/>
					</linearGradient>
					<path class="st35" d="M17.6,5.9H6.4c-0.3,0-0.5-0.2-0.5-0.5s0.2-0.5,0.5-0.5h11.2c0.3,0,0.5,0.2,0.5,0.5S17.9,5.9,17.6,5.9z"/>
				</g>
				<g>
					<linearGradient id="SVGID_23_" gradientUnits="userSpaceOnUse" x1="5.9087" y1="15.9889" x2="18.0913" y2="15.9889">
						<stop  offset="0" style="stop-color:#00A9CD"/>
						<stop  offset="0.3755" style="stop-color:#05799F"/>
						<stop  offset="1" style="stop-color:#0F224B"/>
					</linearGradient>
					<path class="st36" d="M17.6,16.5H6.4c-0.3,0-0.5-0.2-0.5-0.5c0-0.3,0.2-0.5,0.5-0.5h11.2c0.3,0,0.5,0.2,0.5,0.5
						C18.1,16.3,17.9,16.5,17.6,16.5z"/>
				</g>
				<g>
					<linearGradient id="SVGID_24_" gradientUnits="userSpaceOnUse" x1="5.9087" y1="18.6486" x2="13.6504" y2="18.6486">
						<stop  offset="0" style="stop-color:#00A9CD"/>
						<stop  offset="0.3755" style="stop-color:#05799F"/>
						<stop  offset="1" style="stop-color:#0F224B"/>
					</linearGradient>
					<path class="st37" d="M13.2,19.1H6.4c-0.3,0-0.5-0.2-0.5-0.5s0.2-0.5,0.5-0.5h6.7c0.3,0,0.5,0.2,0.5,0.5S13.4,19.1,13.2,19.1z"
						/>
				</g>
			</g>
		</g>
		<g class="st1">
			<linearGradient id="SVGID_25_" gradientUnits="userSpaceOnUse" x1="0.9087" y1="10.6701" x2="13.0908" y2="10.6701">
				<stop  offset="0" style="stop-color:#00A9CD"/>
				<stop  offset="0.3755" style="stop-color:#05799F"/>
				<stop  offset="1" style="stop-color:#0F224B"/>
			</linearGradient>
			<path class="st38" d="M12.6,11.2H1.4c-0.3,0-0.5-0.2-0.5-0.5s0.2-0.5,0.5-0.5h11.2c0.3,0,0.5,0.2,0.5,0.5S12.9,11.2,12.6,11.2z"
				/>
		</g>
		<g class="st1">
			<linearGradient id="SVGID_26_" gradientUnits="userSpaceOnUse" x1="9.3657" y1="9.3009" x2="13.0587" y2="9.3009">
				<stop  offset="0" style="stop-color:#00A9CD"/>
				<stop  offset="0.3755" style="stop-color:#05799F"/>
				<stop  offset="1" style="stop-color:#0F224B"/>
			</linearGradient>
			<path class="st39" d="M12.6,11.2c-0.1,0-0.3-0.1-0.4-0.2L9.5,8.3c-0.2-0.2-0.2-0.5,0-0.7c0.2-0.2,0.5-0.2,0.7,0l2.7,2.8
				c0.2,0.2,0.2,0.5,0,0.7C12.8,11.1,12.7,11.2,12.6,11.2z"/>
		</g>
		<g class="st1">
			<linearGradient id="SVGID_27_" gradientUnits="userSpaceOnUse" x1="9.5282" y1="12.1465" x2="13.0001" y2="12.1465">
				<stop  offset="0" style="stop-color:#00A9CD"/>
				<stop  offset="0.3755" style="stop-color:#05799F"/>
				<stop  offset="1" style="stop-color:#0F224B"/>
			</linearGradient>
			<path class="st40" d="M10,14.1c-0.1,0-0.2,0-0.3-0.1c-0.2-0.2-0.2-0.5-0.1-0.7l2.5-2.9c0.2-0.2,0.5-0.2,0.7-0.1
				c0.2,0.2,0.2,0.5,0.1,0.7l-2.5,2.9C10.3,14.1,10.2,14.1,10,14.1z"/>
		</g>
	</g>
	<g class="st0">
		<linearGradient id="SVGID_28_" gradientUnits="userSpaceOnUse" x1="0.2085" y1="13.2565" x2="23.792" y2="13.2565">
			<stop  offset="0" style="stop-color:#00A9CD"/>
			<stop  offset="0.3755" style="stop-color:#05799F"/>
			<stop  offset="1" style="stop-color:#0F224B"/>
		</linearGradient>
		<path class="st41" d="M8.8,22.5c-0.1,0-0.3,0-0.3-0.1l-2.9-2.7H2.7c-1.4,0-2.5-1.1-2.5-2.5V6.5C0.2,5.1,1.3,4,2.7,4h18.6
			c1.4,0,2.5,1.1,2.5,2.5v10.7c0,1.4-1.1,2.5-2.5,2.5h-12L9.3,22c0,0.2-0.1,0.4-0.3,0.4C8.9,22.5,8.8,22.5,8.8,22.5z M2.7,5
			C1.9,5,1.2,5.7,1.2,6.5v10.7c0,0.8,0.7,1.5,1.5,1.5h3c0.1,0,0.3,0,0.3,0.1l2.2,2.1l0.1-1.7c0-0.3,0.2-0.5,0.5-0.5h12.5
			c0.8,0,1.5-0.7,1.5-1.5V6.5c0-0.8-0.7-1.5-1.5-1.5H2.7z"/>
	</g>
</g>
</svg>
