<?xml version="1.0" encoding="utf-8"?>
<!-- Generator: Adobe Illustrator 22.1.0, SVG Export Plug-In . SVG Version: 6.00 Build 0)  -->
<svg version="1.1" id="Isolation_Mode" xmlns="http://www.w3.org/2000/svg" xmlns:xlink="http://www.w3.org/1999/xlink" x="0px"
	 y="0px" viewBox="0 0 16 16" style="enable-background:new 0 0 16 16;" xml:space="preserve">
<style type="text/css">
	.st0{fill:#fff;}
</style>
<g>
	<g>
		<g>
			<path class="st0" d="M8.1,11.4c-0.3,0-0.5-0.2-0.5-0.5V1.3c0-0.3,0.2-0.5,0.5-0.5c0.3,0,0.5,0.2,0.5,0.5v9.6
				C8.6,11.2,8.4,11.4,8.1,11.4z"/>
		</g>
		<g>
			<g>
				<polygon class="st0" points="12.2,4.7 11.5,5.4 8.1,1.7 4.7,5.4 4,4.7 8.1,0.3 				"/>
			</g>
		</g>
	</g>
	<g>
		<path class="st0" d="M14.1,15.7H1.9c-1,0-1.9-0.9-1.9-1.9V7.2c0-0.3,0.2-0.5,0.5-0.5S1,6.9,1,7.2v6.6c0,0.5,0.4,0.9,0.9,0.9h12.2
			c0.5,0,0.9-0.4,0.9-0.9V7.2c0-0.3,0.2-0.5,0.5-0.5S16,6.9,16,7.2v6.6C16,14.9,15.1,15.7,14.1,15.7z"/>
	</g>
</g>
</svg>
